<svg xmlns="http://www.w3.org/2000/svg" xmlns:xlink="http://www.w3.org/1999/xlink" viewBox="0 0 3493.28 1873.76"><defs><style>.cls-1,.cls-2,.cls-3{opacity:0.67;}.cls-1{fill:url(#中间色色谱_);}.cls-2{fill:url(#中间色色谱_2);}.cls-3{fill:url(#中间色色谱_3);}</style><linearGradient id="中间色色谱_" x1="1928.28" y1="480.81" x2="3493.28" y2="480.81" gradientUnits="userSpaceOnUse"><stop offset="0" stop-color="#7ecbf1"/><stop offset="0.2" stop-color="#8f82ba"/><stop offset="0.4" stop-color="#ed9ebd"/><stop offset="0.6" stop-color="#ef9b76"/><stop offset="0.8" stop-color="#fef59a"/><stop offset="1" stop-color="#89c797"/></linearGradient><linearGradient id="中间色色谱_2" x1="0" y1="1051.02" x2="2483.99" y2="1051.02" xlink:href="#中间色色谱_"/><linearGradient id="中间色色谱_3" x1="2768.94" y1="1615.5" x2="3160.84" y2="1615.5" xlink:href="#中间色色谱_"/></defs><title>音符 五线谱</title><g id="图层_2" data-name="图层 2"><g id="图层_4" data-name="图层 4"><path class="cls-1" d="M3398.93,748.77A603.5,603.5,0,0,0,3320.07,663a696.6,696.6,0,0,0-92.87-70.25l-.11-.07-.13-.06-.21-.1c45.1-13.87,71.91-42,81.41-71.49l1.51-5.86c0-.27.06-3.22,0-8.19,2,.87,4,1.75,6,2.67l6.51,3.05a70.4,70.4,0,0,1,6.44,3.23l12.67,7.07c4.21,2.37,8.47,4.68,12.64,7.1l6.13,3.77,3.06,1.89c1,.64,2,1.33,3,2l6,4c2,1.32,3.92,2.79,5.88,4.17s3.93,2.78,5.83,4.25l5.68,4.43a287,287,0,0,1,41.45,39.89c3.2,3.58,6,7.45,9,11.19l1.11,1.42,1.05,1.46,2.1,2.92c1.38,2,2.84,3.87,4.16,5.87l3.94,6,2,3,1.83,3.1,3.67,6.18c1.19,2.08,2.28,4.22,3.42,6.32l1.7,3.17.84,1.59.78,1.62,3.1,6.48c1.08,2.15,2,4.35,2.9,6.54l2.79,6.56c.23.56.37,1.08.6,1.68l.65,1.78c.45,1.17.91,2.33,1.37,3.46.93,2.28,1.88,4.5,2.75,6.71.43,1.1.85,2.19,1.24,3.29l.28.81.14.41.11.35q.21.71.39,1.53c.26,1.1.5,2.4.94,3.79a16.21,16.21,0,0,0,1.77,3.88c.13.28.25.54.33.76a3.77,3.77,0,0,1,.18.65,6.39,6.39,0,0,1,.07.79V699h7c0-.43,0-.89,0-1.42a13.61,13.61,0,0,0-.18-1.77,11.54,11.54,0,0,0-.51-1.84c-.21-.56-.44-1.06-.67-1.53l-.11-.21-.11-.17c-1-1.39-1.37-3.1-1.93-5.66-.14-.63-.31-1.31-.52-2l-.17-.51-.15-.46-.32-.9c-.43-1.19-.88-2.36-1.34-3.52-.92-2.31-1.89-4.55-2.8-6.76q-.69-1.66-1.32-3.3l-.61-1.64c-.21-.53-.39-1.18-.63-1.74a279.76,279.76,0,0,0-12.6-26.77c-1.18-2.15-2.31-4.34-3.53-6.47L3462,626l-1.9-3.17-2-3.08-4.07-6.15c-1.36-2-2.86-4-4.28-6l-2.17-3-1.08-1.49-1.14-1.45c-3.08-3.83-6-7.77-9.31-11.42a293.59,293.59,0,0,0-42.51-40.6l-5.82-4.5c-2-1.48-4-2.86-6-4.3s-3.95-2.9-6-4.23l-6.13-4c-1-.67-2-1.36-3.08-2l-3.14-1.92-6.29-3.84c-4.24-2.43-8.52-4.73-12.78-7.11l-12.8-7.07a71.85,71.85,0,0,0-6.58-3.26l-6.69-3.11c-2.84-1.29-5.69-2.5-8.54-3.71-.14-21-.59-61.2-1-97.61,3.57.85,7.14,1.71,10.7,2.62q25.29,6.44,49.88,15.21c4.11,1.42,8.16,3,12.21,4.56s8.06,3.23,12.08,4.88,7.95,3.46,11.93,5.21l3,1.32,2.92,1.41,5.84,2.88a407.16,407.16,0,0,1,45.05,26c1.81,1.21,3.6,2.43,5.32,3.63l1.3.9,1.26,1,2.6,2c3.53,2.68,7.09,5.24,10.57,7.82l3,2.27q-.21-4.21-.43-8.42c-3.12-2.28-6.22-4.52-9.24-6.8l-2.59-2-1.32-1-1.39-1c-1.87-1.29-3.7-2.53-5.53-3.74a413.5,413.5,0,0,0-45.84-26.21c-7.85-3.95-16-7.51-24.07-10.89-4.08-1.66-8.13-3.38-12.25-4.9s-8.21-3.15-12.37-4.56q-24.87-8.82-50.48-15.18-6.08-1.51-12.19-2.91c-.31-26.08-.6-49.51-.75-61.51,6.08.84,12.21,1.49,18.2,2,15,1.29,28.74,1.93,41.89,3.54,6.66.81,13.22,1.87,19.68,3.25,2.33.5,4.65,1.06,7,1.64,6.11,1.86,12.23,3.56,18.21,5.46a281.09,281.09,0,0,1,26.2,10.78c.81.37,2,.12,1.33-.3l-2-1.23,7.17,3.41,17.82,8.51q9.06,4.38,18,9c-.12-2.48-.26-4.95-.4-7.43q-7.37-3.73-14.81-7.31l-17.9-8.45-8.91-4.2a7.79,7.79,0,0,0-3.72-.87c-1,0-.95,0-1.25-.11l-2.1-1c-.77-.38-1.55-.71-2.32-1a159.71,159.71,0,0,0-19-6.75c-6.38-1.91-12.69-3.62-18.92-5.61l-2.4-.77-2.45-.63c-1.63-.42-3.27-.85-4.88-1.23-3.22-.8-6.46-1.53-9.69-2.26q-9.74-2.13-19.53-3.83c-13.06-2.29-26.2-4-39.35-5.47-.9-.11-1.81-.19-2.72-.29-1.14-.34-2.25-.68-3.29-1,0-3.22-.07-5-.07-5,6.27.94,20.7,2.87,27.38,3.59,37.2,4,66.1,10.92,89.48,24.3.78.44,2.36.24,1.77-.22a138.14,138.14,0,0,0-13-9.24c-11.47-7.07-24.84-12.69-41.8-16.74-16.36-3.9-32.14-4.17-52.58-8.74a83.35,83.35,0,0,1-11.31-3.24h-13.59l-1.49,14.66q-9.15-.72-18.28-1.27-19.78-1.12-39.61-1.59t-39.62-.3c-26.41.18-52.79,1-79.15,2.1l-19.74.87-9.92.43c-3.31.21-6.63.41-9.93.71-13.22,1.09-26.33,2.88-39.39,4.72s-26.08,3.79-39.13,5.26c-3.26.36-6.52.7-9.77,1l-2.44.22-2.45.14-4.91.27q-9.86.53-19.7.83t-19.69.2q-9.83-.11-19.63-.75c-6.54-.44-13-1.13-19.53-2s-12.91-2.08-19.3-3.45L2880,330h-5c-20.18-5-40.28-10.3-59.26-18.48-9.55-4.13-19-8.63-28.32-13.23l-7-3.48c-2.34-1.19-4.67-2.24-6.89-3.57-4.5-2.53-9-5.19-13.43-7.91A564.77,564.77,0,0,1,2709,247.41a521.77,521.77,0,0,1-46.55-41.69c-14.8-14.72-29.15-29.92-44-44.66q-11.12-11.09-22.8-21.62c-3.89-3.5-7.84-7-12-10.24s-8.28-6.47-12.58-9.49a277.17,277.17,0,0,0-55.18-30.08A407.08,407.08,0,0,0,2456,70.72q-7.64-1.83-15.31-3.47l-3.85-.8-1.93-.4-1.94-.33-7.75-1.29q-15.49-2.51-31.08-4.42-7.79-.94-15.6-1.74l-7.81-.75-3.92-.34-3.92-.22c-10.45-.59-20.91-1-31.37-1.15q-31.38-.57-62.74.67-31.35,1.5-62.53,5.17a1140,1140,0,0,0-123.46,22l-3.27.76c0-2.54-.05-5.29-.08-8.19q31.72-6.83,63.77-12A1092.93,1092.93,0,0,1,2253.53,52a843.47,843.47,0,0,1,110.95.58c36.89,2.74,73.62,8.28,109.39,17.66S2544.41,92.9,2576.62,111a358,358,0,0,1,46,30.72c7.26,5.7,14.24,11.72,21,18s13.82,12.41,20.95,18.36a463.48,463.48,0,0,0,44.89,33,398.88,398.88,0,0,0,48.87,26.84,377.25,377.25,0,0,0,52.27,19.47,411.14,411.14,0,0,0,54.53,11.78c36.83,5.45,74.16,6.25,111.24,5s74.06-4.52,111-7.52,73.82-5.82,110.77-6.85a937.84,937.84,0,0,1,110.71,2.93A752.72,752.72,0,0,1,3418,280.57q28.35,6.82,56.1,15.88-.2-3.37-.32-6.77-26.88-8.55-54.36-15.07a758.91,758.91,0,0,0-110.08-17.54A943.08,943.08,0,0,0,3198,254.56c-37.11,1.19-74.1,4.13-111,7.3s-73.79,6.53-110.74,7.95-74,.75-110.52-4.51a406.57,406.57,0,0,1-54.06-11.46,373.61,373.61,0,0,1-51.85-19.08,394.32,394.32,0,0,1-48.56-26.42,458.7,458.7,0,0,1-44.71-32.63q-10.66-8.82-20.9-18.17c-6.84-6.29-13.92-12.35-21.25-18.06a359.74,359.74,0,0,0-46.46-30.77c-32.51-18.08-67.54-31.31-103.48-40.56s-72.82-14.68-109.8-17.29a846.68,846.68,0,0,0-111.16-.14A1094.09,1094.09,0,0,0,2143,63.36q-32,5.28-63.64,12.24c-.29-27.74-.81-68.7-.81-68.7,3.5.62,11.49,1.88,15.17,2.34,20.34,2.55,35.55,6.94,46.68,15.05.36.26,1.22.15,1-.13a56.67,56.67,0,0,0-5.95-5.56c-5.5-4.39-12.32-8-21.41-10.59-8.89-2.57-17.72-2.75-29.12-5.8a42,42,0,0,1-6.4-2.21h-7.73L2066,78.61l-.32.07a95.66,95.66,0,0,0-28-3.87c-26.85,0-53.22,9.58-59.59,22.85a14.17,14.17,0,0,0-1.39,5.1c-16.3,5.12-32.48,10.61-48.43,16.74,15.94-6,32.12-11.48,48.41-16.53-.22,4.1,1.6,8,5.14,11.39q-9.32,3.45-18.55,7.14,9.32-3.54,18.68-7c3.92,3.72,9.91,6.86,17.54,9.07-2.1.6-4.2,1.2-6.31,1.78q3.18-.87,6.36-1.77a97.87,97.87,0,0,0,26.89,3.43c30.53,0,47.45-11.21,52.51-24.48l.44-1.47c1.47-.3,2.94-.59,4.42-.87h0a2.73,2.73,0,0,0,1.14-.42c.33-.19.65-.4,1-.61s.63-.42.94-.6a2.32,2.32,0,0,1,1-.36h0c26.79-5.94,53.63-11.69,80.62-16.61s54.12-9.14,81.41-12c13.64-1.41,27.31-2.51,41-3.18s27.4-.89,41.11-.66a512.75,512.75,0,0,1,81.76,7.68c3.36.64,6.75,1.19,10.1,1.9l10.05,2.1,10,2.37c3.33.78,6.62,1.73,9.94,2.59a378.7,378.7,0,0,1,39,12.59c25.39,10.09,49.34,24,69.93,42,5.19,4.43,10.07,9.21,14.85,14.09,1.18,1.23,2.31,2.5,3.47,3.75s2.33,2.48,3.42,3.8q3.32,3.9,6.58,7.88c8.68,10.59,17,21.47,25.54,32.25s17.19,21.47,26.43,31.67,18.67,20.13,27.54,30.54l0,0,0,0,12.75,12.8,6.37,6.39,3.18,3.2c1,1.08,2.21,2.07,3.3,3.11,8.86,8.2,17.83,16.23,27,24,18.42,15.56,37.82,30.08,58.79,42.23,21,11.87,42.94,22.38,66.11,29.6a276.51,276.51,0,0,0,35.31,8.47c3,.55,6,1,9,1.45s6,.85,9,1.17c6,.73,12,1.23,18.08,1.6a351.47,351.47,0,0,0,36.29.25c6-.26,12.07-.68,18.09-1.18l18-1.6c24-2.15,47.9-4.38,71.86-6s47.95-2.8,71.93-2.79a645.74,645.74,0,0,1,71.73,3.89l.14,0h.16l8.85,0c22.85,2.44,45.61,5.72,68.14,10.14l-6,59.29c-17.61-6.1-39.15-9.57-63.09-9.57a261.9,261.9,0,0,0-74.45,11.18q-10.59-1.24-21.19-2.25h-.24a188.29,188.29,0,0,1-23.12-1.86c-4-.36-7.89-.61-11.83-.91l-11.78-.63c-15.71-.69-31.42-.83-47.11-.73-31.37.2-62.68,1.38-93.94,1.18s-62.53-1.87-93.22-7.41a327.62,327.62,0,0,1-45.26-11.4,280.73,280.73,0,0,1-42.67-18.16l-2.81-2.79-.17-.17-.21-.12a239,239,0,0,1-48.95-37.23,293.64,293.64,0,0,1-39.06-47.73,454.81,454.81,0,0,1-30.35-53.92c-1.15-2.31-2.22-4.66-3.3-7l-3.25-7c-2.09-4.73-4.18-9.44-6.19-14.2L2605,217.52l0,0,0-.06a3.69,3.69,0,0,1-.37-1.92,8.48,8.48,0,0,0-.11-1.52,6.44,6.44,0,0,0-.53-1.55l0,.09a183.58,183.58,0,0,0-19-35,196.2,196.2,0,0,0-26-30.15c-2.41-2.28-4.84-4.55-7.41-6.66s-5-4.36-7.71-6.31-5.24-4.09-8-5.9-5.44-3.81-8.32-5.47a218,218,0,0,0-35.62-17.69c-24.75-9.67-50.84-15.27-77-19-3.28-.42-6.55-1-9.84-1.28s-6.58-.74-9.88-1q-9.88-.9-19.8-1.45c-13.21-.72-26.45-.95-39.68-.77a769.72,769.72,0,0,0-79.13,5.52c-13.11,1.68-26.21,3.53-39.25,5.66s-26.07,4.43-39.05,6.93c-51.93,10-103.19,23.18-153.94,38,50.81-14.59,102.11-27.56,154.06-37.36,13-2.44,26-4.73,39.05-6.76s26.14-3.88,39.25-5.5a767.73,767.73,0,0,1,79-5.19c13.2-.13,26.4.15,39.58.93q9.88.57,19.74,1.52c3.28.28,6.55.7,9.83,1s6.54.89,9.81,1.32c26.08,3.82,52,9.51,76.54,19.2a215.56,215.56,0,0,1,35.22,17.67c2.84,1.65,5.49,3.61,8.21,5.45s5.31,3.87,7.92,5.86,5.1,4.14,7.6,6.26,4.93,4.35,7.31,6.62a194.81,194.81,0,0,1,25.57,29.9,180.91,180.91,0,0,1,18.58,34.63l0,0,0,.06a3.65,3.65,0,0,1,.36,1.93,8.48,8.48,0,0,0,.11,1.52,6.22,6.22,0,0,0,.52,1.56l0-.1,11.48,28.88c2,4.78,4.09,9.54,6.17,14.3l3.23,7.08c1.08,2.36,2.14,4.72,3.3,7.05a454.79,454.79,0,0,0,30.33,54.39,295.39,295.39,0,0,0,39.29,48.4,242.1,242.1,0,0,0,49.29,37.84l2.84,2.85.18.19.24.13a285.32,285.32,0,0,0,43.39,18.68A332.57,332.57,0,0,0,2838.07,450c31,5.72,62.52,7.52,93.89,7.85s62.73-.73,94-.81c15.64,0,31.27.17,46.86.92l11.68.68c3.87.3,7.76.57,11.59.92a193.06,193.06,0,0,0,23.53,2q4.92.49,9.82,1c-29.15,10.43-54.1,25.76-68.36,44.38a66.32,66.32,0,0,0-9.09,15.68c-3.95-.67-7.92-1.3-11.89-1.85a356.92,356.92,0,0,0-65.42-3h-.18c-38.54,5-77.13,9.92-115.9,10.76a435,435,0,0,1-58-2.38,314.54,314.54,0,0,1-56.75-11.54c-2.31-.69-4.65-1.3-6.88-2.2s-4.5-1.69-6.75-2.58c-4.47-1.8-8.91-3.71-13.24-5.82a188.86,188.86,0,0,1-25-14.4c-3.94-2.77-7.85-5.59-11.56-8.66-1.9-1.49-3.68-3.11-5.53-4.66s-3.61-3.22-5.3-4.9L2667,469l-2.41-2.67c-1.62-1.8-3.21-3.62-4.79-5.45-3.15-3.67-6.21-7.41-9.13-11.26s-5.72-7.78-8.34-11.82c-.66-1-1.3-2-1.93-3s-1.2-2.07-1.8-3.11c-1.18-2.12-2.34-4.23-3.47-6.37-4.55-8.55-8.68-17.32-12.59-26.19l-1.46-3.33c-.46-1.11-1-2.18-1.36-3.34l-2.48-6.84-5-13.69-1.23-3.42-1.12-3.42q-1.11-3.46-2.13-6.94-2-7-3.76-14c-2.28-9.41-4.15-18.92-5.71-28.5s-3.5-19.13-5.24-28.69l-5.27-28.68-1.31-7.17c-.22-1.2-.46-2.39-.65-3.59l-.49-3.61c-.73-4.83-1.62-9.65-2.7-14.42a157.57,157.57,0,0,0-64.14-95.1,133.14,133.14,0,0,0-12.5-7.66l-6.53-3.32-3.26-1.66-1.63-.83-1.68-.73-6.72-2.9c-2.25-1-4.45-2-6.77-2.77l-6.89-2.48-3.44-1.25c-1.15-.41-2.33-.71-3.5-1.07a278.87,278.87,0,0,0-57.29-11.16,440.83,440.83,0,0,0-58.37-1.24c-19.45.76-38.84,2.42-58.2,4.31h.05a15.09,15.09,0,0,0-4.65,1,14.6,14.6,0,0,1-4.35,1h0a509.59,509.59,0,0,0-57.82,8.37c-19.11,3.73-38.11,8-57.19,11.85h.05a2.85,2.85,0,0,0-1.17.43c-.33.2-.65.41-1,.62l-.94.6a2.26,2.26,0,0,1-.93.36h0c-10.21,1.85-20.35,4-30.43,6.48s-20.1,5.09-30.12,7.77l-15,4-3.75,1-3.75,1.06-7.49,2.06c-10,2.72-20,5.48-29.77,9,9.77-3.48,19.78-6.2,29.8-8.88l7.5-2,3.75-1.05,3.76-1,15-3.94c10-2.64,20.06-5.26,30.14-7.66s20.22-4.56,30.42-6.37h0a2.65,2.65,0,0,0,1.16-.43c.33-.19.65-.4,1-.61s.63-.41.94-.59a2.3,2.3,0,0,1,.94-.36h0c19.1-3.78,38.12-8,57.23-11.64a509.27,509.27,0,0,1,57.76-8.14h0a15.14,15.14,0,0,0,4.64-1,14.32,14.32,0,0,1,4.36-1h0c19.36-1.81,38.74-3.4,58.16-4.08a439.68,439.68,0,0,1,58.19,1.44,277.31,277.31,0,0,1,56.95,11.31c1.16.36,2.33.66,3.47,1.08l3.42,1.24,6.82,2.49c2.3.77,4.49,1.83,6.72,2.77l6.66,2.91,1.66.73,1.61.83,3.23,1.66,6.46,3.31a130.84,130.84,0,0,1,12.33,7.61,155.64,155.64,0,0,1,63,94.13c1.05,4.72,1.91,9.47,2.61,14.26l.49,3.61c.18,1.21.42,2.4.62,3.6l1.3,7.17,5.16,28.72c1.71,9.57,3.48,19.14,5.13,28.72s3.38,19.21,5.65,28.71c1.14,4.74,2.38,9.47,3.74,14.16q1,3.51,2.12,7l1.14,3.51,1.23,3.44,4.92,13.76,2.47,6.88c.37,1.16.91,2.28,1.38,3.41l1.46,3.36c3.89,8.93,8,17.79,12.58,26.43,1.13,2.16,2.3,4.3,3.48,6.44.61,1.07,1.18,2.16,1.84,3.21s1.3,2.1,2,3.12c2.65,4.12,5.47,8.13,8.42,12s6,7.71,9.2,11.43c1.59,1.86,3.19,3.7,4.82,5.52l2.47,2.75,2.65,2.59c1.75,1.75,3.6,3.34,5.39,5s3.68,3.24,5.61,4.76c3.77,3.14,7.74,6,11.75,8.86a191,191,0,0,0,25.42,14.75c4.4,2.16,8.9,4.12,13.43,6a126.06,126.06,0,0,0,13.86,4.92,318.75,318.75,0,0,0,57.38,11.89,436.23,436.23,0,0,0,58.48,2.61c39-.69,77.74-5.48,116.28-10.35a351.59,351.59,0,0,1,64.52,3.16c3.67.52,7.33,1.11,11,1.74-11.68,39.06,29.88,74.42,111.76,74.42a226.42,226.42,0,0,0,56.47-6.67l.68.42.1.07.13.06a20.49,20.49,0,0,0,2.85,1.15,16.67,16.67,0,0,1,2,.81,691.78,691.78,0,0,1,91.75,69.94,597.46,597.46,0,0,1,77.77,85.2,519.88,519.88,0,0,1,58.43,99.25,477.43,477.43,0,0,1,33.9,109.92l6.89-1.26A484.93,484.93,0,0,0,3458.44,849,526.68,526.68,0,0,0,3398.93,748.77ZM3217.05,382.35l-.14,0h-.13l-8.88,0a649.26,649.26,0,0,0-72.16-3.62c-24.13.08-48.23,1.34-72.25,3.09s-48,4.08-71.94,6.33l-18,1.67c-6,.52-11.93,1-17.91,1.24a348.53,348.53,0,0,1-35.85-.11c-6-.33-11.92-.81-17.85-1.5-3-.31-5.93-.74-8.9-1.12s-5.91-.87-8.85-1.4a270.86,270.86,0,0,1-34.84-8.22c-22.85-7-44.6-17.32-65.49-29-20.73-11.91-40.07-26.24-58.44-41.64-9.18-7.71-18.18-15.69-27-23.8-1.09-1-2.23-2-3.28-3.06L2692,278l-6.38-6.36L2672.87,259c-9-10.43-18.49-20.31-27.67-30.44s-17.9-20.7-26.44-31.43-16.94-21.59-25.7-32.18q-3.29-4-6.65-7.9c-1.1-1.32-2.32-2.55-3.48-3.83s-2.33-2.55-3.53-3.79c-4.85-4.91-9.8-9.72-15.06-14.18-20.88-18.07-45.11-32-70.73-42.1a383.37,383.37,0,0,0-39.31-12.5c-3.33-.85-6.64-1.79-10-2.56l-10-2.34-10.11-2.07c-3.36-.7-6.76-1.23-10.14-1.86a514,514,0,0,0-82-7.38q-20.61-.27-41.2.83c-13.71.72-27.4,1.88-41.05,3.35-27.31,2.92-54.45,7.23-81.43,12.28s-53.81,10.89-80.58,16.94h.05a2.73,2.73,0,0,0-1.15.43c-.33.19-.65.4-1,.61s-.62.42-.94.6a2.31,2.31,0,0,1-.95.37h0c-1.41.26-2.82.55-4.23.84l0-.13c0-.25,0-6.46-.07-15.57a1131.89,1131.89,0,0,1,126.85-22.31q31.14-3.51,62.46-4.92,31.3-1.06,62.66-.42c10.44.25,20.88.64,31.3,1.27l3.9.23,3.89.36,7.79.78q7.78.81,15.56,1.8c10.36,1.3,20.69,2.83,31,4.53,10.32,1.55,20.45,4,30.61,6.38a405.05,405.05,0,0,1,59.52,19,275.12,275.12,0,0,1,54.59,30c4.24,3,8.37,6.18,12.41,9.45s7.95,6.69,11.81,10.2q11.58,10.52,22.62,21.61c14.77,14.76,29.06,30,43.85,44.84A526.68,526.68,0,0,0,2707,250a568.71,568.71,0,0,0,51.3,36.33c4.47,2.77,8.95,5.44,13.55,8.06,2.26,1.36,4.7,2.48,7,3.66l7,3.51c9.38,4.65,18.81,9.22,28.44,13.42,19.36,8.44,39.75,13.89,60,19l.24.05h5c6.42,1.39,12.87,2.6,19.37,3.53s13.19,1.64,19.8,2.11,13.25.75,19.88.85,13.24,0,19.85-.13,13.22-.43,19.81-.76l5-.25,2.48-.13,2.48-.21c3.33-.28,6.62-.62,9.91-1,13.16-1.42,26.23-3.32,39.28-5.12s26.08-3.51,39.14-4.54c3.26-.28,6.53-.46,9.8-.65l9.84-.39,19.76-.79c26.33-1,52.65-1.71,79-1.78q19.73,0,39.46.45t39.41,1.74q9,.59,18,1.32l-6.49,63.93C3262.73,387.89,3239.92,384.7,3217.05,382.35Z"/><path class="cls-2" d="M2436,1716.13q-23.84-10.56-47.35-21.86-47-22.55-92.58-48c-30.3-17-60-35.16-88.51-54.84-7.17-4.9-14.13-10-21.22-15.07s-14.47-10.13-21.9-14.91-15-9.25-22.69-13.6-15.48-8.42-23.35-12.38a644.77,644.77,0,0,0-98-38.68,813.69,813.69,0,0,0-102.46-24,912.66,912.66,0,0,0-209.68-10.7A782.92,782.92,0,0,0,1604,1475.78l-6.44,1.33-6.43,1.42c-4.31.93-8.48,1.91-12.74,2.8q-12.72,2.72-25.54,5-25.62,4.53-51.52,7.51a835.69,835.69,0,0,1-104,5.45,676.6,676.6,0,0,1-103.6-8.74,512.86,512.86,0,0,1-50.74-11,403.21,403.21,0,0,1-49.07-16.7,313.22,313.22,0,0,1-46-23.56,247,247,0,0,1-40.73-31.53,242.31,242.31,0,0,1-17.4-19c-5.53-6.65-10.84-13.5-16-20.46-10.41-13.91-20.43-28.18-30.63-42.35s-20.53-28.3-31.36-42.06-22.17-27.17-34.24-39.93a385.42,385.42,0,0,0-38.68-35.79,291,291,0,0,0-44-29.21,256.79,256.79,0,0,0-48.81-20.18q-12.7-3.69-25.7-6.18c-8.68-1.56-17.41-2.79-26.18-3.55s-17.58-1.16-26.38-1c-4.4-.07-8.79.2-13.19.31-2.19.1-4.39.27-6.58.4s-4.39.26-6.57.49c-8.79.79-17.39,1.83-26.07,2.68s-17.33,1.66-26,2.37c-14.88,1.22-29.78,2.16-44.69,2.73-18.83-11.31-50-22.29-84-30-2.23-.51-4.47-1-6.71-1.46,1.57-3.31,3.11-6.47,4.62-9.51,1.34-2.7,1-4.33,14-3.59,58.43,3.33,92.39-.18,90.45-13.94-1.13-8.05-21.77-15.31-38.92-19.57-14.08-3.49-27.65-6.09-42.15-7-12.65-.75-18.5-.44-23,1.06-9.55,3.19-12,6.21-15.71,11.08s-10,9.91-12.37,16.1c-.49,1.25-2.75,1.61-8.84,1.25-30.95-1.87-64.22-6.1-93.86-7.15q-1.94-2.62-3.72-5.36a123.9,123.9,0,0,1-11.73-22.89c-6.27-16-9.46-33.21-10.59-50.46a282.44,282.44,0,0,1,1.79-51.9,455.85,455.85,0,0,1,9.33-51.27,497.88,497.88,0,0,1,14.45-50.1,409.56,409.56,0,0,1,32.77-70.31,159.45,159.45,0,0,0,24.32-14.08c34.89-24.22,55.11-55,47.78-67.95a10.89,10.89,0,0,0-6.7-5q7.49-8.05,15.25-15.82c14.74-14.72,30.21-28.69,46.22-42l14,10.17a9.63,9.63,0,0,0,3,3.51,16,16,0,0,0,5.12,2.4l.24.18.15-.1c15,4,43.67-4,66.93-20.17,25.74-17.83,30.66-35.67,14.06-40-14.7-3.84-42.27,4.25-63.69,18.12-10.34,6.69-18.06,13.89-22.5,20.47l-6.13-3.79Q609.3,629.21,620.3,621C648.17,600,677.24,580.72,707,562.58c59.58-36.27,121.88-67.9,184.83-97.94,31.49-15,63.17-29.62,94.86-44.23s63.37-29.22,94.77-44.41c-31.46,15.08-63.2,29.56-94.93,44.06s-63.48,29-95,43.89c-63.08,29.82-125.51,61.23-185.3,97.33-29.87,18.05-59.06,37.29-87.07,58.16q-11.32,8.44-22.37,17.26l-47.34-29.3c29-19.65,58.93-37.88,89.44-55.08,64.52-36.34,131.45-68.21,198.81-99C871.39,438,905.22,422.94,939,407.72s67.46-30.59,100.8-46.72c-33.4,16-67.15,31.26-101,46.36s-67.69,30.06-101.44,45.31C769.9,483.18,702.84,514.83,638.13,551c-30.85,17.25-61.14,35.55-90.46,55.31L542.28,603c-1.37-.85-5.36.19-9,2.3l-2,1.17h0l-95.19,56.09h0l-2.29,1.35c-4.18,2.46-7.68,6-7.8,7.82l-2.18,35.94a549.52,549.52,0,0,0-44.11,50.93,470.84,470.84,0,0,0-31.09,46.19,433.06,433.06,0,0,0-43.59,102.3A285.45,285.45,0,0,0,295.37,962a190.55,190.55,0,0,0,3.92,55.73,153,153,0,0,0,22.16,51.34,168.21,168.21,0,0,0,30.26,33.71,43.77,43.77,0,0,0-11.11,6c-23.67,18.51,52.57,55.2,145.44,74.08-1.09,2.3-2.45,5.08-4.06,8.23-24-1.59-48-3.69-71.87-6.86a564.55,564.55,0,0,1-58.83-10.78,319.61,319.61,0,0,1-56.47-19c-18.07-8.2-35.16-18.7-49.7-32.12a139.66,139.66,0,0,1-34-48,158.28,158.28,0,0,1-9-28.25,195.55,195.55,0,0,1-4.07-29.45,253.38,253.38,0,0,1-.09-29.81q.85-14.9,3.06-29.71a464.31,464.31,0,0,1,12.86-58.41,365,365,0,0,1,21-56c17-36.13,39.69-69.42,65.91-99.51s55.91-57.2,87.4-81.82A975.88,975.88,0,0,1,487.26,594c34.31-20.59,69.61-39.5,105.44-57.34,71.7-35.66,145.46-67,219.43-97.63,37-15.33,74.06-30.48,111-46s73.63-31.54,109.7-48.95c-36.12,17.3-72.91,33.14-109.84,48.61s-74.05,30.49-111.09,45.71c-74.07,30.43-147.94,61.53-219.79,97-35.92,17.74-71.31,36.57-105.74,57.09a977.61,977.61,0,0,0-99.55,67.31c-31.65,24.6-61.51,51.67-88,81.87s-49.41,63.59-66.63,99.94a368.86,368.86,0,0,0-21.31,56.35,467.34,467.34,0,0,0-13.14,58.78q-2.25,14.91-3.19,30a258.2,258.2,0,0,0,0,30.22,199.71,199.71,0,0,0,4.05,30,162.53,162.53,0,0,0,9.13,28.93,143.74,143.74,0,0,0,34.77,49.39c14.87,13.82,32.31,24.6,50.65,33s37.63,14.6,57.15,19.44a574.42,574.42,0,0,0,59.24,11.06c23.3,3.17,46.69,5.33,70.1,7-2.8,5.31-6.15,11.38-9.94,17.87l-46.91-3.29c-25-1.83-50.07-3.83-75-6.6-6.42-2.66-13.26-5.14-20.44-7.4-30.43-9.56-63.21-13.78-89.24-12.39-1.48-.41-3-.82-4.43-1.25-20.34-6-40.26-13.55-58.84-23.67s-35.68-23-49.43-39a145.79,145.79,0,0,1-29.67-55.21c-5.92-20.28-7.81-41.61-7.22-62.76s3.7-42.29,8.2-63c2.25-10.39,4.9-20.69,7.83-30.91s6.11-20.37,9.75-30.35a402.84,402.84,0,0,1,26.47-57.92c20.65-37.19,47-71,76.86-101.38s63-57.32,98-81.6,71.8-46,109.52-65.79,76.44-37.81,115.64-54.59c78.43-33.53,158.84-62.21,239.45-90.09,40.31-13.95,80.7-27.68,120.91-41.9s80.29-28.91,119.63-45.42C981.39,355.4,941.28,370,901,384.08s-80.68,27.73-121,41.56c-80.7,27.66-161.2,56.12-239.78,89.46-39.28,16.67-78.06,34.57-115.91,54.31S349.57,610.76,314.41,635s-68.54,51.21-98.61,81.62S159.12,781,138.23,818.38a404.6,404.6,0,0,0-26.83,58.27c-3.69,10.05-6.93,20.26-9.91,30.52s-5.67,20.63-8,31.08c-4.6,20.9-7.81,42.18-8.48,63.64s1.17,43.13,7.16,63.88a153.3,153.3,0,0,0,12,30,147.8,147.8,0,0,0,18.22,26.72c14,16.46,31.58,29.64,50.4,40a296.36,296.36,0,0,0,53.75,22.4c-9,1.19-16.89,3.2-23.06,6-5,2.31-11.32,5.14-16.8,9.15a418.81,418.81,0,0,1-50-19,284.38,284.38,0,0,1-56.54-33.76,218.39,218.39,0,0,1-24.34-22.15,191.27,191.27,0,0,1-20.37-25.8,185.73,185.73,0,0,1-15.51-29,198.06,198.06,0,0,1-10.25-31.26c-5.13-21.38-6.84-43.52-6.14-65.53a371.93,371.93,0,0,1,8.33-65.58c4.66-21.58,10.42-43,18.36-63.57a363.28,363.28,0,0,1,29.26-59.3c23-37.73,52.64-71.19,85.71-100.5S214.83,630,252.9,607.4s77.82-42.32,118.3-60.27S453,513.05,494.68,498c83.39-30,168.31-55.59,253.15-81.25,42.42-12.85,84.84-25.7,127-39.41s84.06-28.26,125-45.37c-40.95,17-82.9,31.4-125.07,45s-84.63,26.33-127.09,39.07c-84.9,25.44-169.9,50.77-253.42,80.6-41.74,14.91-83.11,30.95-123.71,48.81s-80.42,37.56-118.67,60.06-74.9,47.88-108.24,77.27S80.41,745.76,57.11,783.71a365.94,365.94,0,0,0-29.66,59.7c-4,10.37-7.53,21-10.58,31.65s-5.76,21.46-8.1,32.33A375.36,375.36,0,0,0,.18,973.52c-.77,22.26.89,44.71,6,66.48a200.93,200.93,0,0,0,10.35,31.87,188.52,188.52,0,0,0,15.73,29.6A196.11,196.11,0,0,0,53,1127.85a222.61,222.61,0,0,0,24.73,22.63A288,288,0,0,0,135,1184.9a418.06,418.06,0,0,0,47.79,18.47c-11.2,10.59-15.05,28.09,14.56,60,21,22.7,176.47,130.9,251.36,67.28,14.19-12.05,34.3-50.07,49.47-81.7a272.91,272.91,0,0,1,27.41,7.24,284.37,284.37,0,0,1,30.68,11.89,307.47,307.47,0,0,1,29.16,15.3,367,367,0,0,1,53.18,38.9A514.79,514.79,0,0,1,685.28,1369c29.26,33.06,55.05,69.08,80,105.63,12.48,18.29,24.75,36.74,37.33,55,5.06,7.33,10.16,14.65,15.38,21.9l-41.78,67.85c-8.44-6.17-21.81-10.84-38.59-12.64-35.68-3.82-73,6.69-83.32,23.49s10.2,33.5,45.88,37.33c31,3.31,63.1-4.17,77.83-17.17l.19,0,.22-.35a28,28,0,0,0,5.08-6,17.38,17.38,0,0,0,2.46-6.27l43.53-70.69c4.16,5.47,8.41,10.88,12.8,16.2a278.25,278.25,0,0,0,22.8,24.71c8.16,7.68,16.7,14.93,25.54,21.78q5.77,4.49,11.73,8.73c-11.41,4.22-20.25,10.07-24.51,17-10.34,16.79,10.2,33.51,45.88,37.33,22.08,2.37,44.75-.77,61.28-7.48q11,4.92,22.28,9.35a621.74,621.74,0,0,0,63.41,21.14,714.15,714.15,0,0,0,131.47,23,750.56,750.56,0,0,0,133.49-1,698.75,698.75,0,0,0,131.12-25.35,661.22,661.22,0,0,0,63.07-22.21c10.14-4.15,20.5-7.77,31-11.1s21.06-6.2,31.74-8.74c42.76-10.13,86.83-14.45,130.83-14.58a775.48,775.48,0,0,1,131.51,11.35,908,908,0,0,1,128.25,31.77,886.1,886.1,0,0,1,122.24,50q14.76,7.39,29.21,15.39,4.91,2.71,9.76,5.5l18.37-1.51q-11.4-6.81-23.05-13.19-14.64-8.08-29.64-15.5a897.06,897.06,0,0,0-123.8-50.24,917.86,917.86,0,0,0-129.75-31.72,785.36,785.36,0,0,0-133.14-11.08c-44.59.27-89.32,4.78-132.83,15.24-10.87,2.61-21.67,5.56-32.32,9s-21.21,7.16-31.57,11.43a649.75,649.75,0,0,1-62.23,22.1A690.69,690.69,0,0,1,1334.85,1730a743.21,743.21,0,0,1-132.08,1.34,706.66,706.66,0,0,1-130.14-22.46,613.09,613.09,0,0,1-62.73-20.73q-8.26-3.22-16.42-6.73a45.81,45.81,0,0,0,9.31-6.81l1,.11,24.9-40.44q12,5.77,24.43,10.72c10,4,20.15,7.53,30.4,10.76a540.4,540.4,0,0,0,62.49,15.48c42.21,7.85,85.09,11.4,127.92,11.87a934,934,0,0,0,128.18-7.7A880.87,880.87,0,0,0,1528.07,1650c5.15-1.48,10.3-3,15.43-4.56s10.27-3.26,15.28-4.82,10.13-3.07,15.2-4.56,10.2-2.82,15.34-4.07,10.29-2.48,15.44-3.68,10.35-2.24,15.55-3.22,10.41-1.91,15.62-2.84,10.46-1.69,15.71-2.39a703.8,703.8,0,0,1,126.83-5.92,817.52,817.52,0,0,1,126.17,15.31,855.13,855.13,0,0,1,238.49,85.91c18.61,10.13,36.85,20.93,54.57,32.54,4.46,2.86,8.81,5.87,13.21,8.81,3.41,2.39,6.84,4.73,10.23,7.14q8.19-.7,16.36-1.45l-.81-.6-6.54-4.69c-4.35-3.16-8.81-6.15-13.22-9.22s-8.9-6-13.43-8.9c-18-11.72-36.52-22.61-55.4-32.82a865.35,865.35,0,0,0-241.58-86.19,827.72,827.72,0,0,0-127.68-15.1,713.12,713.12,0,0,0-128.46,6.39c-5.32.73-10.61,1.63-15.91,2.48s-10.58,1.85-15.85,2.93-10.51,2.18-15.77,3.31-10.47,2.41-15.66,3.78-10.39,2.76-15.57,4.18-10.32,3-15.43,4.69-10.14,3.27-15.21,4.84-10.15,3.07-15.24,4.55a871.39,871.39,0,0,1-124.66,25.5,924.57,924.57,0,0,1-127.06,8c-42.45-.33-84.92-3.73-126.64-11.37a536,536,0,0,1-61.69-15.08c-10.1-3.16-20.11-6.62-29.94-10.5q-11.84-4.68-23.34-10.14l37-60.13a342,342,0,0,0,32.23,16.64c36.88,16.65,76.12,27.31,115.79,34.15a716.77,716.77,0,0,0,120.23,9.8A834.85,834.85,0,0,0,1458,1620c39.81-5.83,79.29-14.43,117.65-27,9.64-3.25,18.88-6.46,28.42-9.31s19.1-5.37,28.77-7.57,19.4-4.2,29.19-5.8c4.89-.88,9.81-1.53,14.72-2.29,4.92-.61,9.83-1.33,14.78-1.83a615.67,615.67,0,0,1,119-1.25,763.93,763.93,0,0,1,117.69,19.32,891.19,891.19,0,0,1,221.66,87.13c8.69,4.84,17.27,9.88,25.79,15s16.9,10.49,25.22,15.94,16.48,11.12,24.56,16.9l12.11,8.81c4.09,2.93,8.12,6,12.27,8.81q15.38,10.88,31.16,21.15,8.74-.9,17.48-1.83-21.53-13.62-42.4-28.2c-4.12-2.8-8.1-5.78-12.15-8.67l-12.21-8.81q-12.33-8.77-25-17.07t-25.6-16.08c-8.65-5.17-17.35-10.24-26.17-15.11a901.23,901.23,0,0,0-224.47-87.43,774.4,774.4,0,0,0-119.21-19.18,624.5,624.5,0,0,0-120.81,1.66c-5,.52-10,1.26-15,1.9s-10,1.47-15,2.38c-10,1.66-19.85,3.74-29.69,6s-19.59,5-29.28,7.8c-4.82,1.53-9.66,3-14.43,4.63l-14.2,4.84c-37.72,12.51-76.76,21.15-116.14,27a827.24,827.24,0,0,1-119.11,9,708.18,708.18,0,0,1-119-9.32c-39.21-6.62-77.92-17-114.14-33.24a334.58,334.58,0,0,1-31.49-16.13l39.12-63.53h0q12.19,6.93,24.82,13c8.41,4,17,7.79,25.59,11.33,34.56,14.07,70.56,24.28,107.05,31.64a740.41,740.41,0,0,0,110.75,13.55,706,706,0,0,0,111.57-3.32q13.89-1.59,27.72-3.78t27.51-5.21a417.15,417.15,0,0,0,53.89-15.43A532.42,532.42,0,0,1,1708,1514.68a635.37,635.37,0,0,1,110-5.22,722.63,722.63,0,0,1,109.53,12.61c72.21,14,142.56,38.32,207.2,73.3,8.08,4.36,16,9,23.91,13.66s15.61,9.65,23.26,14.71,15.12,10.38,22.53,15.81l11.31,8.2c3.78,2.71,7.62,5.34,11.43,8,30.65,21.15,62.34,40.69,94.71,59q30.06,17,60.8,32.67,8.69-.83,17.39-1.58l4.35-.38q-39-19.31-77-40.51c-32.2-18-63.68-37.29-94.06-58.11-3.78-2.63-7.58-5.22-11.33-7.89l-11.2-8.06c-7.55-5.5-15.21-10.87-23-16s-15.71-10.12-23.73-14.9-16.13-9.4-24.36-13.8c-65.81-35.33-137.16-59.72-210.37-73.66a731.49,731.49,0,0,0-111-12.41,645.89,645.89,0,0,0-111.61,5.67,540.43,540.43,0,0,0-108.62,26.54,405.73,405.73,0,0,1-52.78,15.29q-13.44,3-27,5.22T1491,1556.6a697.67,697.67,0,0,1-110.27,3.65,734.62,734.62,0,0,1-109.64-13c-36.11-7.16-71.72-17.14-105.82-30.89-8.52-3.46-16.94-7.12-25.23-11.07s-16.29-8.11-24.21-12.57l6.44-10.46c3.54-5.75-.39-11.14-8.78-12l-4.61-.5h0l-33-3.53q-2.84-2.22-5.61-4.5a258.34,258.34,0,0,1-20.13-18.6c-6.4-6.56-12.56-13.4-18.58-20.36-12-14-23.59-28.39-35.18-42.83-23.12-28.91-46.4-57.89-71.92-85-12.76-13.52-26-26.61-40.06-38.86a404.47,404.47,0,0,0-44.38-34q-11.7-7.69-24-14.43t-25.23-12.2a270.4,270.4,0,0,0-53.48-16.64,262.41,262.41,0,0,0-27.76-4,259.21,259.21,0,0,0-28-1.07c-4.7,0-9.3.2-13.91.31l-5,.07a19,19,0,0,0-2.17-4,39.68,39.68,0,0,0-9-8.66c12.75-.54,25.48-1.34,38.2-2.33q13.07-1,26.11-2.29c8.69-.81,17.41-1.84,26-2.57,2.16-.23,4.32-.33,6.48-.47s4.31-.28,6.48-.37c4.32-.1,8.64-.34,13-.27,8.65-.08,17.29.42,25.9,1.12s17.15,2,25.64,3.56,16.86,3.69,25.14,6.13a250.9,250.9,0,0,1,47.67,19.9,285.09,285.09,0,0,1,43,28.78,379.8,379.8,0,0,1,38,35.36c11.86,12.64,23,25.93,33.74,39.61s20.93,27.77,31.05,41.95,20.12,28.5,30.56,42.56c5.23,7,10.58,14,16.18,20.78a249.71,249.71,0,0,0,17.82,19.62,253.4,253.4,0,0,0,41.75,32.58,320.94,320.94,0,0,0,47,24.26,411.86,411.86,0,0,0,49.88,17.17,518.13,518.13,0,0,0,51.43,11.4,684.08,684.08,0,0,0,104.75,9.23,842.41,842.41,0,0,0,105-5.14q26.13-2.86,52.06-7.39,13-2.26,25.84-5c4.28-.88,8.61-1.88,12.82-2.78l6.35-1.37,6.38-1.29a774.13,774.13,0,0,1,103.15-13.16,902.52,902.52,0,0,1,207.47,11.34,800.51,800.51,0,0,1,101.12,24.06,634.37,634.37,0,0,1,96.33,38.39c7.7,3.91,15.34,8,22.84,12.21s14.9,8.7,22.14,13.38,14.38,9.51,21.3,14.62,14.17,10.33,21.39,15.3c28.83,20,58.69,38.45,89.17,55.7s61.56,33.42,93.06,48.67q23.64,11.41,47.59,22.17,12,5.37,24.05,10.55c2.54,1.08,5.07,2.16,7.6,3.22q10-.75,20-1.47l1.11-2.81c-8-3.15-16-6.51-24-9.89S2444,1719.66,2436,1716.13ZM570.61,1091.43c3.76-5.64,8.21-11,17.12-14.8,1.13-.48,3.71-1.28,12.16-.39,9.51,1,13.91,2.74,15,3.3,13.52,7.1,7.26,11.87,4.34,16.31-1.9,2.9-9.21,4.3-18,5.69-8.48,1.33-21.08,1.69-35.87,1.43C567.55,1099,568.28,1094.94,570.61,1091.43ZM438,1111.49a130.93,130.93,0,0,0,19.53,15.72,8.36,8.36,0,0,0,2.34,5.13c3.35,4.08,14.92,9.46,25.7,13.54-9.9-4.24-16.34-8.65-18.63-12.43-.15-.25-.28-.49-.4-.73a167.27,167.27,0,0,0,15.59,7.73,205,205,0,0,0,20.81,7.64q-3.12,6.12-6.4,12.83-17.46-3.51-34.64-8.25a363.65,363.65,0,0,1-51.95-18.56c-7.8-3.51-15.44-7.38-22.86-11.62a9.68,9.68,0,0,1,2.71-4c5-4.62,14.16-8.14,26.43-10.31a144.32,144.32,0,0,1,16.84-1.85C434.64,1108.11,436.28,1109.83,438,1111.49ZM515,1125c-2.67,5-5.41,10.21-8.31,15.82q-.9,1.68-1.8,3.42a202.44,202.44,0,0,1-21.14-7.62,159.54,159.54,0,0,1-17.1-8.56,9.68,9.68,0,0,1,4.58-3.32c4.11-1.71,10.71-2.77,18.67-3,3.82-.13,8.48,0,13.12.29,1,.06,3,.27,5.19.47C511.91,1122.79,515.49,1124.11,515,1125Zm17.88,46.78c21.64,3,43.42,5,65.24,6.23-.69.1-1.37.21-2.08.3-17.21,2.35-40.46,1.9-65.63-1C531.26,1175.4,532.08,1173.57,532.9,1171.76Zm88.38-9.1c1.36,3.79,0,7.17-4.23,9.8a21.22,21.22,0,0,1-2.48,1.33,786,786,0,0,1-79.67-6.45c1.68-3.7,3.31-7.26,4.86-10.71a417.36,417.36,0,0,0,45.14,4.76c12.07.66,24.15.89,36.22.83A3.89,3.89,0,0,1,621.28,1162.66Zm-73.44-24.78c.69-1.84,2.18-6.55,3.61-8.35.18-.22,25.55,5.69,35.6,9.77,14.42,5.85,25.55,12.3,31,18.22-11,0-21.94-.16-32.88-.71a416.31,416.31,0,0,1-43.5-4.36l1.47-3.35C544.77,1145.3,546.48,1141.48,547.84,1137.88Zm-85.52-31.57c18.4.7,38.74,2.1,59.38,3.42l2,.13c-1.95,3.18-3.6,6.17-5.54,9.66-.31.26-18.65-1.34-20.46-1.4-9.71-.28-20.15-.22-27,.91-5.59.92-9.4,2.44-11.43,4.4a126.37,126.37,0,0,1-18.45-14.8c-.84-.82-1.67-1.66-2.49-2.5C445.64,1105.9,453.6,1106,462.32,1106.31Zm90.89-484,32.42,23.5c-16,13.21-31.4,27.06-46.12,41.66q-8.32,8.25-16.33,16.85c-11.41-1.66-30.39,4.83-50.07,17.58a177.51,177.51,0,0,0-35.66,30.37l-.78-54q10-9.86,20.48-19.25,4.75-4.29,9.6-8.49l75.46-45.88C546.5,622,551.39,621,553.21,622.28ZM436.6,693.56c0-2.62,4-7.14,9-10.17l10-6.08q-9.63,8.63-18.94,17.63Zm104.53-80c.79.57-.27,2.06-2.37,3.32l-18.69,11.23q10.27-7.53,20.75-14.77ZM440.45,668.3l93.15-55.43c2-1.2,4.22-1.73,5-1.2l.59.43q-18.58,12.79-36.56,26.47l-61.79,37.1c-2.44,1.47-4.44,1.74-4.45.63l-.06-3.64C436.28,671.62,438.14,669.67,440.45,668.3ZM324.64,1066.91a148.86,148.86,0,0,1-21.79-50,187.26,187.26,0,0,1-4-54.68,281.89,281.89,0,0,1,9.43-54.31,430,430,0,0,1,42.92-101.69,469,469,0,0,1,30.75-46,544.1,544.1,0,0,1,41.73-48.77l-4.87,80.19,1-.67c3.08,9.75,17.23,10.62,36.44,2.79a411.4,411.4,0,0,0-31.37,67.44q-4.43,12.38-8,25t-6.71,25.36a457.37,457.37,0,0,0-9.59,51.61,286.38,286.38,0,0,0-2,52.54c1.08,17.54,4.26,35.09,10.64,51.61a128.16,128.16,0,0,0,12,23.64c.67,1,1.37,2.07,2.07,3.09-4.94-.12-9.79-.14-14.48,0-21.24.51-39.51,3-52.67,7.22A164.77,164.77,0,0,1,324.64,1066.91ZM444.25,1159c-32.89-10.45-54-22-57.16-31.73q10.32,5.8,21.1,10.7a367.89,367.89,0,0,0,52.5,19q16.76,4.72,33.79,8.22c-1,1.95-1.9,3.93-2.87,6A452.37,452.37,0,0,1,444.25,1159Zm432.62,296.94-6.09,9.9c-5.41-7.59-10.84-15.17-16.36-22.7-25.22-34.48-52-68.08-82.19-98.52s-63.87-57.65-101.29-78.83q-14-7.89-28.65-14.72c-9.77-4.46-19.69-8.59-29.78-12.28A387.22,387.22,0,0,0,550.4,1222c-5.27-1.06-10.59-1.78-15.89-2.63-2.65-.4-5.32-.69-8-1s-5.32-.7-8-.92c-1.85-.2-3.7-.36-5.55-.54,4.08-9.18,6.53-15,6.53-15l1.63-3.66,8.23.43,60,3c10,.54,20,1,29.84,2l7.39.82,7.36,1.06c2.46.32,4.89.83,7.34,1.25l3.66.65c1.22.24,2.43.51,3.64.77,2.42.54,4.86,1,7.26,1.6l7.22,1.79c4.78,1.33,9.57,2.63,14.28,4.19,9.44,3,18.77,6.45,27.88,10.4s18,8.28,26.81,13,17.28,9.81,25.64,15.19c33.43,21.58,63.6,48,91.46,76.49s53.54,59.22,78.5,90.45L952.87,1453l-49.8-5.34-4.61-.49C890.08,1446.24,880.41,1450.17,876.87,1455.92ZM422.39,1215.08l44.42,3.26c-3.85,6.43-8.07,13.16-12.58,19.9-19.77-1.14-39.51-2.36-59.22-3.84-6.72-8.43-18.56-17-33.83-24.65C381.56,1211.85,402,1213.52,422.39,1215.08Zm-36.17,86.24c-37.3,5.72-64.83-1.11-99.48-15.54-37.88-15.77-57.08-25.9-70.66-46.49-5.2-7.89-.3,2.1,32.21,15.2,60,24.17,131.18,26.23,149.11,4.66,4.86-5.84,4.9-12.55,1.12-19.52,17.46,1.33,34.91,2.48,52.35,3.55C431.5,1271.22,407.61,1298,386.22,1301.32ZM807.92,1526c-12.59-18.19-24.91-36.62-37.47-54.9-25.1-36.57-51.13-72.73-80.75-106A521.34,521.34,0,0,0,642.34,1318a371.3,371.3,0,0,0-54.11-39.34,311.51,311.51,0,0,0-29.73-15.49,287.77,287.77,0,0,0-31.3-12q-13.17-4.18-26.71-7c3.88-8.21,7.38-15.84,10.28-22.31,2.42.23,4.83.46,7.23.72,2.64.22,5.26.6,7.89.93s5.26.65,7.88,1c5.22.86,10.47,1.59,15.67,2.64a382.57,382.57,0,0,1,61.21,16.76c9.93,3.66,19.7,7.76,29.32,12.18s19,9.38,28.2,14.59c36.84,21,70.05,47.95,99.84,78.15s56.3,63.63,81.33,98q9,12.36,17.81,24.88l-45.47,73.85Q814.71,1535.87,807.92,1526Zm192.79,119.42c-8.37-6.52-22.14-11.47-39.56-13.34a139.53,139.53,0,0,0-50.59,3.86q-8-5.57-15.77-11.5c-8.69-6.7-17.08-13.79-25.08-21.28a272.21,272.21,0,0,1-22.32-24c-4.88-5.87-9.59-11.88-14.21-18l45.22-73.46,7.92,11.28c12.3,17.44,24.63,34.9,37.93,51.75,6.66,8.41,13.59,16.65,21,24.51,3.73,3.9,7.55,7.77,11.58,11.37,2,1.81,4,3.67,6.07,5.38s4.08,3.54,6.23,5.19a290.41,290.41,0,0,0,43.54,28.84Zm15.62-25.36a283.87,283.87,0,0,1-42.94-28.21c-2.1-1.6-4-3.36-6.08-5s-4-3.47-5.92-5.22c-3.93-3.49-7.61-7.22-11.27-11-7.24-7.64-14.07-15.72-20.68-24-13.18-16.61-25.51-34-37.84-51.36q-4.77-6.74-9.53-13.5l1.64-2.67c1.85-3,6.91-5.07,11.3-4.6l82.09,8.8c8.6,10.56,17.38,21,26.6,31.12,6.79,7.44,13.86,14.71,21.42,21.49a262.4,262.4,0,0,0,23.78,19c1.76,1.25,3.54,2.46,5.33,3.67Zm73.22-118.94-31.71,51.51c-1.67-1.13-3.34-2.25-5-3.41a255.56,255.56,0,0,1-23.21-18.39c-7.37-6.56-14.3-13.64-21-21-7.61-8.32-15-16.9-22.19-25.61l98.53,10.56C1089.35,1495.31,1091.4,1498.13,1089.55,1501.14Zm-421.77-322c4.64-.09,9.3-.24,13.86-.26a254.38,254.38,0,0,1,27.47,1.14,257.07,257.07,0,0,1,27.19,4c36,7.23,70.08,22.44,100.61,42.79a398.8,398.8,0,0,1,43.64,33.66c13.83,12.14,26.92,25.14,39.53,38.59,25.21,26.92,48.28,55.83,71.31,84.81,11.54,14.49,23.08,29,35.19,43.14,6.06,7.06,12.28,14,18.79,20.72,5.76,6,11.87,11.68,18.19,17.09l-101.68-10.9-29.29-36.73c-25.11-31.24-51-62-79.17-90.69s-58.72-55.24-92.69-77c-8.5-5.42-17.16-10.59-26.07-15.34s-18-9.12-27.28-13.09-18.78-7.44-28.4-10.5c-4.8-1.57-9.68-2.89-14.55-4.23l-7.36-1.8c-2.45-.61-4.94-1.07-7.4-1.61-1.24-.25-2.47-.53-3.71-.77l-3.73-.65c-2.49-.42-5-.93-7.48-1.25l-7.5-1.06-7.53-.81c-10.09-.95-20.09-1.39-30.09-1.9l-60-2.75-6.36-.31,1.79-4c2.19.29,4.35.53,6.58.88,78.55,12.18,129.85,6.11,131.84-11.07Z"/><path class="cls-3" d="M3107.05,1368.35c-23.33-9.57-46.64-14.55-71.47-8.42-21.63,5.48-31.13,11.85-37.35,23.94-12.63,24.59-13.91,41.86-15.38,67.77-1.37,24.24-6,48.23-4.37,72.66.31,4.71-2.3,7.18-10.33,9.15-50,12.25-109.58,14.41-149.73,35-36,18.47-54,45.29-48.5,73.21,9.59,48.77,122.39,84,211.34,83.38,1.85,35.1,1.87,113.59-17.13,123.49-17.11,8.92-34,9.81-58.86,7.93-29.31-2.22-46.58-4.65-70-14.83-9.81-4.26,1.55,1.42,30,3.62,47.73,3.69,87.51-7.34,88.85-24.64s-36.27-34.32-84-38-87.83,7.34-91,24.47c-2.08,11.13-6.93,30,64.47,52.37,26.42,8.28,140.88,30.35,160.49-5.57,8.47-15.5,10.61-113.5,10.61-113.5l.61-17.43c1.85-.22,3.67-.51,5.56-.66,74.86-6.15,121.43-36.64,111.86-72.12-7.43-27.57-50-50.68-104.23-58-2.68-.38-5.37-.68-8.07-.94q.69-14.55,1.51-29.09c.5-8.91-.58-13.91,15.63-18,73.47-18.62,118.84-48.87,123.07-103.57C3163.54,1403.07,3134.11,1379.44,3107.05,1368.35Zm-175.2,333.83c-51-8.84-91-29.88-94.56-58.21-1.63-13,2.93-25.93,13.19-37.19,11.16-12.25,27.94-20.25,50-27,22.41-6.83,47.93-12.5,73.72-18.58l2.45-.58c-.07,10.59.07,20.06.22,30.66-.17.87-22,4.75-24.08,5.42-11.11,3.58-22.65,8.37-29.09,14.31-11.37,10.49-10.26,23.89,1.09,35.83,6.9,7.39,22.48,14,35.71,18.17-12.5-4.76-22.2-11.36-27.61-18.52s-6.48-14.84-3.19-21.63c2.84-5.86,9-11.31,17.46-15.38a75.83,75.83,0,0,1,14.62-4.94c1.13-.28,3.52-.62,6.07-1.06,4.29-.74,9.11,1.12,9.16,3.55.28,13.3.65,26.61,1,39.91.49,19.82,1.3,39.66,2.26,59.5A288.8,288.8,0,0,1,2931.85,1702.18Zm128.48-90c20.36,10.13,33.77,23.73,35.75,37.28a27,27,0,0,1-4.3,19.54,41.16,41.16,0,0,1-7.72,8.65,82.13,82.13,0,0,1-11,7.88c-14.79,9-34.83,15.37-57.08,18.52.62-17.84,1.46-35.66,2-53.5.27-8.47.59-17.33.64-26,0-4.54-.21-16.47.65-21.6C3019.37,1602.32,3048.8,1606.4,3060.33,1612.14Zm37.18-155.57c-2.9,13.43-13.14,23.48-25.16,34-11.25,9.89-27.92,18.22-47.43,25.36,1.21-16.14.43-32.42,2.12-48.48,2.92-27.77,7.34-57.34,20.06-84.19,1.68-3.54,5.68-10,19.84-11.36,15.86-1.46,23.12,5.07,24.87,7.43C3112.56,1407.39,3102.22,1434.78,3097.51,1456.57Z"/></g></g></svg>