<?xml version="1.0" encoding="utf-8"?>
<!-- Generator: Adobe Illustrator 16.0.4, SVG Export Plug-In . SVG Version: 6.00 Build 0)  -->
<!DOCTYPE svg PUBLIC "-//W3C//DTD SVG 1.1//EN" "http://www.w3.org/Graphics/SVG/1.1/DTD/svg11.dtd">
<svg version="1.1" id="Layer_1" xmlns="http://www.w3.org/2000/svg" xmlns:xlink="http://www.w3.org/1999/xlink" x="0px" y="0px"
	 width="960px" height="960px" viewBox="0 0 960 960" enable-background="new 0 0 960 960" xml:space="preserve">
<g>
	<g>
		<path fill="#FFFFFF" d="M439.546,44.141H131.66c-8.815,0-15.74,6.926-15.74,15.741c0,8.813,6.925,15.741,15.74,15.741h292.146
			v808.757H35.326V332.824c0-8.816-6.926-15.74-15.739-15.74c-8.814,0-15.741,6.924-15.741,15.74v567.293
			c0,8.814,6.926,15.742,15.741,15.742h420.275c8.816,0,15.741-6.928,15.741-15.742V59.881
			C455.288,51.38,448.362,44.141,439.546,44.141z"/>
		<path fill="#FFFFFF" d="M19.586,245.936c8.813,0,15.739-6.926,15.739-15.741V75.937h12.28c8.813,0,15.741-6.926,15.741-15.741
			c0-8.815-6.928-15.74-15.741-15.74H19.586c-8.814,0-15.741,6.925-15.741,15.74v169.999
			C3.846,238.696,10.772,245.936,19.586,245.936z"/>
		<path fill="#FFFFFF" d="M940.102,44.141h-307.89c-8.814,0-15.739,6.926-15.739,15.741c0,8.813,6.925,15.741,15.739,15.741h292.149
			v808.757h-388.48V332.824c0-8.816-6.928-15.74-15.74-15.74c-8.814,0-15.741,6.924-15.741,15.74v567.293
			c0,8.814,6.927,15.742,15.741,15.742h420.274c8.814,0,15.739-6.928,15.739-15.742V59.881
			C955.844,51.38,948.915,44.141,940.102,44.141z"/>
		<path fill="#FFFFFF" d="M520.141,245.936c8.812,0,15.74-6.926,15.74-15.741V75.937h12.277c8.814,0,15.739-6.926,15.739-15.741
			c0-8.815-6.925-15.74-15.739-15.74h-28.018c-8.814,0-15.741,6.925-15.741,15.74v169.999
			C504.399,238.696,511.326,245.936,520.141,245.936z"/>
	</g>
</g>
</svg>
