<?xml version="1.0" encoding="utf-8"?>
<!-- Generator: Adobe Illustrator 16.0.4, SVG Export Plug-In . SVG Version: 6.00 Build 0)  -->
<!DOCTYPE svg PUBLIC "-//W3C//DTD SVG 1.1//EN" "http://www.w3.org/Graphics/SVG/1.1/DTD/svg11.dtd">
<svg version="1.1" id="Layer_1" xmlns="http://www.w3.org/2000/svg" xmlns:xlink="http://www.w3.org/1999/xlink" x="0px" y="0px"
	 width="100px" height="100px" viewBox="0 0 100 100" enable-background="new 0 0 100 100" xml:space="preserve">
<g>
	<g transform="translate(50 50) scale(0.69 0.69) rotate(0) translate(-50 -50)">
		<g display="none">
			<g display="inline">
				<path fill="#FFFFFF" stroke="#000000" stroke-width="4" stroke-miterlimit="10" d="M21.225,22.584v-36.857
					c0-1.812-1.209-3.322-3.022-3.322c-1.812,0-3.02,1.509-3.02,3.322v37.006c-4.53,1.36-8.155,5.743-8.155,10.727
					c0,6.193,4.985,11.327,11.175,11.327c6.193,0,11.18-4.985,11.18-11.327C29.382,28.325,25.756,24.093,21.225,22.584z
					 M18.053,37.992c-2.569,0-4.684-2.114-4.684-4.684c0-2.566,2.115-4.683,4.684-4.683c2.565,0,4.683,2.117,4.683,4.683
					C22.736,36.027,20.618,37.992,18.053,37.992z"/>
				<path fill="#FFFFFF" stroke="#000000" stroke-width="4" stroke-miterlimit="10" d="M18.202,54.003
					c-1.812,0-3.02,1.512-3.02,3.323v55.738c0,1.813,1.208,3.323,3.02,3.323c1.814,0,3.022-1.512,3.022-3.323V57.326
					C21.225,55.514,20.016,54.003,18.202,54.003z"/>
				<path fill="#FFFFFF" stroke="#000000" stroke-width="4" stroke-miterlimit="10" d="M52.945,54.455v-68.729
					c0-1.812-1.207-3.322-3.021-3.322c-1.812,0-3.02,1.509-3.02,3.322v68.729c-4.533,1.359-8.156,5.741-8.156,10.725
					c0,6.193,4.983,11.33,11.176,11.33c6.193,0,11.027-4.986,11.027-11.33C61.1,60.196,57.477,55.814,52.945,54.455z M49.924,69.862
					c-2.567,0-4.681-2.113-4.681-4.682c0-2.567,2.114-4.685,4.681-4.685c2.568,0,4.683,2.115,4.683,4.685
					C54.607,67.749,52.492,69.862,49.924,69.862z"/>
				<path fill="#FFFFFF" stroke="#000000" stroke-width="4" stroke-miterlimit="10" d="M49.924,85.724
					c-1.812,0-3.02,1.51-3.02,3.322v23.866c0,1.814,1.208,3.323,3.02,3.323c1.814,0,3.021-1.509,3.021-3.323V89.046
					C52.945,87.234,51.738,85.724,49.924,85.724z"/>
				<path fill="#FFFFFF" stroke="#000000" stroke-width="4" stroke-miterlimit="10" d="M84.667-1.283v-12.99
					c0-1.812-1.206-3.322-3.022-3.322c-1.812,0-3.022,1.509-3.022,3.322v13.141c-4.53,1.36-8.005,5.741-8.005,10.727
					c0,6.191,4.986,11.326,11.177,11.326c6.196,0,11.027-4.984,11.027-11.326C92.822,4.457,89.197,0.229,84.667-1.283z
					 M81.795,14.125c-2.566,0-4.68-2.114-4.68-4.682c0-2.567,2.116-4.684,4.68-4.684c2.57,0,4.686,2.117,4.686,4.684
					C86.328,12.16,84.365,14.125,81.795,14.125z"/>
				<path fill="#FFFFFF" stroke="#000000" stroke-width="4" stroke-miterlimit="10" d="M81.645,30.135
					c-1.812,0-3.022,1.512-3.022,3.325v79.605c0,1.81,1.21,3.322,3.022,3.322c1.814,0,3.022-1.512,3.022-3.322V33.459
					C84.667,31.646,83.459,30.135,81.645,30.135z"/>
			</g>
		</g>
		<g display="none">
			<g display="inline">
				<path fill="#FFFFFF" stroke="#000000" stroke-width="4" stroke-miterlimit="10" d="M102.794,12.613
					c0.15,0,0.15-0.301,0.301-0.301s0.301-0.151,0.301-0.151c0.15,0,0.303-0.149,0.303-0.149c0.15,0,0.15-0.151,0.303-0.151
					c0.3-0.304,0.753-0.607,0.906-0.906c0-0.151,0.15-0.151,0.15-0.304c0-0.15,0.15-0.15,0.15-0.302c0-0.151,0-0.301,0.15-0.301
					c0-0.152,0.156-0.152,0.156-0.304c0-0.149,0.147-0.454,0.147-0.604l0,0l0,0c0-0.151-0.147-0.453-0.147-0.604
					c0-0.151-0.156-0.151-0.156-0.301c0-0.151-0.15-0.304-0.15-0.304c0-0.149-0.15-0.149-0.15-0.302c0-0.151-0.15-0.151-0.15-0.301
					c-0.153-0.152-0.303-0.304-0.453-0.453L77.263-20.314c-0.149-0.151-0.299-0.304-0.451-0.453c0,0-0.15-0.152-0.3-0.152
					s-0.303-0.151-0.303-0.151c-0.15,0-0.15,0-0.3-0.15c-0.153,0-0.153,0-0.303-0.152c-0.15,0-0.453,0-0.606,0H12.614
					C5.061-21.674-1.433-15.632-1.433-8.231v115.856c0,7.404,6.494,14.201,14.047,14.201H92.22c7.402,0,13.747-6.796,13.747-14.201
					V32.705c0-1.813-1.964-3.474-3.779-3.474c-1.813,0-3.776,1.511-3.776,3.474v74.921c0,3.626-2.567,6.646-6.192,6.646H12.614
					c-3.625,0-6.494-3.02-6.494-6.646V-8.231c0-3.625,2.72-5.893,6.494-5.893h58.46v12.993c0,7.402,6.493,14.198,14.046,14.198
					h17.069C102.341,13.066,102.641,12.613,102.794,12.613z M78.623-1.132v-8.911L93.88,5.515h-8.912
					C81.342,5.515,78.623,2.492,78.623-1.132z"/>
				<path fill="#FFFFFF" stroke="#000000" stroke-width="4" stroke-miterlimit="10" d="M20.618,13.066h36.255
					c1.812,0,3.476-1.962,3.476-3.775c0-1.814-1.514-3.776-3.476-3.776H20.618c-1.81,0-3.471,1.962-3.471,3.776
					C17.147,11.104,18.657,13.066,20.618,13.066z"/>
				<path fill="#FFFFFF" stroke="#000000" stroke-width="4" stroke-miterlimit="10" d="M87.384,27.417
					c0-1.812-1.509-3.777-3.472-3.777H20.469c-1.812,0-3.473,1.964-3.473,3.777c0,1.814,1.51,3.776,3.473,3.776h63.443
					C85.875,31.193,87.384,29.231,87.384,27.417z"/>
				<path fill="#FFFFFF" stroke="#000000" stroke-width="4" stroke-miterlimit="10" d="M20.618,49.32h45.32
					c1.813,0,3.47-1.962,3.47-3.775c0-1.812-1.507-3.777-3.47-3.777h-45.32c-1.81,0-3.471,1.965-3.471,3.777
					C17.147,47.358,18.657,49.32,20.618,49.32z"/>
				<path fill="#FFFFFF" stroke="#000000" stroke-width="4" stroke-miterlimit="10" d="M78.323,63.669
					c0-1.813-1.512-3.776-3.476-3.776H20.469c-1.812,0-3.473,1.963-3.473,3.776s1.51,3.776,3.473,3.776h54.378
					C76.812,67.445,78.323,65.482,78.323,63.669z"/>
				<path fill="#FFFFFF" stroke="#000000" stroke-width="4" stroke-miterlimit="10" d="M69.26,81.796
					c0-1.813-1.509-3.777-3.475-3.777H20.469c-1.812,0-3.473,1.964-3.473,3.777s1.51,3.776,3.473,3.776h45.316
					C67.748,85.574,69.26,83.609,69.26,81.796z"/>
				<path fill="#FFFFFF" stroke="#000000" stroke-width="4" stroke-miterlimit="10" d="M20.618,96.149
					c-1.81,0-3.471,1.963-3.471,3.775s1.509,3.776,3.471,3.776h18.13c1.812,0,3.47-1.964,3.47-3.776s-1.509-3.775-3.47-3.775H20.618
					z"/>
			</g>
		</g>
		<g display="none">
			<g display="inline">
				<path fill="#FFFFFF" stroke="#000000" stroke-width="4" stroke-miterlimit="10" d="M101.434,11.86
					c0.15,0,0.15,0.151,0.301,0.151c0.15,0,0.3,0,0.3,0c0.15,0,0.15,0,0.303-0.151c0.153,0,0.153,0,0.303-0.154
					c0.303-0.299,0.756-0.602,0.906-0.903c0-0.152,0.151-0.152,0.151-0.302c0-0.152,0.15-0.152,0.15-0.304
					c0-0.149,0-0.301,0.153-0.301c0-0.151,0-0.301,0.15-0.453c0-0.151,0.15-0.755,0.15-0.755l0,0v0.301c0-0.151,0-0.453-0.15-0.604
					c0-0.149-0.15-0.149-0.15-0.301c0-0.151,0-0.151-0.153-0.301c0-0.153-0.15-0.153-0.15-0.304c0-0.149-0.151-0.149-0.151-0.301
					c-0.15-0.151-0.3-0.301-0.453-0.453L76.207-20.618c-0.15-0.149-0.302-0.301-0.454-0.453c-0.149,0-0.149-0.15-0.3-0.15
					c-0.153,0-0.153-0.152-0.3-0.152c-0.153,0-0.306,0-0.306-0.151c-0.147,0-0.147-0.15-0.3-0.15c-0.3,0.15-0.453,0-0.753,0l0,0
					H11.857c-7.401,0-13.29,6.192-13.29,13.443V106.72c0,7.405,5.89,13.444,13.29,13.444H90.86c7.402,0,13.443-6.192,13.443-13.444
					V32.401c0-1.813-1.962-3.322-3.775-3.322s-3.776,1.509-3.776,3.322v74.319c0,3.626-2.266,5.892-5.892,5.892H11.857
					c-3.624,0-7.249-2.266-7.249-5.892V-8.231c0-3.625,3.625-5.893,7.249-5.893h59.214v12.993c0,7.402,5.439,12.688,12.69,12.688
					h16.916C100.981,11.557,101.282,11.86,101.434,11.86z M77.115-1.132v-8.761L92.673,5.515h-8.761
					C80.135,5.515,77.115,2.492,77.115-1.132z"/>
				<path fill="#FFFFFF" stroke="#000000" stroke-width="4" stroke-miterlimit="10" d="M19.866,11.557h35.951
					c1.813,0,3.32-1.208,3.32-3.02c0-1.813-1.506-3.021-3.32-3.021H19.866c-1.813,0-3.325,1.208-3.325,3.021
					C16.541,10.349,18.053,11.557,19.866,11.557z"/>
				<path fill="#FFFFFF" stroke="#000000" stroke-width="4" stroke-miterlimit="10" d="M82.855,23.641H19.866
					c-1.813,0-3.325,1.209-3.325,3.022c0,1.812,1.512,3.02,3.325,3.02h62.989c1.812,0,3.323-1.208,3.323-3.02
					C86.178,24.85,84.667,23.641,82.855,23.641z"/>
				<path fill="#FFFFFF" stroke="#000000" stroke-width="4" stroke-miterlimit="10" d="M82.855,41.767H19.866
					c-1.813,0-3.172,1.208-3.172,3.02v53.925c0,0.153-0.152,0.454,0,0.606c0,0.153,0,0.153,0,0.3c0,0.151,0,0.304,0.15,0.304
					c0,0.149,0.151,0.149,0.151,0.3c0,0.153,0,0.153,0.151,0.301c0.301,0.303,0.602,0.756,0.906,0.906
					c0.149,0,0.149,0.15,0.301,0.15c0.151,0,0.151,0.151,0.301,0.151c0.151,0,0.151,0,0.304,0.15c0.149,0,0.149,0,0.301,0.15
					c0.152,0,0.453,0,0.605,0h62.99c1.812,0,3.322-1.513,3.322-3.323V44.787C86.178,42.975,84.667,41.767,82.855,41.767z
					 M75.3,96.149L54.91,75.453c0.304,0.15,0.604,0,0.907,0c0.909,0,1.662-0.453,2.415-1.059l6.949-6.645l14.954,14.5v13.9H75.3z
					 M46.904,77.266l18.729,18.883H28.022L46.904,77.266z M67.598,60.347c-0.606-0.607-1.66-1.057-2.569-1.057
					c-0.906,0-1.813,0.3-2.417,1.057l-9.061,9.062c-0.907,0.906-1.21,2.267-0.907,3.323l-3.322-3.323
					c-1.359-1.357-3.777-1.357-4.985,0l-21.6,21.148V47.81h57.399v24.773L67.598,60.347z"/>
			</g>
		</g>
		<g display="none">
			<g display="inline">
				<path fill="#FFFFFF" stroke="#000000" stroke-width="4" stroke-miterlimit="10" d="M49.924,21.225
					c11.48,0,21.903,7.1,26.133,17.824c0.754,1.812,2.719,2.717,4.53,1.963c1.812-0.756,2.717-2.72,1.963-4.533
					c-5.135-13.443-18.279-22.355-32.628-22.355c-19.335,0-35.195,15.861-35.195,35.195c0,19.334,15.861,35.194,35.195,35.194
					c14.502,0,27.339-8.608,32.628-22.052c0.754-1.816-0.153-3.78-1.963-4.532c-1.812-0.757-3.776,0.15-4.53,1.963
					c-4.23,10.574-14.804,17.672-26.133,17.672c-15.559,0-28.095-12.684-28.095-28.095C21.829,33.761,34.365,21.225,49.924,21.225z"
					/>
				<path fill="#FFFFFF" stroke="#000000" stroke-width="4" stroke-miterlimit="10" d="M-0.375-5.965
					c-1.36-1.359-3.625-1.359-4.985,0c-1.359,1.36-1.359,3.625,0,4.985L5.213,9.595c0.755,0.754,1.662,1.056,2.416,1.056
					c0.906,0,1.812-0.302,2.418-1.056c1.357-1.36,1.357-3.627,0-4.986L-0.375-5.965z"/>
				<path fill="#FFFFFF" stroke="#000000" stroke-width="4" stroke-miterlimit="10" d="M92.22,10.651
					c0.906,0,1.813-0.302,2.416-1.056L105.21-0.979c1.36-1.359,1.36-3.625,0-4.985c-1.36-1.359-3.626-1.359-4.986,0L89.65,4.609
					c-1.359,1.359-1.359,3.626,0,4.986C90.407,10.197,91.314,10.651,92.22,10.651z"/>
				<path fill="#FFFFFF" stroke="#000000" stroke-width="4" stroke-miterlimit="10" d="M5.213,89.046L-5.36,99.619
					c-1.359,1.36-1.359,3.626,0,4.986c0.755,0.756,1.661,1.056,2.416,1.056c0.756,0,1.813-0.3,2.417-1.056L10.047,94.03
					c1.357-1.359,1.357-3.626,0-4.985C8.839,87.687,6.573,87.687,5.213,89.046z"/>
				<path fill="#FFFFFF" stroke="#000000" stroke-width="4" stroke-miterlimit="10" d="M94.636,89.046
					c-1.36-1.359-3.626-1.359-4.986,0c-1.359,1.36-1.359,3.626,0,4.986l10.574,10.574c0.757,0.757,1.664,1.056,2.417,1.056
					c0.907,0,1.814-0.299,2.419-1.056c1.36-1.359,1.36-3.626,0-4.985L94.636,89.046z"/>
				<path fill="#FFFFFF" stroke="#000000" stroke-width="4" stroke-miterlimit="10" d="M0.681,49.32
					c0-1.962-1.509-3.021-3.472-3.021h-14.956c-1.962,0-3.474,1.059-3.474,3.021s1.512,3.021,3.474,3.021h14.803
					C-0.98,52.341,0.681,51.282,0.681,49.32z"/>
				<path fill="#FFFFFF" stroke="#000000" stroke-width="4" stroke-miterlimit="10" d="M49.924,98.562
					c-1.962,0-3.02,1.51-3.02,3.473v14.957c0,1.963,1.059,3.475,3.02,3.475c1.964,0,3.021-1.512,3.021-3.475v-14.804
					C52.945,100.224,51.888,98.562,49.924,98.562z"/>
				<path fill="#FFFFFF" stroke="#000000" stroke-width="4" stroke-miterlimit="10" d="M49.924,0.076
					c1.964,0,3.021-1.509,3.021-3.472v-14.956c0-1.962-1.057-3.474-3.021-3.474c-1.962,0-3.02,1.512-3.02,3.474v14.803
					C46.904-1.584,47.963,0.076,49.924,0.076z"/>
				<path fill="#FFFFFF" stroke="#000000" stroke-width="4" stroke-miterlimit="10" d="M117.598,46.299h-14.804
					c-1.964,0-3.476,1.059-3.476,3.021s1.512,3.021,3.476,3.021h14.951c1.966,0,3.476-1.059,3.476-3.021
					S119.56,46.299,117.598,46.299z"/>
			</g>
		</g>
		<g display="none">
			<g display="inline">
				<path fill="#FFFFFF" stroke="#000000" stroke-width="4" stroke-miterlimit="10" d="M78.02,46.299H62.915
					c-1.963,0-3.626,1.814-3.626,3.776c0,1.963,1.663,3.777,3.626,3.777H78.02c1.963,0,3.625-1.814,3.625-3.777
					C81.645,48.113,79.983,46.299,78.02,46.299z"/>
				<path fill="#FFFFFF" stroke="#000000" stroke-width="4" stroke-miterlimit="10" d="M75.453,63.369
					c-1.66-1.059-3.926-0.454-4.835,1.207c-5.133,8.761-14.501,14.047-24.621,14.047c-15.711,0-28.547-12.837-28.547-28.548
					c0-15.709,12.838-28.547,28.547-28.547c9.82,0,19.032,5.135,24.169,13.443c1.059,1.662,3.323,2.114,4.989,1.056
					c1.659-1.056,2.112-3.322,1.206-4.985c-6.796-10.42-18.127-16.765-30.513-16.765c-19.636,0-35.798,16.013-35.798,35.799
					c0,19.787,16.01,35.799,35.798,35.799c12.535,0,24.469-6.799,30.815-17.672C77.716,66.541,77.115,64.275,75.453,63.369z"/>
			</g>
		</g>
		<g display="none">
			<g display="inline">
				<path fill="#FFFFFF" stroke="#000000" stroke-width="4" stroke-miterlimit="10" d="M110.949,17.449L86.025-7.474
					c-4.079-4.079-10.572-4.079-14.654,0l-79.6,79.604c-4.079,4.079-4.079,10.572,0,14.65l24.924,24.925
					c0.454,0.454,1.056,0.604,1.662,0.604c0.605,0,1.207-0.15,1.661-0.604c0.907-0.906,0.907-2.266,0-3.173L-5.059,83.609
					c-2.264-2.266-2.264-6.045,0-8.309l1.812-1.812l16.616,16.616c0.907,0.906,2.267,0.906,3.172,0c0.907-0.906,0.907-2.266,0-3.173
					L-0.074,70.315l5.891-5.891l7.553,7.552c0.907,0.906,2.267,0.906,3.172,0c0.907-0.909,0.907-2.267,0-3.173l-7.553-7.549
					l5.892-5.893l16.616,16.616c0.906,0.906,2.266,0.906,3.172,0c0.907-0.906,0.907-2.266,0-3.173L18.053,52.188l5.89-5.889
					l7.554,7.553c0.906,0.906,2.266,0.906,3.172,0c0.907-0.907,0.907-2.267,0-3.173l-7.553-7.554l5.89-5.89L49.62,53.852
					c0.907,0.906,2.268,0.906,3.171,0c0.91-0.907,0.91-2.267,0-3.173L36.178,34.064l5.892-5.892l7.551,7.554
					c0.907,0.906,2.267,0.906,3.173,0c0.909-0.907,0.909-2.266,0-3.172L45.243,25l5.889-5.891l16.616,16.616
					c0.909,0.906,2.265,0.906,3.17,0c0.909-0.907,0.909-2.266,0-3.172L54.304,15.937l5.892-5.889l7.555,7.55
					c0.453,0.454,1.056,0.606,1.659,0.606c0.606,0,1.209-0.151,1.664-0.606c0.906-0.906,0.906-2.265,0-3.172l-7.552-7.55
					l5.888-5.893l16.616,16.614c0.456,0.454,1.061,0.606,1.664,0.606s1.209-0.151,1.662-0.606c0.906-0.906,0.906-2.265,0-3.172
					L72.734-2.189l1.812-1.813c2.266-2.267,6.042-2.267,8.309,0l24.924,24.623c1.059,1.057,1.659,2.566,1.659,4.078
					c0,1.511-0.602,3.021-1.659,4.079l-72.96,72.957c-0.906,0.909-0.906,2.267,0,3.176c0.454,0.453,1.059,0.602,1.664,0.602
					c0.603,0,1.208-0.149,1.661-0.602l72.806-72.81C115.026,28.023,115.026,21.528,110.949,17.449z"/>
			</g>
		</g>
		<g display="none">
			<g display="inline">
				<path fill="#FFFFFF" stroke="#000000" stroke-width="4" stroke-miterlimit="10" d="M103.548,10.197
					c-0.907-0.906-2.266-0.906-3.173,0c-0.906,0.906-0.906,2.267,0,3.172c1.059,1.056,1.513,2.416,1.513,3.775
					c0,1.36-0.606,2.72-1.513,3.627c0,0,0-0.151-0.151-0.151l-8.608-8.609c-0.906-0.907-2.267-0.907-3.17,0
					c-0.909,0.906-0.909,2.264,0,3.172l8.606,8.609c0,0,0.154,0,0.154,0.151L35.122,86.331L17.6,68.804L82.855,3.551
					c0.906-0.904,0.906-2.264,0-3.171c-0.907-0.906-2.267-0.906-3.173,0L12.765,67.145l0,0c-0.151,0.15-0.299,0.454-0.454,0.604
					c0,0,0,0,0,0.149c0,0,0,0,0,0.154L2.041,99.018l0,0c0,0.15,0,0.15,0,0.3v0.153v0.15v0.15v0.153c0,0.15,0,0.15,0,0.3l0,0l0,0
					c0,0.153,0.149,0.454,0.304,0.606l0,0c0.15,0.15,0.299,0.301,0.454,0.453c0,0,0,0,0.149,0.15
					c0.149,0.151,0.304,0.151,0.602,0.303l0,0c0.154,0,0.454,0.153,0.758,0.153c0.301,0,0.453,0,0.754-0.153l0,0l30.664-10.117
					c0,0,0,0,0.151,0c0,0,0,0,0.152,0c0.302-0.153,0.453-0.304,0.602-0.453l0,0l66.917-66.92c1.813-1.812,2.872-4.38,2.872-6.948
					C106.42,14.578,105.514,12.011,103.548,10.197z M7.629,96.298l7.703-23.262l15.406,15.407L7.629,96.298z"/>
				<path fill="#FFFFFF" stroke="#000000" stroke-width="4" stroke-miterlimit="10" d="M79.983,20.772L54.154,46.601
					c-0.909,0.906-0.909,2.266,0,3.172c0.453,0.453,1.06,0.602,1.663,0.602s1.209-0.149,1.662-0.602l25.677-25.829
					c0.909-0.907,0.909-2.267,0-3.172C82.249,19.865,80.889,19.865,79.983,20.772z"/>
				<path fill="#FFFFFF" stroke="#000000" stroke-width="4" stroke-miterlimit="10" d="M45.544,55.211l-8.609,8.611
					c-0.907,0.906-0.907,2.266,0,3.172c0.454,0.454,1.057,0.607,1.662,0.607s1.208-0.153,1.661-0.607l8.611-8.609
					c0.906-0.906,0.906-2.264,0-3.173C47.963,54.305,46.451,54.305,45.544,55.211z"/>
			</g>
		</g>
		<g display="none">
			<g display="inline">
				<path fill="#FFFFFF" stroke="#000000" stroke-width="4" stroke-miterlimit="10" d="M113.819,46.601
					c-1.056-1.509-24.623-37.31-65.404-37.31c-40.786,0-64.35,35.8-65.406,37.31l-0.757,1.209l0.757,1.207
					c1.056,1.512,24.619,37.311,65.406,37.311c40.781,0,64.348-35.8,65.404-37.311l0.756-1.207L113.819,46.601z M48.416,81.796
					c-34.139,0-56.192-27.794-60.724-33.987c4.533-6.195,26.432-33.987,60.724-33.987c34.139,0,56.189,27.792,60.72,33.987
					C104.605,54.003,82.702,81.796,48.416,81.796z"/>
				<path fill="#FFFFFF" stroke="#000000" stroke-width="4" stroke-miterlimit="10" d="M66.391,44.638
					c-1.21,0-2.266,1.208-2.116,2.416c0,0.304,0,0.605,0,0.756c0,8.763-7.096,15.859-15.859,15.859
					c-8.764,0-15.863-7.096-15.863-15.859c0-8.761,7.101-15.862,15.863-15.862c2.869,0,5.738,0.757,8.309,2.417
					c1.053,0.605,2.412,0.301,3.172-0.754c0.752-1.059,0.299-2.417-0.76-3.173c-3.17-1.962-6.945-3.02-10.721-3.02
					c-11.18,0-20.395,9.214-20.395,20.392c0,11.177,9.215,20.392,20.395,20.392c11.177,0,20.39-9.215,20.39-20.392
					c0-0.304,0-0.756,0-1.058C68.657,45.545,67.598,44.638,66.391,44.638z"/>
			</g>
		</g>
		<g display="none">
			<g display="inline">
				<path fill="#FFFFFF" stroke="#000000" stroke-width="4" stroke-miterlimit="10" d="M101.434,100.979L64.275,63.822
					c-1.21-1.21-3.173-1.21-4.379,0c-1.211,1.206-1.211,3.17,0,4.379l37.31,37.309c0.602,0.603,1.356,0.907,2.263,0.907
					c0.754,0,1.66-0.304,2.266-0.907C102.794,104.151,102.794,102.188,101.434,100.979z"/>
				<path fill="#FFFFFF" stroke="#000000" stroke-width="4" stroke-miterlimit="10" d="M34.064,3.852
					c18.882,0,34.139,15.257,34.139,34.139c0,4.833-0.906,9.366-2.873,13.743c-0.756,1.513,0,3.476,1.66,4.08
					c1.51,0.757,3.475,0,4.079-1.663c2.264-5.136,3.473-10.572,3.473-16.312c0-22.204-18.123-40.331-40.329-40.331
					c-22.203,0-40.333,18.127-40.333,40.331c0,22.203,18.129,40.331,40.333,40.331c5.588,0,11.027-1.209,16.312-3.476
					c1.512-0.754,2.265-2.566,1.665-4.079c-0.76-1.509-2.572-2.265-4.081-1.659c-4.38,1.962-8.911,2.87-13.748,2.87
					C15.182,72.13-0.074,56.874-0.074,37.992C-0.074,19.11,15.182,3.852,34.064,3.852z"/>
			</g>
		</g>
		<g display="none">
			<g display="inline">
				<path fill="#FFFFFF" stroke="#000000" stroke-width="4" stroke-miterlimit="10" d="M48.416-7.474
					c-25.984,0-47.129,21.146-47.129,47.127c0,25.376,42.898,66.311,44.71,67.973l2.568,2.417l2.567-2.417
					c1.813-1.662,44.712-42.595,44.712-67.973C95.542,13.672,74.394-7.474,48.416-7.474z M48.416,99.924
					C35.272,87.081,8.536,57.026,8.536,39.653c0-22.055,17.825-39.876,39.881-39.876c22.05,0,39.876,17.974,39.876,39.876
					C88.291,56.874,61.553,87.081,48.416,99.924z"/>
				<path fill="#FFFFFF" stroke="#000000" stroke-width="4" stroke-miterlimit="10" d="M69.712,33.913
					c-1.964,0.151-3.476,1.964-3.173,3.927c0,0.604,0.153,1.209,0.153,1.812c0,9.972-8.156,18.127-18.127,18.127
					c-9.969,0-18.124-8.156-18.124-18.127c0-9.969,8.156-18.124,18.124-18.124c3.776,0,7.252,1.056,10.269,3.17
					c1.664,1.207,3.929,0.754,4.985-0.906c1.21-1.661,0.757-3.927-0.906-4.983c-4.229-3.022-9.214-4.533-14.498-4.533
					c-14.05,0-25.379,11.329-25.379,25.376c0,14.048,11.327,25.376,25.379,25.376c14.046,0,25.376-11.328,25.376-25.376
					c0-0.906,0-1.661-0.153-2.567C73.489,35.121,71.674,33.611,69.712,33.913z"/>
			</g>
		</g>
		<g display="none">
			<g display="inline">
				<path fill="#FFFFFF" stroke="#000000" stroke-width="4" stroke-miterlimit="10" d="M53.851,75.906L31.496,98.259
					c-6.798,6.799-17.975,6.799-24.924,0c-6.798-6.796-6.798-17.974,0-24.922l22.356-22.356c1.357-1.357,1.357-3.623,0-4.983
					c-1.36-1.359-3.626-1.359-4.986,0L1.588,68.505c-9.668,9.667-9.668,25.224,0,34.74c4.833,4.833,11.026,7.252,17.372,7.252
					c6.343,0,12.536-2.419,17.369-7.252l22.356-22.355c1.363-1.362,1.363-3.626,0-4.985C57.326,74.547,55.214,74.547,53.851,75.906z
					"/>
				<path fill="#FFFFFF" stroke="#000000" stroke-width="4" stroke-miterlimit="10" d="M103.548,1.437
					c-9.668-9.668-25.225-9.668-34.742,0L46.299,23.792c-1.359,1.36-1.359,3.625,0,4.985c1.359,1.357,3.625,1.357,4.986,0
					L73.64,6.423c6.796-6.798,17.974-6.798,24.925,0c6.796,6.796,6.796,17.974,0,24.922L76.207,53.55
					c-1.36,1.359-1.36,3.626,0,4.983c0.757,0.757,1.663,1.057,2.416,1.057c0.756,0,1.813-0.3,2.419-1.057l22.355-22.354
					C113.063,26.664,113.063,10.954,103.548,1.437z"/>
				<path fill="#FFFFFF" stroke="#000000" stroke-width="4" stroke-miterlimit="10" d="M23.943,80.891
					c0.755,0.754,1.662,1.059,2.418,1.059c0.907,0,1.813-0.303,2.416-1.059l52.265-52.264c1.359-1.359,1.359-3.625,0-4.985
					c-1.363-1.36-3.625-1.36-4.985,0L23.943,75.906C22.585,77.266,22.585,79.529,23.943,80.891z"/>
			</g>
		</g>
		<g display="none">
			<g display="inline">
				<path fill="#FFFFFF" stroke="#000000" stroke-width="4" stroke-miterlimit="10" d="M52.945,71.071
					c10.271,0,18.729-8.458,18.729-18.73c0-10.272-8.458-18.729-18.729-18.729c-1.66,0-3.021,1.359-3.021,3.021
					c0,1.661,1.361,3.02,3.021,3.02c6.951,0,12.688,5.741,12.688,12.688c0,6.949-5.738,12.688-12.688,12.688
					c-6.948,0-12.688-5.739-12.688-12.688c0-3.325,1.36-6.495,3.626-8.913c1.207-1.207,1.207-3.019,0-4.228
					c-1.21-1.208-3.023-1.208-4.229,0c-3.476,3.475-5.289,8.158-5.289,13.141C34.216,62.613,42.673,71.071,52.945,71.071z"/>
				<path fill="#FFFFFF" stroke="#000000" stroke-width="4" stroke-miterlimit="10" d="M115.784,49.32h-12.84
					c-0.756-12.083-5.285-22.054-12.537-30.21l7.855-7.856c1.209-1.205,1.209-3.018,0-4.228c-1.21-1.208-3.02-1.208-4.229,0
					l-7.855,7.855C78.02,7.629,68.048,2.945,55.967,2.343v-12.84c0-1.662-1.36-3.02-3.02-3.02c-1.662,0-3.022,1.359-3.022,3.02
					v35.95c0,1.664,1.36,3.023,3.022,3.023s3.02-1.359,3.02-3.023V8.235c10.572,0.602,18.88,4.682,25.981,10.875l-7.554,7.553
					c-1.206,1.208-1.206,3.02,0,4.228c0.606,0.603,1.36,0.906,2.117,0.906c0.753,0,1.509-0.303,2.112-0.906l7.555-7.554
					c6.192,7.099,10.119,15.407,10.875,25.982h-17.22c-1.664,0-3.022,1.359-3.022,3.022c0,1.662,1.356,3.019,3.022,3.019h17.069
					c-0.604,10.574-4.682,18.882-10.877,25.982l-7.552-7.553c-1.21-1.207-3.02-1.207-4.229,0c-1.211,1.209-1.211,3.023,0,4.229
					l7.549,7.555c-6.949,6.192-15.257,10.121-25.829,10.874V79.229c0-1.664-1.359-3.022-3.019-3.022s-3.021,1.357-3.021,3.022
					v17.069c-10.574-0.603-18.882-4.682-25.982-10.877l7.553-7.552c1.208-1.209,1.208-3.019,0-4.228c-1.21-1.211-3.02-1.211-4.227,0
					l-7.554,7.549C13.52,74.241,9.593,65.934,8.838,55.361h17.069c1.661,0,3.021-1.359,3.021-3.02c0-1.661-1.36-3.021-3.021-3.021
					H8.839c0.602-9.064,4.378-18.732,10.722-25.981l7.554,7.553c0.605,0.603,1.36,0.906,2.114,0.906
					c0.756,0,1.509-0.303,2.117-0.906c1.207-1.208,1.207-3.02,0-4.228L11.708,7.025c-1.208-1.208-3.02-1.208-4.228,0
					c-1.211,1.21-1.211,3.023,0,4.228l7.854,7.856C7.781,27.569,3.4,38.746,2.798,49.32h-12.84c-1.663,0-3.022,1.359-3.022,3.021
					s1.359,3.02,3.022,3.02h12.84C3.55,67.445,8.082,77.416,15.333,85.574L7.63,93.429c-1.208,1.21-1.208,3.019,0,4.228
					c0.604,0.603,1.359,0.91,2.116,0.91c0.755,0,1.51-0.307,2.112-0.91l7.856-7.854c8.156,7.252,18.127,11.932,30.21,12.538v12.84
					c0,1.659,1.361,3.02,3.021,3.02c1.662,0,3.019-1.362,3.019-3.02v-12.84c12.084-0.757,22.056-5.286,30.214-12.538l7.855,7.854
					c0.603,0.603,1.36,0.91,2.113,0.91c0.756,0,1.513-0.307,2.113-0.91c1.211-1.209,1.211-3.016,0-4.228l-7.852-7.855
					c7.252-8.158,11.931-18.126,12.538-30.213h12.84c1.659,0,3.02-1.359,3.02-3.02C118.805,50.68,117.444,49.32,115.784,49.32z"/>
			</g>
		</g>
		<g display="none">
			<g display="inline">
				<path fill="#FFFFFF" stroke="#000000" stroke-width="4" stroke-miterlimit="10" d="M110.343,44.787
					c-1.812,0-3.017,1.36-3.017,3.173v29.605c0,2.873-2.87,4.985-5.743,4.985H4.307c-2.87,0-5.74-2.112-5.74-4.985V47.961
					c0-1.813-1.208-3.173-3.021-3.173s-3.022,1.36-3.022,3.173v29.603c0,6.346,5.438,11.028,11.784,11.028h97.126
					c6.343,0,11.782-4.682,11.782-11.028V47.961C113.369,46.148,112.158,44.787,110.343,44.787z"/>
				<path fill="#FFFFFF" stroke="#000000" stroke-width="4" stroke-miterlimit="10" d="M52.945,70.165
					c1.812,0,3.019-1.362,3.019-3.173V27.117L69.712,40.71c0.603,0.605,1.509,0.906,2.266,0.906c0.756,0,1.662-0.301,2.266-0.906
					c1.209-1.206,1.209-3.171,0-4.53l-19.03-19.035c-0.154-0.149-0.304-0.301-0.457-0.453c0,0-0.15-0.149-0.3-0.149
					c-0.153,0-0.153-0.151-0.303-0.151s-0.15,0-0.303-0.152c-0.15,0-0.15,0-0.3-0.15c-0.454-0.152-0.907-0.152-1.21,0
					c-0.15,0-0.15,0-0.3,0.15c-0.153,0-0.153,0-0.303,0.152c-0.153,0-0.153,0.151-0.303,0.151s-0.15,0.149-0.301,0.149
					c-0.299,0.304-0.604,0.605-0.904,0.906c0,0.153-0.154,0.153-0.154,0.305c0,0.149-0.149,0.149-0.149,0.301
					c0,0.152,0,0.152-0.149,0.302c0,0.151,0,0.151-0.154,0.304c0,0.149,0,0.454,0,0.604l0,0v47.581
					C49.924,68.655,51.132,70.165,52.945,70.165z"/>
				<path fill="#FFFFFF" stroke="#000000" stroke-width="4" stroke-miterlimit="10" d="M33.912,41.615
					c0.756,0,1.663-0.301,2.266-0.906l9.518-9.514c1.208-1.21,1.208-3.172,0-4.532c-1.211-1.211-3.173-1.211-4.533,0l-9.518,9.515
					c-1.205,1.208-1.205,3.17,0,4.53C32.251,41.314,33.157,41.615,33.912,41.615z"/>
			</g>
		</g>
		<g display="none">
			<g display="inline">
				<path fill="#FFFFFF" stroke="#000000" stroke-width="4" stroke-miterlimit="10" d="M110.343,44.787
					c-1.812,0-3.017,1.36-3.017,3.173v29.605c0,2.873-2.72,4.985-5.743,4.985H4.307c-2.87,0-5.74-2.112-5.74-4.985V47.961
					c0-1.813-1.208-3.173-3.021-3.173s-3.022,1.36-3.022,3.173v29.603c0,6.346,5.288,11.028,11.784,11.028h97.276
					c6.346,0,11.785-4.529,11.785-11.028V47.961C113.369,46.148,112.158,44.787,110.343,44.787z"/>
				<path fill="#FFFFFF" stroke="#000000" stroke-width="4" stroke-miterlimit="10" d="M41.164,59.743
					c0.603,0.606,1.359,0.906,2.266,0.906s1.661-0.3,2.267-0.906c1.208-1.21,1.208-3.323,0-4.532l-9.518-9.517
					c-1.208-1.207-3.322-1.207-4.532,0c-1.205,1.21-1.205,3.322,0,4.533L41.164,59.743z"/>
				<path fill="#FFFFFF" stroke="#000000" stroke-width="4" stroke-miterlimit="10" d="M49.775,67.599c0,0.15,0,0.15,0.149,0.299
					c0,0.154,0,0.154,0.149,0.304c0,0.149,0.154,0.149,0.154,0.303c0,0.15,0.149,0.15,0.149,0.299
					c0.304,0.304,0.604,0.606,0.908,0.907c0.149,0,0.149,0.151,0.3,0.151c0.154,0,0.154,0.15,0.304,0.15s0.15,0,0.303,0.15
					c0.147,0,0.147,0,0.3,0.15c0.15,0,0.453,0,0.604,0c0.149,0,0.454,0,0.604,0s0.15,0,0.303-0.15c0.15,0,0.15,0,0.3-0.15
					c0.153,0,0.153-0.15,0.303-0.15s0.15-0.151,0.303-0.151c0.15-0.15,0.303-0.301,0.453-0.454l19.032-19.03
					c1.21-1.21,1.21-3.322,0-4.533c-1.207-1.207-3.322-1.207-4.533,0L56.117,59.29V19.412c0-1.814-1.209-3.172-3.02-3.172
					c-1.813,0-3.024,1.359-3.024,3.172v47.58l0,0C49.924,67.295,49.775,67.445,49.775,67.599z"/>
			</g>
		</g>
		<g display="none">
			<g display="inline">
				<path fill="#FFFFFF" stroke="#000000" stroke-width="4" stroke-miterlimit="10" d="M104.153,23.641H77.115
					c-2.57,0-4.532-1.36-4.532-3.925V7.025H43.579c-5.588,0-10.269,5.135-10.269,10.878v1.812c0,2.565-1.963,3.925-4.533,3.925
					H1.737c-1.509,0-2.87,1.512-2.87,3.023c0,1.509,1.21,3.02,2.87,3.02h27.039c5.588,0,10.574-4.38,10.574-9.969v-1.812
					c0-2.57,1.663-4.838,4.229-4.838h22.961v6.649c0,5.588,4.985,9.967,10.575,9.967h27.038c2.565,0,4.682,2.418,4.682,4.985V86.93
					c0,2.566-2.117,4.833-4.682,4.833H1.737c-2.565,0-4.683-2.115-4.683-4.683c0-0.15,0-0.303,0-0.453s0-0.303,0-0.453V43.882
					c0-1.509-1.509-2.869-3.019-2.869c-1.513,0-3.022,1.208-3.022,2.869v41.994c0,0.151,0.151,0.301,0.304,0.457
					c0,0.15,0,0.603,0,0.753c0,5.588,4.682,10.571,10.419,10.571h102.565c5.588,0,10.724-5.135,10.724-10.877V34.667
					C114.876,28.929,109.893,23.641,104.153,23.641z"/>
				<path fill="#FFFFFF" stroke="#000000" stroke-width="4" stroke-miterlimit="10" d="M39.049,50.981
					c-1.359-0.605-3.02-0.151-3.777,1.36c-1.208,2.567-1.962,5.59-1.962,8.459c0,10.724,8.761,19.637,19.637,19.637
					c10.725,0,19.636-8.761,19.636-19.637c0-10.725-8.761-19.638-19.636-19.638c-3.326,0-6.495,0.757-9.367,2.418
					c-1.36,0.754-1.813,2.417-1.057,3.777c0.754,1.359,2.417,1.813,3.776,1.056c2.117-1.056,4.382-1.661,6.646-1.661
					c7.702,0,14.047,6.343,14.047,14.048s-6.345,14.047-14.047,14.047S38.898,68.505,38.898,60.8c0-2.117,0.453-4.228,1.359-6.042
					C41.013,53.247,40.407,51.588,39.049,50.981z"/>
				<path fill="#FFFFFF" stroke="#000000" stroke-width="4" stroke-miterlimit="10" d="M78.169,46.299h16.77
					c1.509,0,2.869-0.754,2.869-2.266c0-1.512-1.36-2.266-2.869-2.266h-16.77c-1.507,0-2.869,0.754-2.869,2.266
					C75.3,45.545,76.51,46.299,78.169,46.299z"/>
				<path fill="#FFFFFF" stroke="#000000" stroke-width="4" stroke-miterlimit="10" d="M78.169,62.915h16.77
					c1.509,0,2.869-0.754,2.869-2.266s-1.36-2.265-2.869-2.265h-16.77c-1.507,0-2.869,0.753-2.869,2.265S76.51,62.915,78.169,62.915
					z"/>
				<path fill="#FFFFFF" stroke="#000000" stroke-width="4" stroke-miterlimit="10" d="M78.169,81.041h8.462
					c1.51,0,2.869-1.509,2.869-3.022C89.5,76.51,88.291,75,86.631,75h-8.462c-1.507,0-2.869,1.51-2.869,3.019
					C75.3,79.529,76.51,81.041,78.169,81.041z"/>
			</g>
		</g>
		<g display="none">
			<g display="inline">
				<path fill="#FFFFFF" stroke="#000000" stroke-width="4" stroke-miterlimit="10" d="M115.331,99.471l-7.855-70.995
					c-0.603-6.043-5.74-10.878-11.934-10.878H85.422c-4.23-16.614-16.467-29.303-30.967-29.303
					c-14.503,0-26.735,12.688-30.966,29.303h-10.12c-1.81,0-3.322,1.966-3.322,3.776c0,1.813,1.512,3.778,3.322,3.778h8.913
					c-0.304,1.512-0.453,4.079-0.453,6.343c0,1.813,1.509,3.172,3.322,3.172c1.814,0,3.325-1.359,3.325-3.172
					c0-2.264,0.151-4.831,0.453-6.343h51.206c0.303,1.512,0.453,4.079,0.453,6.343c0,1.813,1.512,3.172,3.326,3.172
					c1.812,0,3.323-1.359,3.323-3.172c0-2.264-0.15-4.831-0.456-6.343h8.916c2.715,0,5.135,1.812,5.435,4.684l7.705,70.54
					c0.15,1.509-0.303,3.172-1.359,4.379c-1.056,1.206-2.417,1.964-4.079,1.964H5.515c-1.512,0-3.021-0.907-4.077-2.117
					c-1.058-1.206-1.512-2.719-1.359-4.079L8.84,51.432c0.301-1.81-0.906-3.475-2.57-3.775c-1.812-0.301-3.471,0.907-3.775,2.567
					l-8.761,49.244c-0.304,3.323,0.755,6.799,3.02,9.214c2.267,2.567,5.437,3.927,8.914,3.927h97.881
					c3.325,0,6.646-1.513,8.911-3.927C114.575,106.268,115.634,102.792,115.331,99.471z M30.137,17.598
					C33.912,5.515,43.429-5.21,54.457-5.21S75,5.515,78.776,17.598H30.137z"/>
			</g>
		</g>
		<g display="none">
			<g display="inline">
				<path fill="#FFFFFF" stroke="#000000" stroke-width="4" stroke-miterlimit="10" d="M105.21,1.586L77.417-5.361
					c-1.813-0.454-3.626-0.151-5.136,0.756c-1.513-0.907-3.326-1.212-5.136-0.756L39.201,1.586c-1.059,0.304-1.964,0.757-2.72,1.512
					c-0.757-0.605-1.664-1.207-2.72-1.512L5.816-5.361c-2.112-0.454-4.228,0-6.041,1.209c-1.662,1.359-2.72,3.322-2.72,5.439
					c0,1.658,1.36,3.018,3.023,3.018c1.659,0,3.018-1.36,3.018-3.018c0-0.454,0.304-0.605,0.453-0.756
					C3.704,0.38,4.004,0.229,4.457,0.38l28.247,6.948c0.453,0.149,1.058,0.454,1.058,0.907v65.406
					c-9.064-1.211-12.237-8.461-12.237-23.718c0-1.659-1.509-3.018-3.17-3.018c-1.662,0-2.72,1.359-2.72,3.018
					c0,7.704,0,27.796,18.127,29.759v19.033c0,0.453-0.453,0.603-0.605,0.756c-0.151,0.15-0.604,0.3-1.058,0.15L4.307,92.672
					c-0.454-0.15-0.758-0.453-0.758-0.906V23.187c0-1.659-1.359-3.019-3.018-3.019c-1.663,0-3.023,1.36-3.023,3.019v68.73
					c0,3.173,2.117,6.042,5.135,6.795l27.797,6.949c0.602,0.153,1.057,0.153,1.659,0.153c1.512,0,3.022-0.453,4.23-1.512
					l0.152-0.153l0.149,0.153c1.209,0.903,2.719,1.512,4.229,1.512c0.606,0,1.21,0,1.663-0.153l27.943-6.949
					c0.606-0.15,1.209-0.453,1.814-0.753c0.603,0.3,1.206,0.603,1.812,0.753l27.944,6.949c0.606,0.153,1.211,0.153,1.664,0.153
					c1.509,0,3.016-0.453,4.229-1.512c1.662-1.359,2.567-3.326,2.567-5.438V8.384C110.343,5.063,108.23,2.343,105.21,1.586z
					 M40.257,7.629l28.097-6.646l0,0c0.15,0-0.15-0.301,0-0.301c0,0.301-0.453,0.301-0.453,0.754v28.247
					c-9.066,1.811-16.769,10.422-16.769,20.542c0,11.33-4.38,21.149-11.931,23.416V8.384C39.351,7.931,39.804,7.782,40.257,7.629z
					 M41.013,99.771c-0.453,0.153-0.906,0-1.06-0.15c-0.149-0.15-0.603-0.453-0.603-0.753V79.682
					c10.574-1.963,17.827-14.2,17.827-29.607c0-6.796,4.832-12.688,10.871-14.35v56.192c0,0.301,0.306,0.604,0.454,1.057
					L41.013,99.771z M104.303,98.865c0,0.453-0.15,0.606-0.3,0.754c-0.153,0.151-0.453,0.304-0.756,0.151l-27.794-6.949
					c0-0.3,0.151-0.603,0.151-1.059V35.725c6.041,1.512,9.515,5.89,10.724,11.329l-1.662-1.661c-1.207-1.208-3.023-1.208-4.23,0
					c-1.21,1.208-1.21,3.02,0,4.231l4.683,4.681l-5.286,4.228c-1.21,1.057-1.51,2.872-0.454,4.23
					c0.604,0.756,1.51,1.059,2.266,1.059c0.604,0,1.363-0.153,1.814-0.606l5.738-4.683l5.136,5.136
					c0.606,0.606,1.362,0.907,2.115,0.907c0.759,0,1.509-0.302,2.114-0.907c1.209-1.206,1.209-3.022,0-4.229l-4.682-4.682
					l5.288-4.23c1.207-1.058,1.509-2.869,0.454-4.229c-1.06-1.207-2.87-1.512-4.23-0.453l-3.023,2.418
					c-0.602-9.366-7.702-16.919-16.763-18.732V1.287c0-0.304,0-0.605,0-1.059c0,0,0,0,0.147,0c0.154,0,0.154,0,0.306,0l27.791,6.948
					c0.453,0.152,0.606,0.454,0.606,0.907v90.782H104.303L104.303,98.865z"/>
			</g>
		</g>
		<g display="none">
			<g display="inline">
				<path fill="#FFFFFF" stroke="#000000" stroke-width="4" stroke-miterlimit="10" d="M74.394,29.079
					c1.813-4.079,3.173-8.307,3.173-12.387c0-15.256-10.122-27.642-22.812-27.642c-12.686,0-22.808,12.387-22.808,27.642
					c0,4.533,0.907,8.611,2.267,12.237C21.375,32.252,12.16,44.033,12.16,57.326v36.857c0,1.812,1.208,3.323,3.021,3.323
					c1.814,0,3.02-1.512,3.02-3.323V57.326c0-11.48,9.215-21.448,20.999-22.658l4.983-0.454l-2.717-4.378
					c-2.117-3.476-3.172-8.009-3.172-12.992c0-11.632,7.401-21.148,16.311-21.148c9.064,0,16.313,9.516,16.313,21.148
					c0,5.287-2.262,10.119-4.076,12.992l-2.719,4.378l5.138,0.454c11.48,1.058,19.936,10.877,19.936,22.658v36.857
					c0,1.812,1.21,3.323,3.023,3.323c1.813,0,3.023-1.512,3.023-3.323V57.326C95.242,43.732,86.781,32.401,74.394,29.079z"/>
				<path fill="#FFFFFF" stroke="#000000" stroke-width="4" stroke-miterlimit="10" d="M33.006,97.203l-9.817,9.817
					c-1.21,1.211-1.21,3.326,0,4.533c0.603,0.606,1.509,0.906,2.266,0.906c0.906,0,1.662-0.3,2.267-0.906l9.817-9.818
					c1.211-1.21,1.211-3.323,0-4.532C36.33,95.995,34.216,95.995,33.006,97.203z"/>
				<path fill="#FFFFFF" stroke="#000000" stroke-width="4" stroke-miterlimit="10" d="M54.457,96.298
					c-1.813,0-3.023,1.509-3.023,3.323v9.818c0,1.813,1.21,3.325,3.023,3.325s3.02-1.512,3.02-3.325v-9.818
					C57.477,97.806,56.267,96.298,54.457,96.298z"/>
				<path fill="#FFFFFF" stroke="#000000" stroke-width="4" stroke-miterlimit="10" d="M76.51,97.203
					c-1.21-1.209-3.323-1.209-4.532,0c-1.21,1.209-1.21,3.322,0,4.532l9.817,9.818c0.606,0.606,1.513,0.906,2.266,0.906
					c0.907,0,1.664-0.3,2.267-0.906c1.209-1.21,1.209-3.322,0-4.533L76.51,97.203z"/>
			</g>
		</g>
		<g display="none">
			<g display="inline">
				<path fill="#FFFFFF" stroke="#000000" stroke-width="4" stroke-miterlimit="10" d="M106.567,52.341H32.704
					C31.193,41.767,21.829,33.459,10.5,33.459c-12.388,0-22.356,10.121-22.356,22.508c0,12.384,10.12,22.505,22.356,22.505
					c1.357,0,2.869-0.15,4.229-0.3c1.661-0.303,2.871-1.963,2.567-3.777c-0.301-1.812-1.963-2.87-3.775-2.565
					c-0.907,0.15-1.962,0.303-3.021,0.303c-8.763,0-16.012-7.249-16.012-16.013c0-8.76,7.249-16.012,16.012-16.012
					c8.761,0,16.01,7.252,16.01,16.012c0,3.325-1.056,6.643-3.02,9.364c-1.058,1.359-0.754,3.476,0.755,4.532
					c1.359,1.056,3.476,1.056,4.532-0.453c2.117-3.02,3.475-6.646,4.08-9.667h32.174v9.064c0,1.809,1.209,3.173,3.02,3.173
					s3.023-1.364,3.023-3.173v-9.064h3.019v15.407c0,1.809,1.964,3.169,3.777,3.169c1.809,0,3.775-1.36,3.775-3.169v-15.41h3.022
					v9.064c0,1.812,1.209,3.173,3.02,3.173c1.813,0,3.023-1.363,3.023-3.173v-9.064h3.02V75.3c0,1.812,1.21,3.17,3.023,3.17
					c1.812,0,3.019-1.359,3.019-3.17V59.893h6.798c1.814,0,3.173-1.962,3.173-3.776C109.743,54.305,108.383,52.341,106.567,52.341z"
					/>
			</g>
		</g>
		<g display="none">
			<g display="inline">
				<path fill="#FFFFFF" stroke="#000000" stroke-width="4" stroke-miterlimit="10" d="M82.855,34.517
					c-3.476,0-6.796,0.755-9.668,2.114L40.71,8.536c1.36-2.417,2.116-5.137,2.116-8.156c0-9.214-7.554-16.769-16.769-16.769
					c-0.754,0-1.509,0-2.115,0.154c-1.964,0.299-3.325,1.962-3.021,3.925c0.304,1.964,1.963,3.325,3.927,3.023
					c0.454,0,0.906-0.151,1.208-0.151c5.439,0,9.819,4.38,9.819,9.819c0,5.438-4.38,9.817-9.819,9.817S16.24,5.817,16.24,0.38
					c0-1.209,0.301-2.569,0.755-3.625c0.754-1.813-0.152-3.775-1.966-4.532c-1.812-0.755-3.925,0.149-4.53,1.962
					c-0.755,1.964-1.208,4.08-1.208,6.346c0,9.214,7.551,16.766,16.765,16.766c3.777,0,7.252-1.208,10.121-3.325L67.145,40.86
					c-4.685,4.231-7.705,10.422-7.705,17.372c0,4.382,1.206,8.608,3.473,12.084L27.268,85.271
					c-2.872-4.986-8.308-8.308-14.503-8.308c-9.214,0-16.916,7.552-16.916,16.766c0,9.215,7.553,16.92,16.916,16.92
					c9.214,0,16.769-7.552,16.769-16.92c0-0.603,0-1.207-0.151-1.812l38.062-16.011c4.082,3.626,9.519,5.739,15.41,5.739
					c12.99,0,23.565-10.574,23.565-23.562C106.267,45.092,95.845,34.517,82.855,34.517z M12.614,103.548
					c-5.438,0-9.816-4.382-9.816-9.819c0-5.438,4.378-9.818,9.816-9.818c5.439,0,9.818,4.38,9.818,9.818
					C22.432,99.166,18.053,103.548,12.614,103.548z M82.855,74.547c-9.062,0-16.464-7.402-16.464-16.464
					c0-9.066,7.402-16.468,16.464-16.468c9.061,0,16.463,7.401,16.463,16.468C99.318,67.145,91.916,74.547,82.855,74.547z"/>
			</g>
		</g>
		<g display="none">
			<g display="inline">
				<path fill="#FFFFFF" stroke="#000000" stroke-width="4" stroke-miterlimit="10" d="M95.242,4.305
					c-3.475-3.472-8.461-4.53-12.992-2.72c0,0,0,0-0.15,0L50.074,13.37c-2.112,0.755-3.17,3.173-2.417,5.135
					c0.606,1.663,2.117,2.72,3.775,2.72c0.456,0,0.909-0.149,1.362-0.304l32.026-11.78l0,0c0,0,0,0,0.15,0
					c2.266-0.906,3.926,0.454,4.379,0.907c0.453,0.453,1.814,2.112,0.909,4.378L70.77,62.463L57.024,51.887
					c-0.151,0-0.151-0.151-0.3-0.151c-0.153-0.146-0.304-0.146-0.457-0.3c-0.15,0-0.303-0.153-0.453-0.153s-0.15-0.15-0.303-0.15
					l0,0c-0.15,0-0.3,0-0.453-0.15c-0.15,0-0.15,0-0.303,0c-0.15,0-0.3,0-0.453,0c-0.15,0-0.15,0-0.3,0c-0.153,0-0.303,0-0.453,0.15
					c-0.153,0-0.153,0-0.306,0c-0.15,0-0.3,0.15-0.453,0.15c-0.15,0-0.15,0-0.3,0.153c-0.154,0-0.154,0.154-0.3,0.154
					c-0.153,0-0.153,0.146-0.303,0.299l-0.15,0.154c-0.156,0.146-0.307,0.3-0.307,0.453l0,0c0,0-0.149,0.15-0.149,0.3
					c-0.153,0.151-0.153,0.301-0.304,0.453c0,0.153-0.149,0.303-0.149,0.454c0,0.15-0.151,0.15-0.151,0.3L43.731,78.32l-5.135,2.117
					l10.12-35.197c0-0.149,0-0.149,0-0.302c0-0.152,0-0.301,0.151-0.453c0-0.152,0-0.302,0-0.454c0-0.151,0-0.301,0-0.453
					c0-0.151,0-0.301,0-0.454c0-0.151,0-0.301-0.151-0.453c0-0.152-0.151-0.301-0.151-0.301c0-0.151-0.149-0.304-0.149-0.304
					c0-0.15-0.152-0.301-0.304-0.301c0-0.151-0.149-0.151-0.149-0.301l-12.54-15.861c0-0.152,0-0.301-0.151-0.301
					c-0.604-1.359-1.813-2.267-3.322-2.418c-1.21-0.302-2.416,0-3.473,0.755c-0.151,0.151-0.454,0.304-0.606,0.604
					c-2.114,1.36-3.776,3.325-4.682,5.591L1.892,81.796c-1.965,4.682-0.907,9.667,2.717,13.294c2.419,2.416,5.439,3.622,8.609,3.622
					c1.512,0,3.172-0.3,4.684-0.906L70.014,76.36c3.02-1.211,5.439-3.627,6.648-6.649l21.296-52.113
					C99.922,12.917,98.862,7.931,95.242,4.305z"/>
			</g>
		</g>
		<g display="none">
			<g display="inline">
				<path fill="#FFFFFF" stroke="#000000" stroke-width="4" stroke-miterlimit="10" d="M64.426-7.928
					c-4.233-2.116-9.065-1.511-12.688,1.51l-32.93,26.133c-0.906,0.753-2.114,0.906-3.475,0.906H-1.433
					c-1.814,0-3.324,1.963-3.324,3.776c0,1.812,1.51,3.775,3.324,3.775h16.766c2.72,0,5.439-1.208,7.551-2.869l32.93-26.435
					c1.663-1.359,3.926-1.661,5.892-0.754c1.963,0.906,3.173,2.719,3.173,4.983v92.448c0,2.112-1.21,4.076-3.173,4.982
					c-1.963,0.906-4.229,0.756-5.892-0.603L22.885,73.337c-2.112-1.66-4.832-2.869-7.551-2.869H-1.433
					c-3.021,0-6.043-2.117-6.043-5.135V40.106c0-1.812-1.207-3.322-3.02-3.322c-1.812,0-3.023,1.509-3.023,3.322v25.227
					c0,6.643,5.439,12.684,12.086,12.684h16.766c1.208,0,2.416,0.153,3.475,0.907l32.93,26.284c2.266,1.812,4.833,2.57,7.551,2.57
					c1.813,0,3.323-0.453,5.139-1.213c4.229-2.112,6.646-6.342,6.646-11.021V3.097C71.074-1.584,68.657-5.816,64.426-7.928z"/>
				<path fill="#FFFFFF" stroke="#000000" stroke-width="4" stroke-miterlimit="10" d="M89.65,30.892
					c-1.659,0.754-2.266,2.869-1.509,4.38c2.113,4.38,3.322,9.819,3.322,15.707c0,6.046-1.36,11.934-3.625,16.316
					c-0.907,1.662-0.301,3.626,1.359,4.532c0.453,0.303,1.06,0.453,1.513,0.453c1.206,0,2.265-0.603,2.869-1.813
					c2.869-5.288,4.379-12.237,4.379-19.487c0-6.796-1.359-13.443-4.078-18.579C93.276,30.742,91.314,30.135,89.65,30.892z"/>
				<path fill="#FFFFFF" stroke="#000000" stroke-width="4" stroke-miterlimit="10" d="M105.813,13.066
					c-0.753-1.659-2.869-2.263-4.379-1.509c-1.663,0.755-2.266,2.87-1.512,4.38c4.533,9.063,6.951,20.695,6.951,32.78
					c0,12.688-2.72,24.924-7.705,34.138c-0.906,1.66-0.303,3.626,1.36,4.532c0.453,0.3,1.056,0.451,1.509,0.451
					c1.21,0,2.266-0.604,2.872-1.813c5.439-10.119,8.461-23.412,8.461-37.159C113.516,35.725,110.647,23.037,105.813,13.066z"/>
				<path fill="#FFFFFF" stroke="#000000" stroke-width="4" stroke-miterlimit="10" d="M78.926,41.314
					c-1.663,0.754-2.264,2.871-1.509,4.38c0.752,1.512,1.206,3.775,1.206,5.891c0,2.267-0.454,4.532-1.36,6.193
					c-0.904,1.662-0.299,3.626,1.36,4.529c0.453,0.303,1.056,0.453,1.512,0.453c1.207,0,2.266-0.603,2.873-1.812
					c1.359-2.567,2.112-5.891,2.112-9.365c0-3.172-0.753-6.345-1.964-8.911C82.552,41.162,80.588,40.559,78.926,41.314z"/>
			</g>
		</g>
		<g display="none">
			<g display="inline">
				<path fill="#FFFFFF" stroke="#000000" stroke-width="4" stroke-miterlimit="10" d="M65.634-7.928
					c-4.229-2.116-9.214-1.511-12.843,1.51L19.866,19.715c-0.906,0.753-2.266,0.906-3.476,0.906H-0.375
					c-1.813,0-3.325,1.963-3.325,3.776c0,1.812,1.512,3.775,3.325,3.775H16.39c2.72,0,5.439-1.208,7.553-2.869l32.93-26.435
					c1.663-1.359,4.229-1.661,6.192-0.754c1.964,0.906,3.475,2.719,3.475,4.983v92.448c0,2.112-1.509,4.076-3.475,4.982
					c-1.963,0.906-4.38,0.756-6.041-0.603l-32.93-26.588c-2.116-1.659-4.985-2.869-7.704-2.869H-0.375
					c-3.022,0-5.588-2.116-5.588-5.135V40.106c0-1.812-1.209-3.322-3.022-3.322c-1.814,0-3.022,1.509-3.022,3.322v25.227
					c0,6.643,4.835,12.684,11.632,12.684H16.39c1.21,0,2.418,0.153,3.476,0.907l32.925,26.284c2.267,1.812,4.839,2.57,7.558,2.57
					c1.809,0,3.626-0.453,5.285-1.213c4.229-2.112,6.949-6.342,6.949-11.021V3.097C72.581-1.584,69.861-5.816,65.634-7.928z"/>
				<path fill="#FFFFFF" stroke="#000000" stroke-width="4" stroke-miterlimit="10" d="M101.434,52.494l9.515-9.519
					c1.36-1.36,1.36-3.322,0-4.682c-1.359-1.36-3.325-1.36-4.682,0l-9.515,9.517l-9.518-9.517c-1.359-1.36-3.322-1.36-4.679,0
					c-1.363,1.359-1.363,3.322,0,4.682l9.514,9.519l-9.514,9.514c-1.363,1.362-1.363,3.326,0,4.685c0.6,0.607,1.506,0.91,2.414,0.91
					c0.906,0,1.662-0.303,2.416-0.91l9.518-9.517l9.518,9.517c0.603,0.607,1.509,0.91,2.416,0.91c0.906,0,1.66-0.303,2.416-0.91
					c1.359-1.359,1.359-3.323,0-4.685L101.434,52.494z"/>
			</g>
		</g>
		<g display="none">
			<g display="inline">
				<path fill="#FFFFFF" stroke="#000000" stroke-width="4" stroke-miterlimit="10" d="M109.893,25.152
					c-1.964-2.72-4.985-4.531-8.309-4.531H33.006c-1.509,0-2.869,1.51-2.869,3.02c0,1.512,1.209,3.022,2.869,3.022h68.578
					c1.513,0,2.872,0.754,3.777,1.962c0.903,1.211,1.059,2.87,0.606,4.23L94.033,68.654c-0.606,1.963-2.419,3.323-4.383,3.323
					H38.294c-1.964,0-3.777-1.36-4.382-3.173L10.349,6.119l0,0c0-0.151-0.149-0.151-0.149-0.302c0,0,0-0.152-0.152-0.152
					c0-0.149-0.151-0.149-0.151-0.149L9.745,5.364L9.594,5.212L9.442,5.063l-0.15-0.152c-0.151,0-0.151-0.152-0.304-0.152H8.839
					c-0.151,0-0.151,0-0.304-0.15H8.386c-0.153,0-0.304-0.152-0.304-0.152V4.305h-17.37c-1.512,0-2.871,1.512-2.871,3.022
					c0,1.509,1.21,3.02,2.871,3.02H5.667L28.476,71.22c0.754,2.116,2.417,3.926,4.228,5.139c-1.662,1.962-2.567,4.379-2.567,7.249
					c0,6.192,4.985,11.327,11.33,11.327c6.191,0,11.324-4.832,11.324-11.024c0-2.114-0.6-3.927-1.506-5.44h22.808
					c-0.906,1.513-1.512,3.326-1.512,5.44c0,6.191,4.986,11.18,11.331,11.18c6.342,0,11.33-5.139,11.33-11.33
					c0-2.267-0.756-4.532-1.966-6.196c2.869-1.054,5.289-3.323,6.346-6.493l11.932-35.799
					C112.46,31.495,111.856,27.872,109.893,25.152z M47.055,83.155c0,3.173-2.57,5.59-5.588,5.59c-3.173,0-5.59-2.57-5.59-5.59
					c0-3.172,2.568-5.59,5.59-5.59C44.637,77.416,47.055,79.983,47.055,83.155z M83.761,88.745c-3.173,0-5.592-2.57-5.592-5.59
					c0-3.172,2.57-5.59,5.592-5.59c3.17,0,5.588,2.57,5.588,5.59C89.348,86.177,86.781,88.745,83.761,88.745z"/>
			</g>
		</g>
		<g display="none">
			<g display="inline">
				<path fill="#FFFFFF" stroke="#000000" stroke-width="4" stroke-miterlimit="10" d="M25.604-14.123H0.079
					c-7.402,0-13.598,6.045-13.598,13.598c0,1.813,1.512,3.322,3.325,3.322c1.812,0,3.324-1.812,3.324-3.625
					c0-3.775,3.17-7.249,6.948-7.249h25.526c3.777,0,6.195,3.623,6.195,7.554V25c0,3.777-2.418,6.193-6.195,6.193H0.079
					c-3.778,0-6.948-2.717-6.948-6.648c0-1.813-1.512-3.172-3.324-3.172c-1.814,0.154-3.325,1.813-3.325,3.626
					c0,7.401,6.043,13.745,13.598,13.745h25.526c7.401,0,13.746-6.346,13.746-13.745V-0.526
					C39.351-8.079,33.006-14.123,25.604-14.123z"/>
				<path fill="#FFFFFF" stroke="#000000" stroke-width="4" stroke-miterlimit="10" d="M25.604,55.361H0.079
					c-7.402,0-13.598,5.588-13.598,12.99v25.531c0,7.401,6.043,12.838,13.598,12.838h25.526c7.401,0,13.746-5.288,13.746-12.838
					V68.351C39.351,60.949,33.006,55.361,25.604,55.361z M31.8,93.882c0,3.775-2.418,6.796-6.195,6.796H0.079
					c-3.778,0-7.555-2.872-7.555-6.796V68.351c0-3.775,3.625-6.946,7.555-6.946h25.526c3.777,0,6.195,3.173,6.195,6.946V93.882z"/>
				<path fill="#FFFFFF" stroke="#000000" stroke-width="4" stroke-miterlimit="10" d="M68.955,38.746h25.531
					c7.402,0,12.84-6.346,12.84-13.746V-0.526c0-7.402-5.289-13.598-12.84-13.598H68.955c-7.402,0-12.991,6.045-12.991,13.598V25
					C55.967,32.401,61.553,38.746,68.955,38.746z M62.009-0.526c0-3.778,3.172-7.554,6.946-7.554h25.531
					c3.776,0,6.796,3.623,6.796,7.554V25c0,3.777-2.873,6.193-6.796,6.193H68.955c-3.775,0-6.946-2.417-6.946-6.193V-0.526z"/>
				<path fill="#FFFFFF" stroke="#000000" stroke-width="4" stroke-miterlimit="10" d="M109.437,71.677L91.314,53.55
					c-2.57-2.569-5.892-3.925-9.519-3.925c-3.626,0-6.948,1.357-9.514,3.925L54.154,71.677c-2.569,2.566-3.926,5.888-3.926,9.514
					c0,3.627,1.357,6.949,3.926,9.519l18.127,18.123c2.566,2.57,5.888,3.93,9.514,3.93c3.627,0,6.949-1.36,9.519-3.93l18.123-18.123
					c2.57-2.57,3.929-5.892,3.929-9.519C113.369,77.565,112.008,74.094,109.437,71.677z M104.755,86.027l-18.124,18.124
					c-2.719,2.72-7.102,2.72-9.819,0L58.684,86.027c-2.72-2.719-2.72-7.101,0-9.818l18.127-18.124
					c1.356-1.362,3.172-1.964,4.832-1.964c1.814,0,3.476,0.603,4.835,1.964l18.127,18.124
					C107.476,78.926,107.476,83.308,104.755,86.027z"/>
			</g>
		</g>
		<g display="none">
			<g display="inline">
				<path fill="#FFFFFF" stroke="#000000" stroke-width="4" stroke-miterlimit="10" d="M92.822,35.574L25.303-9.287
					c-5.135-3.325-11.481-3.626-16.916-0.756c-5.29,2.869-8.762,8.46-8.762,14.501c0,2.419,1.963,4.533,4.53,4.533
					c2.567,0,4.533-1.964,4.533-4.533c0-2.871,1.512-5.286,3.926-6.646c2.416-1.36,5.288-1.208,7.706,0.304L87.84,43.127
					c2.113,1.36,3.323,3.626,3.323,6.193s-1.21,4.833-3.323,6.194L20.32,100.525c-2.267,1.512-4.986,1.663-7.401,0.304
					c-2.419-1.359-3.778-3.776-3.778-6.646V35.424c0-2.417-2.114-4.533-4.533-4.533c-2.418,0-4.53,1.962-4.53,4.533v58.759
					c0,6.041,3.172,11.631,8.457,14.501c2.417,1.359,4.985,1.963,7.705,1.963c3.172,0,6.345-0.907,9.062-2.72l67.369-45.012
					c4.532-3.019,7.249-8.156,7.249-13.744C99.922,43.58,97.355,38.746,92.822,35.574z"/>
			</g>
		</g>
		<g display="none">
			<g display="inline">
				<path fill="#FFFFFF" stroke="#000000" stroke-width="4" stroke-miterlimit="10" d="M95.242,2.945
					c-2.42,0-4.532,1.966-4.532,4.383v29.758c0-0.301-0.607-0.755-1.06-1.059l-65.101-43.5C19.714-10.798,13.521-11.1,8.234-8.231
					C3.097-5.512-0.074-0.073-0.074,5.817c0,2.418,1.965,4.38,4.381,4.38c2.415,0,4.38-1.962,4.38-4.38
					c0-2.72,1.359-5.135,3.777-6.343c2.416-1.21,5.135-1.21,7.401,0.301l65.253,43.503c2.113,1.359,3.172,3.626,3.172,6.041
					c0,2.413-1.206,4.683-3.172,6.041L19.866,98.865c-2.266,1.512-4.836,1.66-7.101,0.301c-2.416-1.207-3.624-3.623-3.624-6.343
					V35.877c0-2.417-2.114-4.383-4.533-4.383c-2.418,0-4.53,1.964-4.53,4.383v56.946c0,5.892,3.172,11.328,8.308,14.048
					c2.415,1.207,4.831,1.813,7.551,1.813c3.023,0,6.195-0.906,8.761-2.72L89.65,62.463c0.453-0.303,1.06-0.607,1.06-1.059v31.267
					c0,2.419,2.112,4.382,4.532,4.382c2.417,0,4.529-1.963,4.529-4.382V7.328C99.771,4.911,97.659,2.945,95.242,2.945z"/>
			</g>
		</g>
		<g>
			<g>
				<path fill="#FFFFFF" stroke="#000000" stroke-width="4" stroke-miterlimit="10" d="M91.614-6.57
					c-5.136-2.717-11.178-2.416-16.01,0.754C75.453-5.664,75.3-5.664,75.15-5.512L30.44,24.397
					c-1.964,1.359-2.569,3.927-1.211,5.892c0.756,1.206,2.117,1.963,3.627,1.963c0.754,0,1.662-0.304,2.415-0.757L80.588,1.287l0,0
					c2.267-1.512,5.288-1.512,7.553-0.304c2.413,1.21,4.079,3.625,4.079,6.345v85.495c0,2.72-1.664,4.983-4.079,6.343
					c-2.416,1.21-5.289,1.057-7.402-0.301L16.39,55.967c-1.962-1.359-3.172-3.473-3.172-5.892c0-2.416,1.209-4.53,3.172-5.89
					c1.965-1.36,2.418-3.93,1.21-5.892c-1.359-1.963-3.778-2.568-5.743-1.208c-0.602,0.151-1.204,0.604-1.204,0.906V8.688
					c0-2.417-2.117-4.231-4.533-4.231c-2.416,0-4.532,1.966-4.532,4.231v84.135c0,2.417,2.116,4.232,4.532,4.232
					c2.416,0,4.533-1.963,4.533-4.232V62.16c0,0.303,0.603,0.603,1.056,0.906l64.045,42.748c2.569,1.812,5.589,2.566,8.612,2.566
					c2.565,0,4.832-0.602,7.249-1.813c5.138-2.716,8.008-8.005,8.008-13.744V7.176C99.771,1.437,96.752-3.851,91.614-6.57z"/>
			</g>
		</g>
		<g display="none">
			<g display="inline">
				<path fill="#FFFFFF" stroke="#000000" stroke-width="4" stroke-miterlimit="10" d="M42.371,4.004
					c0-7.553-6.042-13.594-13.595-13.594h-3.02c-7.553,0-13.595,6.041-13.595,13.594v92.145c0,7.549,6.041,13.591,13.595,13.591
					h3.02c7.553,0,13.595-6.042,13.595-13.591V4.004z M34.818,94.486c0,3.473-2.719,6.192-6.191,6.192h-2.719
					c-3.476,0-6.194-2.719-6.194-6.192V2.647c0-3.476,2.718-6.196,6.194-6.196h2.719c3.472,0,6.191,2.72,6.191,6.196V94.486z"/>
				<path fill="#FFFFFF" stroke="#000000" stroke-width="4" stroke-miterlimit="10" d="M87.687,4.004
					c0-7.553-6.042-13.594-13.594-13.594h-3.019c-7.552,0-13.595,6.041-13.595,13.594v92.145c0,7.549,6.043,13.591,13.595,13.591
					h3.019c7.552,0,13.594-6.042,13.594-13.591V4.004z M80.135,94.486c0,3.473-2.717,6.192-6.193,6.192h-2.717
					c-3.472,0-6.192-2.719-6.192-6.192V2.647c0-3.476,2.72-6.196,6.192-6.196h2.717c3.476,0,6.193,2.72,6.193,6.196V94.486z"/>
			</g>
		</g>
		<g display="none">
			<g display="inline">
				<path fill="#FFFFFF" stroke="#000000" stroke-width="4" stroke-miterlimit="10" d="M50.681,89.951
					c11.931,0,21.902-9.667,21.902-21.749V4.156c0-11.933-9.969-21.75-21.902-21.75c-1.812,0-3.476,1.509-3.476,3.322
					c0,1.813,1.211,3.322,3.023,3.322c8.308,0,14.651,6.646,14.651,14.954v64.198c0,7.098-4.53,12.988-10.575,14.653V57.174
					c0-1.813-1.963-3.322-3.776-3.322c-1.812,0-3.776,1.509-3.776,3.322v25.681c-6.042-1.512-10.574-7.252-10.574-13.598V5.063
					c0-1.814-1.962-3.322-3.776-3.322c-1.812,0-3.775,1.509-3.775,3.322v64.193C28.777,80.438,38.898,89.951,50.681,89.951z"/>
				<path fill="#FFFFFF" stroke="#000000" stroke-width="4" stroke-miterlimit="10" d="M86.481,75.906
					c-1.814,0-3.326,1.057-3.326,2.87c0,8.305-6.645,14.5-14.951,14.5H34.216c-8.308,0-14.955-6.192-14.955-14.5
					c0-1.813-1.512-3.173-3.324-3.173c-1.813,0-3.323,0.757-3.323,2.569c-0.149,11.932,9.668,20.996,21.602,20.996h12.688v15.107
					h-5.138c-1.813,0-3.322,1.209-3.322,3.017c0,1.814,1.509,3.023,3.322,3.023h18.883c1.812,0,3.326-1.206,3.326-3.023
					c0-1.809-1.514-3.017-3.326-3.017h-6.193V99.166h13.593c11.937,0,21.753-8.912,21.753-20.846
					C89.803,76.51,88.291,75.906,86.481,75.906z"/>
			</g>
		</g>
		<g display="none">
			<path display="inline" fill="#FFFFFF" stroke="#000000" stroke-width="4" stroke-miterlimit="10" d="M90.86,8.688
				c0-0.151,0.15-0.304,0.15-0.304c0-0.149,0.15-0.149,0.15-0.301c0-0.151-0.3-0.301-0.3-0.301c0-0.153-0.304-0.153-0.304-0.304l0,0
				c0-0.149,0.304-0.149,0.304-0.301c0-0.151,0.15-0.301,0.15-0.301c0-0.152,0-0.152,0-0.304c0-0.149-0.15-0.301-0.3-0.301h-0.154
				l0,0h0.154V6.119c0-0.454,0-0.604,0-0.604c0-0.151-0.154-0.151-0.154-0.304c0-0.149-0.149-0.149-0.149-0.301l0,0l0,0
				c-0.15-0.151-0.15-0.151-0.304-0.151c-0.15,0-0.15-0.15-0.3-0.15c-0.153,0-0.303-0.152-0.303-0.152l-0.151-0.151v-0.15l0,0v0.149
				c-0.15,0-0.3,0-0.3,0c-0.15,0-0.15,0-0.303,0c-0.15,0-0.15,0-0.3,0c-0.153,0-0.303,0-0.453,0H87.84c-0.15,0-0.3,0-0.456,0h-0.149
				c-0.15,0-0.304,0-0.454,0.151l0,0l0,0l0,0L-6.267,43.882c0,0,0,0-0.149,0c-0.154,0-0.154,0.151-0.304,0.151
				s-0.15,0.152-0.304,0.152c-0.149,0-0.149,0.149-0.3,0.149c-0.153,0.152-0.153,0.152-0.304,0.304l-0.149,0.149
				c-0.151,0.152-0.151,0.152-0.151,0.304c0,0.149-0.152,0.149-0.152,0.301c0,0.152-0.149,0.301-0.149,0.301s0,0,0,0.151v0.151
				c0,0.15,0,0.301-0.151,0.454c0,0.15,0,0.15,0,0.301c0,0.152,0,0.301,0,0.301c0,0.152,0,0.152,0,0.304c0,0.149,0,0.149,0,0.301
				c0,0.151,0,0.301,0.151,0.301v0.152l0,0c0.149,0.301,0.301,0.604,0.454,0.754l0.149,0.149c0.151,0.154,0.304,0.304,0.604,0.454
				l0.154,0.154c0.15,0.149,0.454,0.299,0.753,0.299l38.066,12.69l12.688,38.065l0,0c0.151,0.301,0.302,0.604,0.453,0.906
				l0.154,0.151c0.149,0.301,0.453,0.454,0.602,0.604l0,0c0.151,0.15,0.454,0.303,0.607,0.303h0.151c0,0,0.301,0,0.454,0
				c0.301,0.15-0.454,0.15,1.057,0.15v-0.301v1.207H47.81c0.302,0,0.755-0.15,1.059-0.15l0,0c0.299-0.15,0.453-0.15,0.752-0.303
				l0.154-0.15c0.149-0.151,0.453-0.303,0.602-0.453l0.151-0.151c0.153-0.301,0.304-0.454,0.453-0.756l0,0L90.86,8.688h-0.15l0,0
				H90.86z M48.416,90.406l-9.667-29.001l38.668-38.67L48.416,90.406z"/>
		</g>
		<g display="none">
			<g display="inline">
				<path fill="#FFFFFF" stroke="#000000" stroke-width="4" stroke-miterlimit="10" d="M3.55,69.108
					c1.664,0,2.872-1.359,2.872-2.869c0-1.359,0.454-2.57,1.359-3.476L67.445,3.097c1.211-1.207,1.211-3.021,0-4.077
					c-1.207-1.209-3.019-1.209-4.076,0L3.853,58.533c-1.962,1.963-3.172,4.683-3.172,7.555C0.681,67.749,2.041,69.108,3.55,69.108z"
					/>
				<path fill="#FFFFFF" stroke="#000000" stroke-width="4" stroke-miterlimit="10" d="M105.361,12.011L91.614-1.736
					c-1.207-1.208-3.02-1.208-4.078,0c-1.21,1.21-1.21,3.023,0,4.079l13.744,13.746c0.906,0.906,1.36,2.114,1.36,3.475
					c0,1.357-0.454,2.567-1.36,3.473L34.818,89.498c-0.906,0.906-2.114,1.359-3.472,1.359L8.839,94.786
					c-2.57-0.149-4.684-2.264-4.684-4.835c0-1.66-1.357-2.87-2.87-2.87c-1.662,0-2.871,1.362-2.871,2.87
					c0,5.892,4.835,10.727,10.724,10.727H9.44l22.204-3.927c2.719,0,5.289-1.206,7.252-3.172l66.464-66.461
					c1.964-1.964,3.17-4.685,3.17-7.553C108.532,16.844,107.326,14.125,105.361,12.011z"/>
				<path fill="#FFFFFF" stroke="#000000" stroke-width="4" stroke-miterlimit="10" d="M31.8,58.083l7.551,7.551
					c1.963,1.967,4.682,3.17,7.553,3.17c2.871,0,5.588-1.053,7.553-3.17L92.22,27.872c1.207-1.208,1.207-3.022,0-4.08
					c-1.21-1.208-3.023-1.208-4.079,0L50.377,61.555c-1.812,1.814-4.985,1.814-6.948,0l-7.553-7.552
					c-1.964-1.962-1.964-4.985,0-6.948L80.588,2.492c1.207-1.205,1.207-3.018,0-4.078c-1.209-1.208-3.02-1.208-4.078,0L31.8,42.975
					C27.569,47.206,27.569,54.003,31.8,58.083z"/>
			</g>
		</g>
	</g>
</g>
</svg>
