<?xml version="1.0" encoding="utf-8"?>
<!-- Generator: Adobe Illustrator 16.0.4, SVG Export Plug-In . SVG Version: 6.00 Build 0)  -->
<!DOCTYPE svg PUBLIC "-//W3C//DTD SVG 1.1//EN" "http://www.w3.org/Graphics/SVG/1.1/DTD/svg11.dtd">
<svg version="1.1"
	 id="Layer_1" xmlns:cc="http://creativecommons.org/ns#" xmlns:inkscape="http://www.inkscape.org/namespaces/inkscape" xmlns:dc="http://purl.org/dc/elements/1.1/" xmlns:svg="http://www.w3.org/2000/svg" xmlns:sodipodi="http://sodipodi.sourceforge.net/DTD/sodipodi-0.dtd" xmlns:rdf="http://www.w3.org/1999/02/22-rdf-syntax-ns#"
	 xmlns="http://www.w3.org/2000/svg" xmlns:xlink="http://www.w3.org/1999/xlink" x="0px" y="0px" width="960px" height="960px"
	 viewBox="0 0 960 960" enable-background="new 0 0 960 960" xml:space="preserve">
<g transform="translate(0,-288.53332)">
	<path fill="#FFFFFF" stroke="#000000" stroke-width="34" stroke-miterlimit="10" d="M34.411,425.78
		c-18.93-0.245-34.477,14.901-34.723,33.83c-0.246,18.932,14.9,34.477,33.831,34.722c0.297,0.006,0.594,0.006,0.892,0h548.417
		c18.931,0.246,34.478-14.901,34.723-33.83c0.246-18.932-14.898-34.477-33.831-34.723c-0.297-0.005-0.594-0.005-0.892,0
		L34.411,425.78L34.411,425.78z M719.933,425.78c-18.93,0-34.274,15.348-34.275,34.276v396.25
		c-20.278-11.895-43.508-19.217-68.552-19.217C541.791,837.09,480,898.881,480,974.195c0,75.312,61.791,137.102,137.104,137.102
		c72.75,0,132.357-57.799,136.367-129.607c0.521-2.469,0.769-4.979,0.736-7.5V494.324h171.381
		c18.932,0.246,34.477-14.898,34.723-33.83c0.246-18.931-14.9-34.477-33.832-34.722c-0.297-0.003-0.594-0.003-0.891,0
		L719.933,425.78z M34.411,699.989c-18.93-0.246-34.477,14.9-34.723,33.83c-0.246,18.934,14.9,34.477,33.831,34.723
		c0.297,0.005,0.594,0.005,0.892,0h548.417c18.931,0.245,34.478-14.902,34.723-33.83c0.246-18.932-14.898-34.478-33.831-34.723
		c-0.297-0.003-0.594-0.003-0.892,0H34.411z M617.104,905.645c38.268,0,68.553,30.289,68.553,68.554
		c0,38.266-30.285,68.553-68.553,68.553c-38.267,0-68.553-30.287-68.553-68.553C548.552,935.934,578.838,905.645,617.104,905.645z
		 M34.411,974.197c-18.93-0.246-34.477,14.899-34.723,33.83c-0.246,18.934,14.9,34.479,33.831,34.723
		c0.297,0.006,0.594,0.006,0.892,0h342.761c18.932,0.246,34.478-14.898,34.722-33.83c0.247-18.932-14.898-34.477-33.829-34.723
		c-0.3-0.002-0.597-0.002-0.894,0H34.411L34.411,974.197z"/>
</g>
</svg>
