<?xml version="1.0" encoding="utf-8"?>
<!-- Generator: Adobe Illustrator 16.0.4, SVG Export Plug-In . SVG Version: 6.00 Build 0)  -->
<!DOCTYPE svg PUBLIC "-//W3C//DTD SVG 1.1//EN" "http://www.w3.org/Graphics/SVG/1.1/DTD/svg11.dtd">
<svg version="1.1"
	 id="Layer_1" xmlns:dc="http://purl.org/dc/elements/1.1/" xmlns:cc="http://creativecommons.org/ns#" xmlns:rdf="http://www.w3.org/1999/02/22-rdf-syntax-ns#" xmlns:svg="http://www.w3.org/2000/svg" xmlns:sodipodi="http://sodipodi.sourceforge.net/DTD/sodipodi-0.dtd" xmlns:inkscape="http://www.inkscape.org/namespaces/inkscape"
	 xmlns="http://www.w3.org/2000/svg" xmlns:xlink="http://www.w3.org/1999/xlink" x="0px" y="0px" width="960px" height="960px"
	 viewBox="0 0 960 960" enable-background="new 0 0 960 960" xml:space="preserve">
<g transform="translate(0,-952.36218)">
	<path fill="#FFFFFF" d="M112.387,962.982c-54.751,0-99.671,45.102-99.671,100.074v248.308c0,54.972,44.783,100.494,99.671,100.494
		h242.7c54.888,0,100.09-45.384,100.09-100.494v-248.308c0-55.11-45.339-100.074-100.09-100.074H112.387L112.387,962.982z"/>
	<path fill="#FFFFFF" d="M607.009,962.982c-54.751,0-100.092,44.964-100.092,100.074v248.308
		c0,55.11,45.204,100.494,100.092,100.494h242.7c54.889,0,99.671-45.521,99.671-100.494v-248.308
		c0-54.972-44.921-100.074-99.671-100.074H607.009z"/>
	<path fill="#FFFFFF" d="M110.71,1452.866c-54.888,0-100.09,45.386-100.09,100.494v248.311c0,55.109,45.339,100.072,100.09,100.072
		h242.7c54.751,0,99.67-45.103,99.67-100.072V1553.36c0-54.971-44.782-100.492-99.67-100.492h-242.7V1452.866z"/>
	<path fill="#FFFFFF" d="M603.656,1452.866c-54.888,0-100.091,45.386-100.091,100.494v248.311
		c0,55.109,45.34,100.072,100.091,100.072h242.7c54.75,0,99.671-45.103,99.671-100.072V1553.36
		c0-54.971-44.783-100.492-99.671-100.492L603.656,1452.866z"/>
</g>
</svg>
