<?xml version="1.0" encoding="utf-8"?>
<!-- Generator: Adobe Illustrator 16.0.4, SVG Export Plug-In . SVG Version: 6.00 Build 0)  -->
<!DOCTYPE svg PUBLIC "-//W3C//DTD SVG 1.1//EN" "http://www.w3.org/Graphics/SVG/1.1/DTD/svg11.dtd">
<svg version="1.1"
	 id="Layer_1" xmlns:cc="http://creativecommons.org/ns#" xmlns:inkscape="http://www.inkscape.org/namespaces/inkscape" xmlns:dc="http://purl.org/dc/elements/1.1/" xmlns:svg="http://www.w3.org/2000/svg" xmlns:sodipodi="http://sodipodi.sourceforge.net/DTD/sodipodi-0.dtd" xmlns:rdf="http://www.w3.org/1999/02/22-rdf-syntax-ns#"
	 xmlns="http://www.w3.org/2000/svg" xmlns:xlink="http://www.w3.org/1999/xlink" x="0px" y="0px" width="960px" height="960px"
	 viewBox="0 0 960 960" enable-background="new 0 0 960 960" xml:space="preserve">
<path fill="none" stroke="#FFFFFF" stroke-width="40" stroke-linecap="round" stroke-linejoin="round" stroke-miterlimit="10" d="
	M338.598,85.52h529.88c18.228,0,33,18.755,33,41.893v70.446c0,23.138-14.772,41.894-33,41.894H91.521c-18.226,0-33-18.756-33-41.894
	v-70.446c0-23.138,14.774-41.893,33-41.893h83.584"/>
<path fill="none" stroke="#FFFFFF" stroke-width="40" stroke-linecap="round" stroke-linejoin="round" stroke-miterlimit="10" d="
	M58.521,444.777c0-8.51,1.998-16.428,5.432-23.037c5.903-11.36,16.046-18.855,27.568-18.855h776.958c18.228,0,33,18.755,33,41.893
	v70.446c0,23.138-14.772,41.894-33,41.894H91.521c-9.113,0-17.363-4.688-23.334-12.269"/>
<path fill="none" stroke="#FFFFFF" stroke-width="40" stroke-linecap="round" stroke-linejoin="round" stroke-miterlimit="10" d="
	M901.479,832.588c0,23.138-14.772,41.894-33,41.894H91.521c-18.226,0-33-18.756-33-41.894v-70.446c0-23.138,14.774-41.893,33-41.893
	h776.958c18.228,0,33,18.755,33,41.893V832.588z"/>
</svg>
