<?xml version="1.0" encoding="utf-8"?>
<!-- Generator: Adobe Illustrator 16.0.4, SVG Export Plug-In . SVG Version: 6.00 Build 0)  -->
<!DOCTYPE svg PUBLIC "-//W3C//DTD SVG 1.1//EN" "http://www.w3.org/Graphics/SVG/1.1/DTD/svg11.dtd">
<svg version="1.1" id="Layer_1" xmlns="http://www.w3.org/2000/svg" xmlns:xlink="http://www.w3.org/1999/xlink" x="0px" y="0px"
	 width="100px" height="100px" viewBox="0 0 100 100" enable-background="new 0 0 100 100" xml:space="preserve">
<g>
	<g transform="translate(50 50) scale(0.69 0.69) rotate(0) translate(-50 -50)">
		<g display="none">
			<g display="inline">
				<path fill="#FFFFFF" d="M20.862,22.24v-37.322c0-1.836-1.224-3.363-3.06-3.363c-1.836,0-3.058,1.529-3.058,3.363v37.473
					c-4.588,1.376-8.259,5.815-8.259,10.861c0,6.271,5.049,11.474,11.318,11.474c6.272,0,11.32-5.051,11.32-11.474
					C29.122,28.052,25.45,23.767,20.862,22.24z M17.65,37.843c-2.602,0-4.743-2.143-4.743-4.744c0-2.597,2.141-4.741,4.743-4.741
					c2.596,0,4.741,2.141,4.741,4.741C22.391,35.853,20.247,37.843,17.65,37.843z"/>
				<path fill="#FFFFFF" d="M17.801,54.056c-1.835,0-3.059,1.529-3.059,3.363v56.444c0,1.834,1.224,3.364,3.059,3.364
					s3.061-1.531,3.061-3.364V57.419C20.862,55.585,19.639,54.056,17.801,54.056z"/>
				<path fill="#FFFFFF" d="M52.984,54.512v-69.594c0-1.836-1.226-3.363-3.061-3.363s-3.058,1.529-3.058,3.363v69.594
					c-4.59,1.378-8.259,5.811-8.259,10.861c0,6.274,5.046,11.472,11.318,11.472c6.275,0,11.163-5.047,11.163-11.472
					C61.24,60.325,57.573,55.891,52.984,54.512z M49.923,70.114c-2.6,0-4.741-2.14-4.741-4.741c0-2.601,2.141-4.741,4.741-4.741
					c2.602,0,4.742,2.14,4.742,4.741C54.665,67.974,52.525,70.114,49.923,70.114z"/>
				<path fill="#FFFFFF" d="M49.923,86.177c-1.833,0-3.058,1.527-3.058,3.364v24.165c0,1.837,1.224,3.366,3.058,3.366
					c1.835,0,3.061-1.529,3.061-3.366V89.541C52.984,87.704,51.758,86.177,49.923,86.177z"/>
				<path fill="#FFFFFF" d="M85.105-1.928v-13.155c0-1.836-1.227-3.363-3.063-3.363c-1.834,0-3.058,1.529-3.058,3.363v13.307
					c-4.587,1.377-8.107,5.813-8.107,10.861c0,6.271,5.051,11.47,11.318,11.47c6.273,0,11.164-5.046,11.164-11.47
					C93.361,3.884,89.691-0.398,85.105-1.928z M82.195,13.674c-2.599,0-4.741-2.141-4.741-4.741c0-2.602,2.143-4.743,4.741-4.743
					c2.601,0,4.744,2.141,4.744,4.743C86.785,11.685,84.797,13.674,82.195,13.674z"/>
				<path fill="#FFFFFF" d="M82.043,29.886c-1.833,0-3.057,1.531-3.057,3.366v80.61c0,1.834,1.226,3.364,3.057,3.364
					c1.837,0,3.063-1.533,3.063-3.364v-80.61C85.105,31.417,83.878,29.886,82.043,29.886z"/>
			</g>
		</g>
		<g display="none">
			<g display="inline">
				<path fill="#FFFFFF" d="M103.459,12.143c0.153,0,0.153-0.306,0.309-0.306c0.153,0,0.3-0.152,0.3-0.152
					c0.156,0,0.309-0.151,0.309-0.151c0.153,0,0.153-0.152,0.311-0.152c0.3-0.307,0.763-0.614,0.919-0.918
					c0-0.152,0.15-0.152,0.15-0.307c0-0.151,0.153-0.151,0.153-0.307c0-0.153,0-0.304,0.15-0.304c0-0.154,0.156-0.154,0.156-0.309
					c0-0.151,0.154-0.459,0.154-0.611l0,0l0,0c0-0.152-0.154-0.459-0.154-0.614c0-0.153-0.156-0.153-0.156-0.305
					c0-0.154-0.15-0.307-0.15-0.307c0-0.151-0.153-0.151-0.153-0.306c0-0.152-0.15-0.152-0.15-0.306
					c-0.156-0.151-0.31-0.306-0.461-0.459L77.607-21.204c-0.15-0.152-0.304-0.307-0.456-0.459c0,0-0.156-0.154-0.309-0.154
					c-0.15,0-0.303-0.151-0.303-0.151c-0.153,0-0.153,0-0.309-0.151c-0.156,0-0.156,0-0.309-0.154c-0.149,0-0.457,0-0.61,0H12.143
					C4.496-22.578-2.082-16.46-2.082-8.965v117.318c0,7.495,6.578,14.378,14.225,14.378h80.607c7.494,0,13.92-6.881,13.92-14.378
					V32.488c0-1.836-1.986-3.518-3.821-3.518c-1.837,0-3.828,1.531-3.828,3.518v75.865c0,3.674-2.593,6.731-6.27,6.731H12.143
					c-3.671,0-6.578-3.057-6.578-6.731V-8.964c0-3.671,2.752-5.966,6.578-5.966h59.194v13.155c0,7.495,6.576,14.377,14.228,14.377
					h17.284C103,12.603,103.306,12.143,103.459,12.143z M78.984-1.775v-9.024L94.435,4.956h-9.024
					C81.738,4.956,78.984,1.895,78.984-1.775z"/>
				<path fill="#FFFFFF" d="M20.247,12.603h36.711c1.837,0,3.518-1.989,3.518-3.823c0-1.836-1.53-3.822-3.518-3.822H20.247
					c-1.833,0-3.514,1.986-3.514,3.822C16.733,10.615,18.26,12.603,20.247,12.603z"/>
				<path fill="#FFFFFF" d="M87.855,27.135c0-1.836-1.527-3.825-3.517-3.825h-64.24c-1.836,0-3.52,1.989-3.52,3.825
					c0,1.835,1.532,3.822,3.52,3.822h64.243C86.328,30.958,87.855,28.97,87.855,27.135z"/>
				<path fill="#FFFFFF" d="M20.247,49.313h45.891c1.837,0,3.513-1.986,3.513-3.823c0-1.833-1.529-3.825-3.513-3.825H20.247
					c-1.833,0-3.514,1.991-3.514,3.825C16.733,47.326,18.26,49.313,20.247,49.313z"/>
				<path fill="#FFFFFF" d="M78.677,63.846c0-1.836-1.526-3.823-3.518-3.823h-55.06c-1.836,0-3.52,1.987-3.52,3.823
					c0,1.833,1.532,3.823,3.52,3.823h55.06C77.151,67.669,78.677,65.679,78.677,63.846z"/>
				<path fill="#FFFFFF" d="M69.503,82.2c0-1.836-1.529-3.826-3.517-3.826H20.098c-1.836,0-3.52,1.99-3.52,3.826
					c0,1.836,1.532,3.824,3.52,3.824h45.888C67.974,86.024,69.503,84.035,69.503,82.2z"/>
				<path fill="#FFFFFF" d="M20.247,96.732c-1.833,0-3.514,1.987-3.514,3.823c0,1.833,1.529,3.821,3.514,3.821h18.359
					c1.835,0,3.515-1.99,3.515-3.821c0-1.836-1.529-3.823-3.515-3.823H20.247z"/>
			</g>
		</g>
		<g display="none">
			<g display="inline">
				<path fill="#FFFFFF" d="M102.083,11.381c0.149,0,0.149,0.152,0.303,0.152c0.153,0,0.307,0,0.307,0c0.156,0,0.156,0,0.307-0.152
					c0.15,0,0.15,0,0.306-0.156c0.303-0.303,0.761-0.611,0.917-0.917c0-0.151,0.153-0.151,0.153-0.304
					c0-0.152,0.153-0.152,0.153-0.307c0-0.151,0-0.306,0.156-0.306c0-0.154,0-0.305,0.153-0.459c0-0.152,0.15-0.764,0.15-0.764l0,0
					v0.304c0-0.151,0-0.459-0.15-0.611c0-0.151-0.153-0.151-0.153-0.306c0-0.152,0-0.152-0.156-0.306
					c0-0.153-0.153-0.153-0.153-0.309c0-0.151-0.153-0.151-0.153-0.304c-0.156-0.154-0.304-0.306-0.457-0.459L76.54-21.507
					c-0.153-0.15-0.307-0.305-0.461-0.459c-0.153,0-0.153-0.149-0.3-0.149c-0.156,0-0.156-0.154-0.311-0.154
					c-0.15,0-0.309,0-0.309-0.153c-0.149,0-0.149-0.151-0.3-0.151c-0.306,0.151-0.461,0-0.764,0l0,0H11.377
					c-7.495,0-13.459,6.27-13.459,13.612V107.44c0,7.494,5.964,13.614,13.459,13.614h79.998c7.493,0,13.611-6.27,13.611-13.614
					V32.183c0-1.835-1.986-3.363-3.821-3.363s-3.82,1.528-3.82,3.363v75.256c0,3.669-2.297,5.967-5.97,5.967H11.377
					c-3.67,0-7.341-2.296-7.341-5.967V-8.962c0-3.672,3.671-5.968,7.341-5.968H71.34v13.155c0,7.495,5.506,12.848,12.847,12.848
					h17.127C101.622,11.074,101.931,11.381,102.083,11.381z M77.457-1.775v-8.871L93.211,4.956h-8.87
					C80.517,4.956,77.457,1.895,77.457-1.775z"/>
				<path fill="#FFFFFF" d="M19.487,11.074h36.402c1.836,0,3.364-1.223,3.364-3.059c0-1.836-1.529-3.058-3.364-3.058H19.487
					c-1.836,0-3.366,1.223-3.366,3.058C16.12,9.851,17.65,11.074,19.487,11.074z"/>
				<path fill="#FFFFFF" d="M83.268,23.31H19.485c-1.835,0-3.366,1.224-3.366,3.058c0,1.836,1.531,3.059,3.366,3.059h63.783
					c1.837,0,3.366-1.223,3.366-3.059C86.631,24.534,85.105,23.31,83.268,23.31z"/>
				<path fill="#FFFFFF" d="M83.268,41.665H19.485c-1.835,0-3.211,1.225-3.211,3.061v54.606c0,0.15-0.153,0.459,0,0.611
					c0,0.153,0,0.153,0,0.306c0,0.153,0,0.307,0.151,0.307c0,0.153,0.154,0.153,0.154,0.309c0,0.153,0,0.151,0.153,0.307
					c0.306,0.306,0.61,0.763,0.917,0.914c0.152,0,0.152,0.157,0.307,0.157c0.153,0,0.151,0.151,0.306,0.151
					c0.154,0,0.154,0,0.306,0.15c0.151,0,0.151,0,0.306,0.153c0.153,0,0.459,0,0.614,0H83.27c1.837,0,3.364-1.531,3.364-3.364
					v-54.61C86.631,42.886,85.105,41.665,83.268,41.665z M75.62,96.732L54.971,75.776c0.307,0.153,0.611,0,0.92,0
					c0.917,0,1.684-0.456,2.446-1.07l7.035-6.731L80.517,82.66v14.074H75.62V96.732z M46.864,77.611L65.83,96.732H27.745
					L46.864,77.611z M67.822,60.479c-0.616-0.611-1.683-1.069-2.603-1.069c-0.917,0-1.836,0.303-2.446,1.069l-9.181,9.177
					c-0.916,0.92-1.223,2.296-0.916,3.368l-3.362-3.368c-1.377-1.373-3.826-1.373-5.051,0L22.391,91.069V47.785h58.126v25.083
					L67.822,60.479z"/>
			</g>
		</g>
		<g display="none">
			<g display="inline">
				<path fill="#FFFFFF" d="M49.923,20.863c11.626,0,22.18,7.189,26.464,18.05c0.764,1.833,2.753,2.752,4.588,1.988
					c1.837-0.766,2.754-2.754,1.987-4.589c-5.2-13.612-18.509-22.638-33.04-22.638c-19.579,0-35.639,16.061-35.639,35.639
					c0,19.579,16.06,35.64,35.639,35.64c14.687,0,27.685-8.718,33.04-22.331c0.767-1.834-0.15-3.824-1.987-4.588
					c-1.837-0.767-3.824,0.151-4.588,1.987c-4.284,10.708-14.991,17.895-26.464,17.895c-15.755,0-28.45-12.845-28.45-28.45
					C21.473,33.557,34.168,20.863,49.923,20.863z"/>
				<path fill="#FFFFFF" d="M-1.011-6.669c-1.376-1.377-3.671-1.377-5.048,0c-1.377,1.377-1.377,3.671,0,5.048L4.647,9.086
					c0.764,0.766,1.682,1.07,2.445,1.07c0.919,0,1.836-0.305,2.45-1.07c1.375-1.376,1.375-3.67,0-5.048L-1.011-6.669z"/>
				<path fill="#FFFFFF" d="M92.751,10.156c0.917,0,1.837-0.305,2.446-1.07l10.708-10.708c1.374-1.376,1.374-3.671,0-5.048
					c-1.376-1.376-3.673-1.376-5.05,0L90.145,4.038c-1.377,1.376-1.377,3.671,0,5.048C90.914,9.697,91.832,10.156,92.751,10.156z"/>
				<path fill="#FFFFFF" d="M4.648,89.541l-10.707,10.704c-1.377,1.377-1.377,3.673,0,5.051c0.766,0.766,1.683,1.069,2.446,1.069
					c0.766,0,1.836-0.303,2.449-1.069L9.543,94.588c1.374-1.377,1.374-3.669,0-5.046C8.319,88.164,6.025,88.164,4.648,89.541z"/>
				<path fill="#FFFFFF" d="M95.196,89.541c-1.376-1.377-3.668-1.377-5.047,0c-1.376,1.373-1.376,3.668,0,5.047l10.707,10.707
					c0.766,0.766,1.683,1.069,2.45,1.069c0.917,0,1.836-0.303,2.446-1.069c1.378-1.377,1.378-3.673,0-5.05L95.196,89.541z"/>
				<path fill="#FFFFFF" d="M0.06,49.313c0-1.986-1.529-3.058-3.519-3.058h-15.142c-1.986,0-3.518,1.071-3.518,3.058
					c0,1.988,1.532,3.059,3.518,3.059h14.99C-1.623,52.372,0.06,51.301,0.06,49.313z"/>
				<path fill="#FFFFFF" d="M49.923,99.178c-1.986,0-3.058,1.527-3.058,3.518v15.142c0,1.984,1.073,3.516,3.058,3.516
					c1.986,0,3.061-1.531,3.061-3.516v-14.992C52.984,100.861,51.909,99.178,49.923,99.178z"/>
				<path fill="#FFFFFF" d="M49.923-0.551c1.986,0,3.061-1.529,3.061-3.518v-15.143c0-1.988-1.073-3.518-3.061-3.518
					c-1.986,0-3.058,1.53-3.058,3.518v14.991C46.864-2.233,47.937-0.551,49.923-0.551z"/>
				<path fill="#FFFFFF" d="M118.45,46.255h-14.991c-1.987,0-3.518,1.071-3.518,3.058c0,1.988,1.531,3.059,3.518,3.059H118.6
					c1.993,0,3.52-1.071,3.52-3.059C122.12,47.326,120.437,46.255,118.45,46.255z"/>
			</g>
		</g>
		<g display="none">
			<g display="inline">
				<path fill="#FFFFFF" d="M78.374,46.255H63.076c-1.987,0-3.671,1.835-3.671,3.823c0,1.988,1.684,3.823,3.671,3.823h15.298
					c1.984,0,3.668-1.834,3.668-3.823C82.043,48.09,80.358,46.255,78.374,46.255z"/>
				<path fill="#FFFFFF" d="M75.776,63.536c-1.683-1.073-3.98-0.459-4.897,1.226c-5.2,8.871-14.682,14.224-24.93,14.224
					c-15.909,0-28.908-13-28.908-28.908c0-15.908,13-28.908,28.908-28.908c9.942,0,19.273,5.2,24.471,13.612
					c1.067,1.683,3.364,2.141,5.051,1.069c1.683-1.069,2.133-3.363,1.223-5.048c-6.887-10.55-18.359-16.974-30.902-16.974
					c-19.884,0-36.25,16.215-36.25,36.25s16.212,36.252,36.25,36.252c12.694,0,24.775-6.884,31.203-17.895
					C78.066,66.752,77.457,64.456,75.776,63.536z"/>
			</g>
		</g>
		<g display="none">
			<g display="inline">
				<path fill="#FFFFFF" d="M111.72,17.04L86.484-8.197c-4.133-4.129-10.708-4.129-14.841,0L-8.966,72.41
					c-4.131,4.131-4.131,10.708,0,14.835l25.238,25.241c0.459,0.459,1.069,0.611,1.684,0.611c0.611,0,1.223-0.153,1.681-0.611
					c0.919-0.919,0.919-2.296,0-3.213L-5.755,84.035c-2.294-2.294-2.294-6.121,0-8.413l1.836-1.837l16.825,16.825
					c0.918,0.917,2.295,0.917,3.212,0c0.918-0.917,0.918-2.296,0-3.21L-0.706,70.574l5.963-5.964l7.649,7.647
					c0.917,0.92,2.294,0.92,3.212,0c0.916-0.917,0.916-2.293,0-3.213L8.47,61.399l5.967-5.97l16.825,16.828
					c0.918,0.92,2.295,0.92,3.211,0c0.919-0.917,0.919-2.293,0-3.213L17.648,52.221l5.965-5.966l7.648,7.65
					c0.918,0.919,2.294,0.919,3.211,0c0.919-0.919,0.919-2.294,0-3.213l-7.648-7.648l5.963-5.964l16.827,16.825
					c0.918,0.919,2.295,0.919,3.212,0c0.919-0.919,0.919-2.294,0-3.213L36.001,33.868l5.968-5.966l7.646,7.648
					c0.918,0.917,2.294,0.917,3.213,0c0.92-0.919,0.92-2.294,0-3.211l-7.645-7.648l5.966-5.963L67.974,35.55
					c0.919,0.919,2.293,0.919,3.21,0c0.917-0.918,0.917-2.295,0-3.211L54.362,15.513l5.96-5.964l7.653,7.646
					c0.459,0.459,1.067,0.614,1.679,0.614c0.614,0,1.227-0.153,1.687-0.614c0.917-0.919,0.917-2.294,0-3.211l-7.648-7.646
					L69.65,0.37l16.835,16.826c0.456,0.459,1.066,0.614,1.676,0.614c0.614,0,1.227-0.153,1.687-0.614
					c0.917-0.918,0.917-2.294,0-3.211L73.021-2.843l1.836-1.834c2.294-2.295,6.118-2.295,8.411,0l25.238,24.934
					c1.07,1.069,1.68,2.598,1.68,4.128c0,1.532-0.61,3.061-1.68,4.131l-73.879,73.879c-0.919,0.914-0.919,2.293,0,3.21
					c0.459,0.459,1.071,0.61,1.684,0.61c0.609,0,1.223-0.151,1.682-0.61l73.727-73.726C115.846,27.747,115.846,21.17,111.72,17.04z"
					/>
			</g>
		</g>
		<g display="none">
			<g display="inline">
				<path fill="#FFFFFF" d="M104.223,9.697c-0.917-0.918-2.293-0.918-3.211,0c-0.917,0.918-0.917,2.295,0,3.213
					c1.071,1.069,1.53,2.444,1.53,3.821c0,1.376-0.611,2.753-1.53,3.671c0,0,0-0.151-0.156-0.151l-8.715-8.718
					c-0.919-0.919-2.293-0.919-3.211,0c-0.919,0.918-0.919,2.293,0,3.211l8.715,8.718c0,0,0.156,0,0.156,0.151L34.934,86.787
					L17.191,69.042L83.268,2.965c0.919-0.916,0.919-2.292,0-3.211c-0.917-0.917-2.293-0.917-3.211,0L12.295,67.36l0,0
					c-0.151,0.153-0.304,0.46-0.459,0.611c0,0,0,0,0,0.15c0,0,0,0,0,0.156l-10.4,31.36l0,0c0,0.15,0,0.15,0,0.303v0.153v0.15v0.156
					v0.154c0,0.149,0,0.149,0,0.307l0,0l0,0c0,0.15,0.151,0.459,0.308,0.611l0,0c0.151,0.15,0.302,0.306,0.459,0.459
					c0,0,0,0,0.151,0.15c0.152,0.153,0.309,0.153,0.611,0.306l0,0c0.156,0,0.459,0.153,0.766,0.153c0.306,0,0.459,0,0.766-0.153l0,0
					l31.05-10.247c0,0,0,0,0.153,0c0,0,0,0,0.154,0c0.304-0.153,0.459-0.309,0.609-0.459l0,0l67.76-67.761
					c1.837-1.836,2.907-4.436,2.907-7.036C107.13,14.133,106.212,11.533,104.223,9.697z M7.095,96.883l7.801-23.556L30.496,88.93
					L7.095,96.883z"/>
				<path fill="#FFFFFF" d="M80.358,20.404L54.203,46.56c-0.917,0.918-0.917,2.295,0,3.212c0.459,0.459,1.073,0.611,1.686,0.611
					c0.61,0,1.224-0.152,1.684-0.611l26.001-26.155c0.917-0.919,0.917-2.296,0-3.213C82.654,19.486,81.277,19.486,80.358,20.404z"/>
				<path fill="#FFFFFF" d="M45.488,55.279l-8.72,8.718c-0.916,0.917-0.916,2.293,0,3.213c0.459,0.459,1.07,0.613,1.684,0.613
					c0.614,0,1.224-0.154,1.681-0.613l8.721-8.718c0.916-0.917,0.916-2.294,0-3.213C47.937,54.363,46.405,54.363,45.488,55.279z"/>
			</g>
		</g>
		<g display="none">
			<g display="inline">
				<path fill="#FFFFFF" d="M114.623,46.56c-1.067-1.526-24.932-37.781-66.227-37.781c-41.301,0-65.161,36.255-66.231,37.781
					l-0.767,1.225l0.767,1.221c1.069,1.531,24.929,37.782,66.231,37.782c41.295,0,65.16-36.252,66.227-37.782l0.77-1.221
					L114.623,46.56z M48.396,82.2c-34.57,0-56.9-28.143-61.49-34.415c4.59-6.273,26.766-34.416,61.49-34.416
					c34.565,0,56.897,28.143,61.489,34.416C105.295,54.056,83.113,82.2,48.396,82.2z"/>
				<path fill="#FFFFFF" d="M66.596,44.575c-1.226,0-2.294,1.221-2.143,2.444c0,0.308,0,0.611,0,0.766
					c0,8.871-7.188,16.06-16.057,16.06c-8.87,0-16.064-7.187-16.064-16.06c0-8.872,7.193-16.063,16.064-16.063
					c2.904,0,5.808,0.766,8.41,2.448c1.07,0.614,2.447,0.307,3.213-0.764c0.76-1.072,0.303-2.449-0.766-3.212
					c-3.213-1.989-7.037-3.059-10.858-3.059c-11.321,0-20.651,9.33-20.651,20.65c0,11.317,9.33,20.648,20.651,20.648
					c11.317,0,20.647-9.331,20.647-20.648c0-0.307,0-0.766,0-1.072C68.893,45.49,67.822,44.575,66.596,44.575z"/>
			</g>
		</g>
		<g display="none">
			<g display="inline">
				<path fill="#FFFFFF" d="M102.083,101.628l-37.63-37.63c-1.221-1.226-3.213-1.226-4.434,0c-1.224,1.223-1.224,3.213,0,4.438
					l37.782,37.777c0.611,0.611,1.376,0.92,2.294,0.92c0.761,0,1.68-0.309,2.294-0.92
					C103.459,104.838,103.459,102.85,102.083,101.628z"/>
				<path fill="#FFFFFF" d="M33.864,3.272c19.119,0,34.566,15.449,34.566,34.57c0,4.895-0.917,9.481-2.903,13.917
					c-0.767,1.53,0,3.517,1.679,4.128c1.53,0.767,3.518,0,4.134-1.684c2.293-5.201,3.517-10.703,3.517-16.517
					c0-22.484-18.358-40.84-40.841-40.84c-22.484,0-40.842,18.356-40.842,40.84c0,22.482,18.358,40.842,40.842,40.842
					c5.659,0,11.166-1.227,16.517-3.52c1.531-0.764,2.295-2.599,1.684-4.13c-0.767-1.53-2.601-2.293-4.131-1.681
					c-4.436,1.987-9.023,2.904-13.92,2.904C14.742,72.41-0.705,56.962-0.705,37.843C-0.705,18.722,14.744,3.272,33.864,3.272z"/>
			</g>
		</g>
		<g display="none">
			<g display="inline">
				<path fill="#FFFFFF" d="M48.396-8.197c-26.313,0-47.724,21.411-47.724,47.721c0,25.696,43.441,67.149,45.276,68.832l2.6,2.45
					l2.603-2.45c1.833-1.681,45.274-43.136,45.274-68.832C96.114,13.215,74.7-8.197,48.396-8.197z M48.396,100.555
					C35.087,87.554,8.014,57.113,8.014,39.524c0-22.332,18.051-40.381,40.383-40.381c22.329,0,40.377,18.202,40.377,40.381
					C88.774,56.962,61.699,87.554,48.396,100.555z"/>
				<path fill="#FFFFFF" d="M69.959,33.711c-1.984,0.153-3.516,1.991-3.21,3.977c0,0.614,0.156,1.225,0.156,1.836
					c0,10.097-8.26,18.355-18.354,18.355c-10.095,0-18.354-8.258-18.354-18.355c0-10.095,8.258-18.354,18.354-18.354
					c3.819,0,7.341,1.07,10.398,3.211c1.681,1.225,3.977,0.766,5.047-0.918c1.226-1.682,0.767-3.977-0.917-5.046
					c-4.28-3.061-9.33-4.588-14.68-4.588c-14.228,0-25.699,11.471-25.699,25.696c0,14.225,11.471,25.698,25.699,25.698
					c14.222,0,25.696-11.474,25.696-25.698c0-0.916,0-1.681-0.153-2.6C73.784,34.935,71.947,33.406,69.959,33.711z"/>
			</g>
		</g>
		<g display="none">
			<g display="inline">
				<path fill="#FFFFFF" d="M53.902,76.234L31.263,98.872c-6.884,6.883-18.202,6.883-25.238,0c-6.885-6.884-6.885-18.204,0-25.241
					l22.638-22.635c1.375-1.379,1.375-3.673,0-5.051c-1.377-1.376-3.671-1.376-5.05,0L0.975,68.737
					c-9.789,9.791-9.789,25.542,0,35.18c4.895,4.896,11.167,7.343,17.592,7.343c6.423,0,12.695-2.447,17.589-7.343l22.639-22.636
					c1.374-1.376,1.374-3.671,0-5.048C57.419,74.858,55.278,74.858,53.902,76.234z"/>
				<path fill="#FFFFFF" d="M104.223,0.826c-9.791-9.79-25.546-9.79-35.182,0L46.251,23.463c-1.376,1.377-1.376,3.672,0,5.05
					c1.377,1.374,3.671,1.374,5.048,0L73.94,5.875c6.88-6.885,18.201-6.885,25.236,0c6.884,6.881,6.884,18.202,0,25.238
					L76.54,53.598c-1.381,1.376-1.381,3.668,0,5.048c0.763,0.766,1.681,1.069,2.446,1.069c0.767,0,1.837-0.303,2.448-1.069
					l22.634-22.639C113.857,26.37,113.857,10.463,104.223,0.826z"/>
				<path fill="#FFFFFF" d="M23.616,81.281c0.764,0.766,1.681,1.074,2.448,1.074c0.918,0,1.835-0.31,2.446-1.074l52.924-52.923
					c1.379-1.377,1.379-3.671,0-5.047c-1.377-1.377-3.668-1.377-5.047,0L23.616,76.234C22.24,77.611,22.24,79.905,23.616,81.281z"/>
			</g>
		</g>
		<g display="none">
			<g display="inline">
				<path fill="#FFFFFF" d="M52.984,71.337c10.4,0,18.965-8.565,18.965-18.965c0-10.404-8.565-18.968-18.965-18.968
					c-1.684,0-3.061,1.376-3.061,3.059c0,1.683,1.374,3.058,3.061,3.058c7.037,0,12.848,5.812,12.848,12.85
					c0,7.038-5.811,12.847-12.848,12.847c-7.036,0-12.85-5.808-12.85-12.847c0-3.368,1.377-6.578,3.671-9.027
					c1.224-1.221,1.224-3.055,0-4.28c-1.225-1.224-3.06-1.224-4.281,0c-3.518,3.518-5.355,8.26-5.355,13.307
					C34.016,62.772,42.581,71.337,52.984,71.337z"/>
				<path fill="#FFFFFF" d="M116.613,49.313h-13.004c-0.76-12.235-5.353-22.332-12.695-30.59l7.954-7.955
					c1.226-1.221,1.226-3.056,0-4.281c-1.223-1.224-3.051-1.224-4.277,0l-7.954,7.954C78.374,7.098,68.276,2.354,56.042,1.745
					v-13.002c0-1.681-1.376-3.058-3.057-3.058c-1.68,0-3.059,1.376-3.059,3.058v36.405c0,1.685,1.374,3.061,3.059,3.061
					c1.681,0,3.057-1.376,3.057-3.061V7.711c10.705,0.609,19.121,4.741,26.312,11.013l-7.653,7.647
					c-1.219,1.225-1.219,3.061,0,4.282c0.616,0.611,1.379,0.919,2.144,0.919c0.759,0,1.529-0.307,2.137-0.919l7.651-7.648
					c6.27,7.19,10.247,15.602,11.011,26.309H80.21c-1.687,0-3.058,1.378-3.058,3.058c0,1.684,1.371,3.06,3.058,3.06h17.285
					c-0.611,10.705-4.744,19.121-11.011,26.311l-7.653-7.651c-1.227-1.223-3.056-1.223-4.281,0c-1.227,1.23-1.227,3.061,0,4.283
					l7.646,7.651c-7.037,6.274-15.447,10.251-26.155,11.011V79.6c0-1.686-1.376-3.059-3.057-3.059c-1.684,0-3.061,1.373-3.061,3.059
					v17.284c-10.706-0.609-19.119-4.743-26.307-11.014l7.647-7.647c1.224-1.223,1.224-3.058,0-4.28
					c-1.225-1.226-3.059-1.226-4.281,0l-7.649,7.647c-6.27-7.037-10.248-15.452-11.012-26.158h17.284
					c1.683,0,3.059-1.376,3.059-3.06c0-1.68-1.376-3.058-3.059-3.058H8.321c0.611-9.178,4.433-18.967,10.858-26.309l7.648,7.648
					c0.613,0.611,1.377,0.919,2.141,0.919c0.767,0,1.528-0.307,2.143-0.919c1.221-1.224,1.221-3.058,0-4.282L11.225,6.486
					c-1.223-1.224-3.058-1.224-4.281,0c-1.226,1.225-1.226,3.06,0,4.281l7.954,7.955C7.251,27.287,2.815,38.606,2.204,49.313
					h-13.002c-1.684,0-3.06,1.378-3.06,3.059c0,1.684,1.376,3.057,3.06,3.057H2.204c0.761,12.24,5.351,22.335,12.694,30.593
					l-7.803,7.954c-1.223,1.223-1.223,3.057,0,4.283c0.614,0.611,1.377,0.917,2.143,0.917c0.764,0,1.527-0.306,2.138-0.917
					l7.955-7.954c8.258,7.345,18.354,12.081,30.59,12.692V116c0,1.686,1.376,3.063,3.061,3.063c1.68,0,3.057-1.377,3.057-3.063
					v-13.001c12.235-0.764,22.334-5.353,30.592-12.691l7.954,7.954c0.61,0.61,1.379,0.916,2.14,0.916
					c0.767,0,1.531-0.306,2.141-0.916c1.227-1.227,1.227-3.061,0-4.284l-7.954-7.954c7.344-8.26,12.087-18.355,12.697-30.592h13.001
					c1.684,0,3.06-1.376,3.06-3.06C119.671,50.691,118.296,49.313,116.613,49.313z"/>
			</g>
		</g>
		<g display="none">
			<g display="inline">
				<path fill="#FFFFFF" d="M111.105,44.727c-1.837,0-3.056,1.374-3.056,3.211v29.978c0,2.907-2.907,5.05-5.817,5.05H3.73
					c-2.904,0-5.812-2.143-5.812-5.05V47.937c0-1.836-1.224-3.211-3.059-3.211s-3.061,1.374-3.061,3.211v29.977
					c0,6.427,5.508,11.167,11.932,11.167h98.353c6.423,0,11.931-4.741,11.931-11.167V47.937
					C114.166,46.101,112.94,44.727,111.105,44.727z"/>
				<path fill="#FFFFFF" d="M52.984,70.42c1.837,0,3.057-1.376,3.057-3.21V26.829l13.918,13.765c0.61,0.612,1.529,0.919,2.294,0.919
					s1.683-0.306,2.293-0.919c1.227-1.221,1.227-3.211,0-4.588L55.276,16.733c-0.156-0.151-0.307-0.305-0.459-0.459
					c0,0-0.16-0.151-0.311-0.151c-0.15,0-0.15-0.154-0.306-0.154c-0.15,0-0.15,0-0.303-0.152c-0.157,0-0.157,0-0.309-0.151
					c-0.459-0.153-0.919-0.153-1.226,0c-0.15,0-0.15,0-0.303,0.151c-0.156,0-0.156,0-0.306,0.152c-0.154,0-0.154,0.154-0.31,0.154
					c-0.151,0-0.151,0.151-0.303,0.151c-0.304,0.309-0.613,0.614-0.916,0.918c0,0.154-0.156,0.154-0.156,0.309
					c0,0.151-0.151,0.151-0.151,0.306c0,0.154,0,0.154-0.151,0.306c0,0.152,0,0.152-0.156,0.307c0,0.151,0,0.459,0,0.611l0,0V67.21
					C49.923,68.892,51.148,70.42,52.984,70.42z"/>
				<path fill="#FFFFFF" d="M33.708,41.512c0.767,0,1.686-0.306,2.296-0.919l9.637-9.633c1.224-1.226,1.224-3.213,0-4.591
					c-1.225-1.224-3.212-1.224-4.588,0l-9.639,9.638c-1.219,1.224-1.219,3.21,0,4.587C32.026,41.206,32.943,41.512,33.708,41.512z"
					/>
			</g>
		</g>
		<g display="none">
			<g display="inline">
				<path fill="#FFFFFF" d="M111.105,44.727c-1.837,0-3.056,1.374-3.056,3.211v29.978c0,2.907-2.754,5.05-5.817,5.05H3.73
					c-2.904,0-5.812-2.143-5.812-5.05V47.937c0-1.836-1.224-3.211-3.059-3.211s-3.061,1.374-3.061,3.211v29.977
					c0,6.427,5.356,11.167,11.932,11.167h98.502c6.424,0,11.934-4.586,11.934-11.167V47.937
					C114.166,46.101,112.94,44.727,111.105,44.727z"/>
				<path fill="#FFFFFF" d="M41.052,59.868c0.61,0.614,1.376,0.92,2.294,0.92c0.919,0,1.683-0.306,2.295-0.92
					c1.224-1.223,1.224-3.363,0-4.588l-9.637-9.636c-1.225-1.224-3.365-1.224-4.591,0c-1.219,1.226-1.219,3.363,0,4.588
					L41.052,59.868z"/>
				<path fill="#FFFFFF" d="M49.772,67.823c0,0.151,0,0.151,0.151,0.303c0,0.157,0,0.157,0.152,0.307
					c0,0.153,0.156,0.153,0.156,0.309c0,0.15,0.151,0.15,0.151,0.303c0.307,0.31,0.611,0.611,0.917,0.917
					c0.15,0,0.15,0.153,0.306,0.153c0.153,0,0.153,0.153,0.304,0.153c0.156,0,0.156,0,0.309,0.151c0.151,0,0.151,0,0.307,0.154
					c0.151,0,0.459,0,0.61,0s0.46,0,0.611,0c0.156,0,0.156,0,0.306-0.154c0.151,0,0.151,0,0.31-0.151c0.15,0,0.15-0.153,0.303-0.153
					c0.156,0,0.156-0.153,0.306-0.153c0.151-0.15,0.307-0.303,0.459-0.459l19.275-19.272c1.223-1.225,1.223-3.363,0-4.588
					c-1.224-1.224-3.364-1.224-4.591,0L56.196,59.41V19.028c0-1.836-1.226-3.212-3.061-3.212c-1.836,0-3.06,1.376-3.06,3.212V67.21
					l0,0C49.923,67.513,49.772,67.669,49.772,67.823z"/>
			</g>
		</g>
		<g display="none">
			<g display="inline">
				<path fill="#FFFFFF" d="M104.838,23.31H77.457c-2.6,0-4.591-1.377-4.591-3.976V6.486H43.499c-5.661,0-10.4,5.2-10.4,11.014
					v1.835c0,2.599-1.987,3.976-4.588,3.976H1.129c-1.528,0-2.905,1.53-2.905,3.059s1.226,3.061,2.905,3.061H28.51
					c5.658,0,10.707-4.436,10.707-10.098V17.5c0-2.601,1.684-4.896,4.282-4.896h23.25v6.734c0,5.658,5.047,10.091,10.708,10.091
					h27.381c2.594,0,4.738,2.449,4.738,5.05v52.925c0,2.599-2.144,4.894-4.738,4.894H1.129c-2.598,0-4.742-2.143-4.742-4.741
					c0-0.153,0-0.31,0-0.46c0-0.153,0-0.309,0-0.459v-42.83c0-1.529-1.528-2.904-3.056-2.904c-1.533,0-3.059,1.224-3.059,2.904
					v42.523c0,0.15,0.152,0.306,0.307,0.459c0,0.153,0,0.614,0,0.767c0,5.656,4.741,10.705,10.55,10.705h103.857
					c5.66,0,10.86-5.203,10.86-11.014v-52.77C115.694,28.666,110.646,23.31,104.838,23.31z"/>
				<path fill="#FFFFFF" d="M38.911,50.996c-1.377-0.614-3.058-0.153-3.826,1.376c-1.224,2.601-1.987,5.661-1.987,8.565
					c0,10.858,8.873,19.885,19.886,19.885c10.858,0,19.882-8.871,19.882-19.885c0-10.86-8.874-19.886-19.882-19.886
					c-3.368,0-6.578,0.766-9.485,2.448c-1.377,0.766-1.836,2.448-1.07,3.826c0.765,1.376,2.446,1.835,3.822,1.069
					c2.143-1.069,4.438-1.683,6.733-1.683c7.796,0,14.221,6.421,14.221,14.225s-6.425,14.227-14.221,14.227
					c-7.8,0-14.227-6.423-14.227-14.227c0-2.141,0.459-4.281,1.377-6.118C40.9,53.292,40.285,51.608,38.911,50.996z"/>
				<path fill="#FFFFFF" d="M78.523,46.255h16.982c1.527,0,2.907-0.767,2.907-2.295c0-1.529-1.378-2.295-2.907-2.295H78.523
					c-1.527,0-2.903,0.766-2.903,2.295C75.62,45.488,76.843,46.255,78.523,46.255z"/>
				<path fill="#FFFFFF" d="M78.523,63.079h16.982c1.527,0,2.907-0.763,2.907-2.293c0-1.531-1.378-2.294-2.907-2.294H78.523
					c-1.527,0-2.903,0.763-2.903,2.294C75.62,62.316,76.843,63.079,78.523,63.079z"/>
				<path fill="#FFFFFF" d="M78.523,81.434h8.571c1.527,0,2.903-1.529,2.903-3.06c0-1.529-1.223-3.057-2.903-3.057h-8.571
					c-1.527,0-2.903,1.529-2.903,3.057C75.62,79.905,76.843,81.434,78.523,81.434z"/>
			</g>
		</g>
		<g display="none">
			<g display="inline">
				<path fill="#FFFFFF" d="M116.154,100.096L108.2,28.206c-0.614-6.12-5.814-11.015-12.087-11.015H85.867
					c-4.28-16.826-16.674-29.675-31.355-29.675c-14.685,0-27.072,12.849-31.355,29.674H12.908c-1.834,0-3.364,1.991-3.364,3.823
					c0,1.835,1.531,3.826,3.364,3.826h9.025c-0.308,1.53-0.459,4.129-0.459,6.423c0,1.836,1.529,3.211,3.365,3.211
					c1.834,0,3.366-1.376,3.366-3.211c0-2.294,0.152-4.893,0.459-6.423h51.853c0.304,1.53,0.46,4.129,0.46,6.423
					c0,1.836,1.527,3.211,3.364,3.211c1.836,0,3.363-1.376,3.363-3.211c0-2.294-0.15-4.893-0.46-6.423h9.028
					c2.747,0,5.2,1.834,5.504,4.743l7.8,71.431c0.154,1.53-0.309,3.21-1.376,4.433c-1.07,1.227-2.447,1.99-4.133,1.99H4.955
					c-1.532,0-3.06-0.916-4.128-2.14c-1.074-1.223-1.531-2.753-1.377-4.131l8.872-49.707c0.306-1.836-0.918-3.521-2.603-3.824
					c-1.836-0.306-3.514,0.919-3.822,2.601l-8.872,49.865c-0.306,3.363,0.765,6.884,3.059,9.333
					c2.295,2.599,5.505,3.977,9.024,3.977h99.121c3.36,0,6.726-1.534,9.024-3.977C115.393,106.979,116.46,103.459,116.154,100.096z
					 M29.886,17.192C33.708,4.957,43.346-5.905,54.512-5.905c11.165,0,20.805,10.862,24.628,23.096L29.886,17.192L29.886,17.192z"/>
			</g>
		</g>
		<g display="none">
			<g display="inline">
				<path fill="#FFFFFF" d="M105.905,0.978L77.761-6.058c-1.837-0.459-3.668-0.151-5.201,0.766c-1.53-0.919-3.367-1.226-5.2-0.766
					L39.064,0.978c-1.071,0.306-1.99,0.765-2.753,1.53c-0.766-0.613-1.684-1.224-2.754-1.53L5.259-6.058
					c-2.139-0.459-4.281,0-6.118,1.225C-2.543-3.458-3.613-1.47-3.613,0.674c0,1.679,1.377,3.056,3.061,3.056
					c1.679,0,3.056-1.377,3.056-3.056c0-0.459,0.309-0.613,0.459-0.766c0.156-0.151,0.459-0.306,0.918-0.151l28.603,7.037
					c0.459,0.149,1.073,0.458,1.073,0.917v66.23c-9.18-1.226-12.392-8.565-12.392-24.016c0-1.681-1.529-3.056-3.21-3.056
					c-1.684,0-2.753,1.376-2.753,3.056c0,7.803,0,28.147,18.355,30.134v19.272c0,0.459-0.459,0.613-0.614,0.766
					c-0.153,0.154-0.614,0.304-1.073,0.154L3.727,93.211c-0.458-0.15-0.766-0.457-0.766-0.913V22.852
					c0-1.679-1.376-3.056-3.055-3.056c-1.684,0-3.061,1.376-3.061,3.056v69.596c0,3.213,2.143,6.117,5.201,6.881l28.148,7.034
					c0.609,0.159,1.069,0.159,1.679,0.159c1.53,0,3.061-0.461,4.284-1.531l0.152-0.153l0.152,0.153
					c1.225,0.917,2.753,1.531,4.281,1.531c0.615,0,1.226,0,1.684-0.159l28.297-7.034c0.609-0.15,1.223-0.456,1.834-0.763
					c0.611,0.307,1.223,0.613,1.837,0.763l28.295,7.034c0.614,0.159,1.224,0.159,1.684,0.159c1.529,0,3.057-0.461,4.283-1.531
					c1.683-1.376,2.6-3.367,2.6-5.506V7.86C111.105,4.497,108.966,1.743,105.905,0.978z M40.134,7.097l28.452-6.73l0,0
					c0.15,0-0.153-0.306,0-0.306c0,0.306-0.461,0.306-0.461,0.764v28.603c-9.177,1.834-16.975,10.555-16.975,20.802
					c0,11.472-4.437,21.416-12.083,23.706V7.861C39.217,7.402,39.675,7.251,40.134,7.097z M40.9,100.402
					c-0.459,0.153-0.919,0-1.073-0.15c-0.151-0.154-0.61-0.461-0.61-0.767V80.058c10.706-1.99,18.048-14.38,18.048-29.98
					c0-6.882,4.893-12.85,11.011-14.532v56.899c0,0.307,0.31,0.614,0.46,1.074L40.9,100.402z M104.986,99.482
					c0,0.46-0.149,0.614-0.302,0.767c-0.156,0.15-0.461,0.307-0.767,0.15l-28.142-7.035c0-0.307,0.149-0.613,0.149-1.074V35.547
					c6.118,1.531,9.641,5.966,10.861,11.472l-1.68-1.681c-1.227-1.226-3.063-1.226-4.286,0c-1.223,1.223-1.223,3.058,0,4.283
					l4.744,4.744l-5.357,4.28c-1.226,1.07-1.53,2.907-0.46,4.28c0.609,0.767,1.527,1.073,2.293,1.073
					c0.614,0,1.378-0.153,1.837-0.616l5.814-4.74l5.203,5.2c0.611,0.614,1.376,0.917,2.137,0.917c0.767,0,1.53-0.303,2.143-0.917
					c1.22-1.22,1.22-3.056,0-4.28l-4.743-4.743l5.354-4.283c1.226-1.074,1.526-2.906,0.46-4.281
					c-1.071-1.226-2.907-1.533-4.283-0.459l-3.064,2.448c-0.609-9.483-7.797-17.132-16.978-18.969V0.674c0-0.306,0-0.613,0-1.071
					c0,0,0,0,0.154,0c0.156,0,0.156,0,0.309,0l28.142,7.036c0.46,0.153,0.614,0.459,0.614,0.919v91.929h-0.154v-0.004H104.986z"/>
			</g>
		</g>
		<g display="none">
			<g display="inline">
				<path fill="#FFFFFF" d="M74.7,28.817c1.837-4.13,3.213-8.413,3.213-12.543c0-15.448-10.247-27.991-23.095-27.991
					c-12.849,0-23.096,12.543-23.096,27.991c0,4.589,0.916,8.721,2.293,12.392c-13,3.363-22.331,15.295-22.331,28.753v37.323
					c0,1.836,1.224,3.364,3.06,3.364c1.834,0,3.058-1.53,3.058-3.364V57.419c0-11.624,9.331-21.718,21.264-22.943l5.046-0.459
					l-2.752-4.434c-2.143-3.521-3.211-8.11-3.211-13.155c0-11.78,7.495-21.415,16.516-21.415c9.177,0,16.521,9.636,16.521,21.415
					c0,5.353-2.293,10.247-4.13,13.155l-2.753,4.434l5.203,0.459c11.623,1.073,20.185,11.014,20.185,22.943v37.323
					c0,1.836,1.227,3.364,3.063,3.364c1.837,0,3.063-1.53,3.063-3.364V57.419C95.812,43.652,87.242,32.181,74.7,28.817z"/>
				<path fill="#FFFFFF" d="M32.791,97.801l-9.94,9.941c-1.226,1.226-1.226,3.367,0,4.588c0.611,0.614,1.529,0.917,2.295,0.917
					c0.919,0,1.682-0.306,2.294-0.917l9.94-9.944c1.226-1.223,1.226-3.363,0-4.586C36.157,96.576,34.016,96.576,32.791,97.801z"/>
				<path fill="#FFFFFF" d="M54.512,96.883c-1.836,0-3.061,1.529-3.061,3.36v9.944c0,1.837,1.227,3.368,3.061,3.368
					c1.836,0,3.061-1.531,3.061-3.368v-9.944C57.573,98.412,56.348,96.883,54.512,96.883z"/>
				<path fill="#FFFFFF" d="M76.843,97.801c-1.223-1.223-3.363-1.223-4.587,0c-1.226,1.223-1.226,3.363,0,4.587l9.94,9.943
					c0.617,0.614,1.534,0.917,2.296,0.917c0.92,0,1.684-0.306,2.297-0.917c1.226-1.223,1.226-3.363,0-4.586L76.843,97.801z"/>
			</g>
		</g>
		<g display="none">
			<g display="inline">
				<path fill="#FFFFFF" d="M107.283,52.372H32.485c-1.531-10.707-11.013-19.119-22.483-19.119
					c-12.543,0-22.638,10.248-22.638,22.791c0,12.542,10.247,22.789,22.638,22.789c1.375,0,2.904-0.15,4.281-0.303
					c1.683-0.307,2.908-1.989,2.601-3.824c-0.306-1.837-1.988-2.91-3.823-2.603c-0.918,0.151-1.987,0.307-3.059,0.307
					c-8.873,0-16.216-7.341-16.216-16.212c0-8.87,7.343-16.214,16.216-16.214c8.871,0,16.212,7.343,16.212,16.214
					c0,3.364-1.069,6.731-3.059,9.481c-1.071,1.377-0.764,3.521,0.766,4.59c1.376,1.069,3.518,1.069,4.588-0.459
					c2.143-3.058,3.518-6.731,4.131-9.79h32.58v9.18c0,1.833,1.223,3.21,3.057,3.21c1.833,0,3.057-1.377,3.057-3.21v-9.18h3.063
					v15.602c0,1.83,1.984,3.21,3.821,3.21c1.837,0,3.821-1.378,3.821-3.21V60.02h3.06v9.177c0,1.836,1.22,3.213,3.057,3.213
					c1.837,0,3.063-1.377,3.063-3.213V60.02h3.057v15.602c0,1.83,1.226,3.21,3.057,3.21c1.837,0,3.057-1.378,3.057-3.21V60.02h6.884
					c1.837,0,3.211-1.987,3.211-3.824C110.487,54.363,109.119,52.372,107.283,52.372z"/>
			</g>
		</g>
		<g display="none">
			<g display="inline">
				<path fill="#FFFFFF" d="M83.268,34.323c-3.518,0-6.884,0.766-9.791,2.142L40.593,8.015c1.377-2.449,2.141-5.202,2.141-8.258
					c0-9.331-7.648-16.982-16.978-16.982c-0.765,0-1.529,0-2.141,0.156c-1.991,0.303-3.368,1.986-3.061,3.976
					c0.307,1.989,1.989,3.366,3.978,3.061c0.458,0,0.916-0.154,1.223-0.154c5.508,0,9.942,4.436,9.942,9.944
					c0,5.506-4.436,9.943-9.942,9.943c-5.509,0-9.94-4.436-9.94-9.943c0-1.224,0.306-2.601,0.764-3.671
					c0.765-1.836-0.153-3.821-1.99-4.588c-1.835-0.766-3.975,0.152-4.587,1.986C9.239-4.525,8.78-2.385,8.78-0.089
					c0,9.33,7.646,16.979,16.977,16.979c3.826,0,7.343-1.224,10.247-3.367L67.363,40.75c-4.744,4.283-7.801,10.555-7.801,17.589
					c0,4.437,1.22,8.72,3.516,12.237L26.98,85.72c-2.908-5.05-8.413-8.413-14.685-8.413c-9.331,0-17.13,7.646-17.13,16.978
					c0,9.33,7.648,17.131,17.13,17.131c9.33,0,16.982-7.648,16.982-17.131c0-0.611,0-1.223-0.154-1.837L67.666,76.24
					c4.13,3.667,9.641,5.807,15.608,5.807c13.154,0,23.859-10.704,23.859-23.858C106.975,45.034,96.422,34.323,83.268,34.323z
					 M12.143,104.229c-5.508,0-9.943-4.438-9.943-9.944c0-5.508,4.435-9.944,9.943-9.944c5.508,0,9.94,4.436,9.94,9.944
					C22.084,99.788,17.65,104.229,12.143,104.229z M83.268,74.858c-9.175,0-16.672-7.495-16.672-16.675
					c0-9.178,7.497-16.672,16.672-16.672c9.177,0,16.671,7.494,16.671,16.672C99.939,67.363,92.445,74.858,83.268,74.858z"/>
			</g>
		</g>
		<g display="none">
			<g display="inline">
				<path fill="#FFFFFF" d="M95.812,3.731c-3.518-3.516-8.57-4.588-13.158-2.753c0,0,0,0-0.153,0L50.075,12.91
					c-2.138,0.764-3.211,3.211-2.446,5.201c0.614,1.684,2.143,2.753,3.82,2.753c0.46,0,0.92-0.151,1.378-0.306l32.429-11.93l0,0
					c0,0,0,0,0.154,0c2.293-0.916,3.977,0.459,4.437,0.919c0.457,0.459,1.836,2.139,0.917,4.435L71.03,62.62L57.113,51.914
					c-0.156,0-0.156-0.153-0.307-0.153c-0.151-0.15-0.307-0.15-0.46-0.306c-0.15,0-0.306-0.15-0.459-0.15
					c-0.153,0-0.153-0.153-0.31-0.153l0,0c-0.151,0-0.303,0-0.459-0.153c-0.151,0-0.151,0-0.303,0c-0.157,0-0.31,0-0.46,0
					c-0.157,0-0.157,0-0.309,0c-0.15,0-0.309,0-0.461,0.153c-0.15,0-0.15,0-0.306,0c-0.15,0-0.303,0.153-0.459,0.153
					c-0.153,0-0.153,0-0.304,0.15c-0.156,0-0.156,0.153-0.307,0.153c-0.153,0-0.153,0.151-0.309,0.306l-0.15,0.153
					c-0.153,0.153-0.309,0.306-0.309,0.461l0,0c0,0-0.15,0.15-0.15,0.303c-0.151,0.151-0.151,0.307-0.306,0.461
					c0,0.15-0.153,0.306-0.153,0.459c0,0.151-0.153,0.15-0.153,0.306L43.65,78.683l-5.201,2.14L48.7,45.183c0-0.149,0-0.149,0-0.305
					c0-0.151,0-0.307,0.153-0.459c0-0.151,0-0.306,0-0.459c0-0.152,0-0.308,0-0.459c0-0.151,0-0.305,0-0.459
					c0-0.151,0-0.304-0.153-0.459c0-0.151-0.152-0.305-0.152-0.305c0-0.154-0.151-0.307-0.151-0.307
					c0-0.152-0.154-0.306-0.308-0.306c0-0.154-0.151-0.154-0.151-0.309l-12.699-16.06c0-0.151,0-0.305-0.152-0.305
					c-0.611-1.377-1.836-2.295-3.364-2.448c-1.225-0.306-2.446,0-3.518,0.764c-0.152,0.151-0.458,0.306-0.612,0.614
					c-2.143,1.375-3.824,3.366-4.743,5.661L1.285,82.2c-1.99,4.743-0.918,9.788,2.751,13.461c2.448,2.446,5.508,3.668,8.718,3.668
					c1.531,0,3.213-0.306,4.743-0.917l52.77-21.719c3.057-1.223,5.508-3.669,6.728-6.733l21.566-52.77
					C100.552,12.451,99.478,7.402,95.812,3.731z"/>
			</g>
		</g>
		<g display="none">
			<g display="inline">
				<path fill="#FFFFFF" d="M64.609-8.657c-4.287-2.142-9.18-1.531-12.851,1.529L18.415,19.335
					c-0.919,0.762-2.141,0.918-3.518,0.918H-2.082c-1.835,0-3.366,1.988-3.366,3.823s1.531,3.822,3.366,3.822h16.978
					c2.753,0,5.509-1.224,7.647-2.906L55.889-1.775c1.684-1.376,3.974-1.684,5.966-0.765c1.987,0.919,3.213,2.753,3.213,5.047
					v93.612c0,2.14-1.226,4.126-3.213,5.044c-1.99,0.917-4.279,0.767-5.966-0.609L22.543,73.633
					c-2.138-1.681-4.893-2.903-7.647-2.903H-2.082c-3.059,0-6.121-2.143-6.121-5.201V39.983c0-1.836-1.219-3.364-3.056-3.364
					c-1.836,0-3.062,1.528-3.062,3.364v25.546c0,6.731,5.509,12.845,12.237,12.845h16.978c1.224,0,2.446,0.156,3.518,0.917
					l33.343,26.618c2.296,1.833,4.897,2.6,7.647,2.6c1.836,0,3.368-0.459,5.204-1.226c4.286-2.14,6.73-6.423,6.73-11.164V2.508
					C71.34-2.233,68.893-6.517,64.609-8.657z"/>
				<path fill="#FFFFFF" d="M90.15,30.652c-1.681,0.765-2.293,2.905-1.529,4.436c2.144,4.436,3.364,9.94,3.364,15.908
					c0,6.117-1.377,12.081-3.673,16.517c-0.917,1.684-0.301,3.674,1.379,4.588c0.459,0.309,1.074,0.459,1.531,0.459
					c1.223,0,2.293-0.61,2.907-1.831c2.903-5.356,4.433-12.392,4.433-19.732c0-6.884-1.378-13.612-4.13-18.817
					C93.821,30.501,91.832,29.886,90.15,30.652z"/>
				<path fill="#FFFFFF" d="M106.513,12.603c-0.761-1.68-2.904-2.294-4.43-1.529c-1.687,0.764-2.297,2.905-1.531,4.436
					c4.59,9.175,7.037,20.954,7.037,33.192c0,12.847-2.751,25.241-7.801,34.572c-0.92,1.679-0.31,3.668,1.378,4.587
					c0.457,0.303,1.067,0.457,1.529,0.457c1.226,0,2.293-0.614,2.91-1.834c5.501-10.25,8.563-23.708,8.563-37.629
					C114.319,35.547,111.412,22.699,106.513,12.603z"/>
				<path fill="#FFFFFF" d="M79.291,41.206c-1.687,0.766-2.296,2.91-1.53,4.436c0.76,1.531,1.223,3.823,1.223,5.968
					c0,2.293-0.461,4.586-1.377,6.267c-0.911,1.687-0.304,3.674,1.377,4.591c0.457,0.306,1.073,0.459,1.53,0.459
					c1.224,0,2.297-0.609,2.907-1.837c1.376-2.596,2.144-5.966,2.144-9.48c0-3.214-0.768-6.428-1.991-9.025
					C82.961,41.052,80.975,40.442,79.291,41.206z"/>
			</g>
		</g>
		<g display="none">
			<g display="inline">
				<path fill="#FFFFFF" d="M65.83-8.657c-4.284-2.142-9.331-1.531-13.002,1.529l-33.34,26.462
					c-0.919,0.762-2.295,0.918-3.521,0.918H-1.011c-1.836,0-3.366,1.989-3.366,3.823c0,1.835,1.531,3.822,3.366,3.822h16.977
					c2.752,0,5.507-1.224,7.647-2.906L56.958-1.775c1.684-1.376,4.28-1.684,6.274-0.765c1.987,0.919,3.517,2.753,3.517,5.047v93.612
					c0,2.14-1.53,4.126-3.517,5.044c-1.991,0.917-4.437,0.767-6.118-0.609L23.768,73.633c-2.143-1.681-5.05-2.903-7.802-2.903
					H-1.011c-3.061,0-5.659-2.143-5.659-5.201V39.983c0-1.836-1.226-3.364-3.061-3.364c-1.836,0-3.059,1.528-3.059,3.364v25.546
					c0,6.731,4.895,12.845,11.78,12.845h16.977c1.225,0,2.448,0.156,3.518,0.917l33.343,26.618c2.294,1.833,4.897,2.6,7.651,2.6
					c1.834,0,3.671-0.459,5.353-1.226c4.28-2.14,7.037-6.423,7.037-11.164V2.508C72.866-2.233,70.112-6.517,65.83-8.657z"/>
				<path fill="#FFFFFF" d="M102.083,52.526l9.637-9.64c1.376-1.374,1.376-3.362,0-4.74c-1.378-1.377-3.37-1.377-4.746,0
					l-9.635,9.637l-9.638-9.637c-1.373-1.377-3.363-1.377-4.74,0c-1.377,1.376-1.377,3.363,0,4.74l9.64,9.64l-9.64,9.634
					c-1.377,1.376-1.377,3.368,0,4.746c0.613,0.61,1.53,0.917,2.447,0.917c0.92,0,1.684-0.31,2.443-0.917l9.641-9.64l9.638,9.64
					c0.606,0.61,1.523,0.917,2.443,0.917c0.917,0,1.687-0.31,2.448-0.917c1.376-1.377,1.376-3.367,0-4.746L102.083,52.526z"/>
			</g>
		</g>
		<g display="none">
			<g display="inline">
				<path fill="#FFFFFF" d="M110.646,24.84c-1.99-2.753-5.043-4.588-8.414-4.588H32.79c-1.529,0-2.906,1.529-2.906,3.058
					c0,1.53,1.226,3.058,2.906,3.058h69.442c1.534,0,2.91,0.766,3.828,1.989c0.911,1.224,1.07,2.904,0.61,4.281L94.585,68.89
					c-0.609,1.987-2.446,3.364-4.436,3.364H38.145c-1.989,0-3.825-1.377-4.437-3.213L9.847,5.564l0,0
					c0-0.151-0.151-0.151-0.151-0.306c0,0,0-0.153-0.152-0.153c0-0.151-0.154-0.151-0.154-0.151L9.239,4.801L9.085,4.648
					L8.933,4.497L8.781,4.343c-0.154,0-0.154-0.152-0.309-0.152H8.319c-0.152,0-0.152,0-0.307-0.151H7.861
					c-0.154,0-0.309-0.153-0.309-0.153V3.734h-17.588c-1.531,0-2.907,1.531-2.907,3.061c0,1.529,1.226,3.058,2.907,3.058H5.107
					l23.097,61.639c0.764,2.14,2.448,3.977,4.281,5.203c-1.683,1.987-2.601,4.433-2.601,7.338c0,6.274,5.048,11.474,11.475,11.474
					c6.269,0,11.469-4.896,11.469-11.168c0-2.143-0.61-3.976-1.529-5.507h23.098c-0.92,1.531-1.531,3.366-1.531,5.507
					c0,6.274,5.047,11.321,11.475,11.321c6.426,0,11.471-5.2,11.471-11.47c0-2.296-0.764-4.591-1.991-6.274
					c2.907-1.071,5.353-3.366,6.427-6.577l12.082-36.251C113.249,31.263,112.639,27.594,110.646,24.84z M47.017,83.577
					c0,3.211-2.601,5.658-5.658,5.658c-3.213,0-5.662-2.6-5.662-5.658c0-3.213,2.6-5.663,5.662-5.663
					C44.57,77.764,47.017,80.364,47.017,83.577z M84.187,89.235c-3.211,0-5.664-2.6-5.664-5.658c0-3.213,2.601-5.663,5.664-5.663
					c3.208,0,5.661,2.604,5.661,5.663C89.848,86.637,87.242,89.235,84.187,89.235z"/>
			</g>
		</g>
		<g>
			<g>
				<path fill="#FFFFFF" d="M25.296-14.93H-0.553c-7.495,0-13.767,6.118-13.767,13.767c0,1.836,1.53,3.364,3.366,3.364
					c1.836,0,3.366-1.836,3.366-3.671c0-3.822,3.211-7.342,7.037-7.342h25.848c3.826,0,6.275,3.671,6.275,7.648v25.849
					c0,3.826-2.449,6.271-6.275,6.271h-25.85c-3.826,0-7.036-2.751-7.036-6.73c0-1.833-1.531-3.211-3.366-3.211
					c-1.836,0.156-3.367,1.836-3.367,3.671c0,7.495,6.118,13.92,13.767,13.92h25.848c7.495,0,13.92-6.426,13.92-13.92V-1.162
					C39.217-8.812,32.791-14.93,25.296-14.93z"/>
				<path fill="#FFFFFF" d="M25.296,55.432H-0.553c-7.495,0-13.767,5.66-13.767,13.154v25.852c0,7.495,6.118,12.998,13.767,12.998
					h25.848c7.495,0,13.92-5.35,13.92-12.998V68.586C39.217,61.09,32.791,55.432,25.296,55.432z M31.57,94.438
					c0,3.824-2.448,6.881-6.274,6.881H-0.553c-3.826,0-7.65-2.907-7.65-6.881V68.586c0-3.824,3.671-7.037,7.65-7.037h25.848
					c3.826,0,6.274,3.21,6.274,7.037L31.57,94.438L31.57,94.438z"/>
				<path fill="#FFFFFF" d="M69.193,38.606h25.855c7.494,0,13.001-6.425,13.001-13.919V-1.162c0-7.495-5.356-13.767-13.001-13.767
					H69.193c-7.494,0-13.152,6.12-13.152,13.767v25.849C56.041,32.181,61.699,38.606,69.193,38.606z M62.158-1.162
					c0-3.825,3.213-7.647,7.037-7.647h25.855c3.821,0,6.884,3.67,6.884,7.647v25.849c0,3.826-2.91,6.271-6.884,6.271H69.193
					c-3.823,0-7.036-2.445-7.036-6.271V-1.162L62.158-1.162z"/>
				<path fill="#FFFFFF" d="M110.186,71.951L91.832,53.598c-2.601-2.601-5.966-3.977-9.637-3.977c-3.674,0-7.037,1.376-9.635,3.977
					L54.203,71.951c-2.598,2.6-3.974,5.963-3.974,9.637c0,3.673,1.373,7.036,3.974,9.637l18.357,18.352
					c2.599,2.6,5.961,3.976,9.635,3.976c3.671,0,7.034-1.376,9.637-3.976l18.354-18.355c2.601-2.6,3.98-5.967,3.98-9.638
					C114.166,77.914,112.787,74.4,110.186,71.951z M105.449,86.484l-18.355,18.354c-2.753,2.754-7.193,2.754-9.943,0L58.795,86.484
					c-2.754-2.754-2.754-7.193,0-9.943l18.357-18.358c1.371-1.376,3.207-1.987,4.891-1.987c1.837,0,3.524,0.611,4.898,1.987
					l18.354,18.358C108.2,79.291,108.2,83.73,105.449,86.484z"/>
			</g>
		</g>
		<g display="none">
			<g display="inline">
				<path fill="#FFFFFF" d="M93.361,35.394L24.992-10.033c-5.201-3.366-11.625-3.671-17.13-0.766C2.507-7.895-1.01-2.233-1.01,3.884
					c0,2.451,1.988,4.591,4.588,4.591s4.588-1.991,4.588-4.591c0-2.906,1.531-5.353,3.977-6.73c2.446-1.375,5.353-1.223,7.803,0.309
					l68.366,45.579c2.143,1.376,3.371,3.671,3.371,6.271c0,2.601-1.23,4.893-3.371,6.273l-68.366,45.579
					c-2.295,1.533-5.048,1.683-7.495,0.31c-2.448-1.377-3.826-3.821-3.826-6.731V35.24c0-2.448-2.141-4.588-4.588-4.588
					S-0.55,32.64-0.55,35.24v59.502c0,6.118,3.211,11.778,8.564,14.685c2.448,1.373,5.049,1.983,7.803,1.983
					c3.212,0,6.426-0.917,9.178-2.751l68.217-45.581c4.59-3.057,7.344-8.257,7.344-13.917
					C100.552,43.501,97.951,38.606,93.361,35.394z"/>
			</g>
		</g>
		<g display="none">
			<g display="inline">
				<path fill="#FFFFFF" d="M95.812,2.354c-2.451,0-4.59,1.989-4.59,4.437v30.133c0-0.306-0.614-0.766-1.073-1.073L24.227-8.197
					c-4.896-3.366-11.166-3.671-16.52-0.766C2.505-6.21-0.705-0.703-0.705,5.261c0,2.449,1.99,4.436,4.435,4.436
					c2.447,0,4.436-1.986,4.436-4.436c0-2.753,1.376-5.2,3.825-6.423c2.446-1.225,5.201-1.225,7.495,0.307l66.079,44.053
					c2.136,1.377,3.208,3.669,3.208,6.118c0,2.445-1.22,4.741-3.208,6.119l-66.079,44.05c-2.295,1.531-4.897,1.683-7.193,0.306
					c-2.446-1.223-3.671-3.67-3.671-6.42V35.703c0-2.448-2.141-4.437-4.588-4.437s-4.587,1.99-4.587,4.437v57.667
					c0,5.961,3.211,11.467,8.413,14.221c2.446,1.224,4.893,1.837,7.646,1.837c3.061,0,6.275-0.92,8.872-2.754l65.769-44.05
					c0.46-0.306,1.073-0.614,1.073-1.073v31.662c0,2.447,2.14,4.437,4.591,4.437c2.446,0,4.583-1.99,4.583-4.437V6.794
					C100.396,4.343,98.258,2.354,95.812,2.354z"/>
			</g>
		</g>
		<g display="none">
			<g display="inline">
				<path fill="#FFFFFF" d="M92.141-7.282c-5.2-2.751-11.321-2.445-16.217,0.766c-0.149,0.152-0.304,0.152-0.457,0.307
					L30.193,24.077c-1.991,1.377-2.603,3.977-1.226,5.967c0.766,1.22,2.143,1.987,3.671,1.987c0.764,0,1.682-0.309,2.445-0.767
					l45.893-30.59l0,0c2.293-1.531,5.353-1.531,7.647-0.306c2.446,1.225,4.13,3.671,4.13,6.425v86.572
					c0,2.754-1.684,5.047-4.13,6.425c-2.447,1.226-5.354,1.07-7.497-0.309L15.966,56.043c-1.988-1.376-3.213-3.517-3.213-5.966
					c0-2.447,1.225-4.59,3.213-5.966c1.989-1.374,2.448-3.977,1.225-5.966c-1.376-1.989-3.826-2.601-5.815-1.224
					c-0.611,0.153-1.221,0.613-1.221,0.917V8.167c0-2.451-2.143-4.285-4.588-4.285c-2.447,0-4.588,1.989-4.588,4.285v85.198
					c0,2.448,2.141,4.286,4.588,4.286c2.445,0,4.588-1.99,4.588-4.286V62.316c0,0.306,0.61,0.609,1.069,0.916l64.853,43.287
					c2.6,1.837,5.661,2.599,8.72,2.599c2.599,0,4.894-0.611,7.344-1.837c5.2-2.747,8.107-8.104,8.107-13.917V6.636
					C100.396,0.826,97.341-4.528,92.141-7.282z"/>
			</g>
		</g>
		<g display="none">
			<g display="inline">
				<path fill="#FFFFFF" d="M42.274,3.426c0-7.647-6.118-13.766-13.766-13.766H25.45c-7.648,0-13.766,6.119-13.766,13.766v93.306
					c0,7.647,6.118,13.765,13.766,13.765h3.058c7.648,0,13.766-6.121,13.766-13.765V3.426L42.274,3.426z M34.627,95.046
					c0,3.518-2.754,6.273-6.271,6.273h-2.751c-3.521,0-6.273-2.754-6.273-6.273V2.051c0-3.52,2.751-6.275,6.273-6.275h2.751
					c3.516,0,6.271,2.754,6.271,6.275V95.046z"/>
				<path fill="#FFFFFF" d="M88.161,3.426c0-7.647-6.118-13.766-13.764-13.766h-3.06c-7.647,0-13.764,6.119-13.764,13.766v93.306
					c0,7.647,6.117,13.765,13.764,13.765h3.06c7.645,0,13.764-6.121,13.764-13.765V3.426z M80.517,95.046
					c0,3.518-2.754,6.273-6.275,6.273h-2.754c-3.513,0-6.267-2.754-6.267-6.273V2.051c0-3.52,2.757-6.275,6.267-6.275h2.754
					c3.521,0,6.275,2.754,6.275,6.275V95.046z"/>
			</g>
		</g>
		<g display="none">
			<g display="inline">
				<path fill="#FFFFFF" d="M50.689,90.458c12.084,0,22.176-9.79,22.176-22.025V3.579c0-12.085-10.094-22.025-22.176-22.025
					c-1.834,0-3.518,1.529-3.518,3.363c0,1.834,1.226,3.363,3.06,3.363c8.411,0,14.837,6.731,14.837,15.142V68.43
					c0,7.19-4.587,13.154-10.705,14.838V57.266c0-1.837-1.993-3.361-3.827-3.361s-3.822,1.527-3.822,3.361v26.008
					c-6.118-1.533-10.708-7.345-10.708-13.768V4.497c0-1.836-1.988-3.363-3.822-3.363c-1.836,0-3.823,1.529-3.823,3.363V69.5
					C28.51,80.823,38.759,90.458,50.689,90.458z"/>
				<path fill="#FFFFFF" d="M86.941,76.234c-1.836,0-3.367,1.07-3.367,2.907c0,8.413-6.731,14.682-15.141,14.682H34.016
					c-8.412,0-15.143-6.27-15.143-14.682c0-1.837-1.531-3.213-3.366-3.213c-1.835,0-3.364,0.764-3.364,2.601
					c-0.152,12.083,9.789,21.258,21.873,21.258h12.847v15.297h-5.202c-1.836,0-3.363,1.226-3.363,3.06
					c0,1.834,1.527,3.06,3.363,3.06h19.118c1.836,0,3.37-1.226,3.37-3.06c0-1.834-1.534-3.06-3.37-3.06h-6.267V99.788h13.763
					c12.082,0,22.029-9.023,22.029-21.107C90.305,76.846,88.774,76.234,86.941,76.234z"/>
			</g>
		</g>
		<g display="none">
			<path display="inline" fill="#FFFFFF" d="M91.375,8.168c0-0.151,0.153-0.308,0.153-0.308c0-0.15,0.156-0.15,0.156-0.304
				c0-0.154-0.309-0.307-0.309-0.307c0-0.152-0.309-0.152-0.309-0.307l0,0c0-0.151,0.309-0.151,0.309-0.306
				c0-0.154,0.153-0.306,0.153-0.306c0-0.153,0-0.153,0-0.307c0-0.152-0.153-0.307-0.306-0.307h-0.156l0,0h0.156V5.564
				c0-0.459,0-0.611,0-0.611c0-0.152-0.156-0.152-0.156-0.307c0-0.151-0.153-0.151-0.153-0.306l0,0l0,0
				c-0.15-0.154-0.15-0.154-0.306-0.154c-0.154,0-0.154-0.151-0.304-0.151c-0.156,0-0.309-0.153-0.309-0.153l-0.15-0.153v-0.15l0,0
				V3.73c-0.157,0-0.31,0-0.31,0c-0.153,0-0.153,0-0.309,0c-0.153,0-0.153,0-0.3,0c-0.156,0-0.311,0-0.461,0H88.31
				c-0.151,0-0.302,0-0.459,0h-0.153c-0.15,0-0.306,0-0.459,0.153l0,0l0,0l0,0l-94.22,39.92c0,0,0,0-0.151,0
				c-0.156,0-0.156,0.156-0.308,0.156c-0.152,0-0.151,0.151-0.307,0.151c-0.151,0-0.151,0.151-0.302,0.151
				c-0.157,0.151-0.157,0.151-0.307,0.308l-0.151,0.151c-0.154,0.151-0.154,0.151-0.154,0.306c0,0.151-0.151,0.151-0.151,0.306
				c0,0.154-0.151,0.306-0.151,0.306s0,0,0,0.154v0.153c0,0.151,0,0.306-0.153,0.459c0,0.151,0,0.151,0,0.306
				c0,0.154,0,0.305,0,0.305c0,0.154,0,0.154,0,0.307c0,0.151,0,0.151,0,0.307c0,0.154,0,0.306,0.153,0.306v0.153l0,0
				c0.151,0.306,0.306,0.612,0.459,0.765l0.151,0.151c0.151,0.156,0.307,0.307,0.61,0.459l0.156,0.156
				c0.151,0.151,0.459,0.303,0.761,0.303L31.722,62.77l12.848,38.546l0,0c0.153,0.31,0.306,0.614,0.459,0.917l0.154,0.15
				c0.151,0.311,0.459,0.461,0.61,0.611l0,0c0.153,0.154,0.459,0.307,0.613,0.307h0.154c0,0,0.306,0,0.459,0
				c0.306,0.15-0.459,0.15,1.07,0.15v-0.303v1.223h-0.306c0.306,0,0.764-0.153,1.071-0.153l0,0c0.303-0.15,0.459-0.15,0.761-0.306
				l0.156-0.154c0.151-0.153,0.459-0.309,0.611-0.459l0.151-0.151c0.156-0.31,0.308-0.46,0.459-0.767l0,0L91.375,8.168h-0.153l0,0
				H91.375z M48.396,90.914l-9.79-29.365L77.76,22.392L48.396,90.914z"/>
		</g>
		<g display="none">
			<g display="inline">
				<path fill="#FFFFFF" d="M2.964,69.353c1.684,0,2.909-1.378,2.909-2.907c0-1.377,0.457-2.6,1.375-3.517L67.666,2.508
					c1.227-1.224,1.227-3.059,0-4.128c-1.223-1.226-3.057-1.226-4.13,0L3.272,58.643c-1.986,1.989-3.211,4.744-3.211,7.647
					C0.06,67.974,1.436,69.353,2.964,69.353z"/>
				<path fill="#FFFFFF" d="M106.06,11.533L92.139-2.387c-1.226-1.223-3.063-1.223-4.13,0c-1.223,1.225-1.223,3.061,0,4.13
					l13.921,13.92c0.919,0.918,1.376,2.142,1.376,3.518c0,1.375-0.457,2.6-1.376,3.518L34.626,89.999
					c-0.919,0.914-2.142,1.373-3.516,1.373l-22.79,3.98c-2.603-0.153-4.743-2.296-4.743-4.894c0-1.681-1.376-2.904-2.906-2.904
					c-1.682,0-2.906,1.376-2.906,2.904c0,5.964,4.895,10.86,10.861,10.86h0.306l22.484-3.977c2.751,0,5.355-1.223,7.343-3.213
					l67.304-67.3c1.986-1.989,3.204-4.743,3.204-7.648C109.268,16.428,108.049,13.674,106.06,11.533z"/>
				<path fill="#FFFFFF" d="M31.57,58.185l7.647,7.648c1.987,1.99,4.742,3.211,7.648,3.211c2.906,0,5.661-1.07,7.647-3.211
					l38.24-38.239c1.226-1.226,1.226-3.061,0-4.131c-1.224-1.223-3.06-1.223-4.13,0L50.385,61.702c-1.836,1.837-5.048,1.837-7.037,0
					L35.7,54.056c-1.991-1.987-1.991-5.051,0-7.038L80.975,1.895c1.22-1.221,1.22-3.057,0-4.128c-1.226-1.225-3.063-1.225-4.13,0
					L31.57,42.886C27.286,47.172,27.286,54.056,31.57,58.185z"/>
			</g>
		</g>
	</g>
</g>
</svg>
