<?xml version="1.0" encoding="utf-8"?>
<!-- Generator: Adobe Illustrator 16.0.4, SVG Export Plug-In . SVG Version: 6.00 Build 0)  -->
<!DOCTYPE svg PUBLIC "-//W3C//DTD SVG 1.1//EN" "http://www.w3.org/Graphics/SVG/1.1/DTD/svg11.dtd">
<svg version="1.1" id="Layer_1" xmlns="http://www.w3.org/2000/svg" xmlns:xlink="http://www.w3.org/1999/xlink" x="0px" y="0px"
	 width="960px" height="960px" viewBox="0 0 960 960" enable-background="new 0 0 960 960" xml:space="preserve">
<path d="M38.651,271.558c-20.711,0-37.522,16.81-37.522,37.521v341.844c0,20.713,16.811,37.52,37.522,37.52
	c20.713,0,37.521-16.807,37.521-37.52V309.078C76.172,288.368,59.39,271.558,38.651,271.558z M164.748,167.324
	c-20.712,0-37.52,16.81-37.52,37.521v550.313c0,20.71,16.808,37.52,37.52,37.52s37.52-16.81,37.52-37.52V204.845
	C202.268,184.134,185.486,167.324,164.748,167.324z M290.844,38.101c-20.713,0-37.519,16.785-37.519,37.521V884.38
	c0,20.709,16.806,37.52,37.519,37.52c20.712,0,37.52-16.811,37.52-37.52V75.622C328.363,54.886,311.583,38.101,290.844,38.101z
	 M416.94,350.777c-20.713,0-37.52,16.811-37.52,37.521v183.428c0,20.713,16.807,37.523,37.52,37.523s37.519-16.811,37.519-37.523
	V388.299C454.459,367.588,437.679,350.777,416.94,350.777z M921.351,386.199c-20.713,0-37.521,16.808-37.521,37.521v112.564
	c0,20.708,16.808,37.52,37.521,37.52s37.52-16.812,37.52-37.52V423.72C958.87,403.007,942.063,386.199,921.351,386.199z
	 M543.062,167.324c-20.713,0-37.52,16.81-37.52,37.521v550.313c0,20.71,16.807,37.52,37.52,37.52s37.521-16.81,37.521-37.52V204.845
	C580.582,184.134,563.774,167.324,543.062,167.324z M669.158,38.101c-20.713,0-37.52,16.785-37.52,37.521V884.38
	c0,20.709,16.807,37.52,37.52,37.52s37.521-16.811,37.521-37.52V75.622C706.679,54.886,689.871,38.101,669.158,38.101z
	 M795.254,188.187c-20.713,0-37.519,16.808-37.519,37.521v508.614c0,20.709,16.806,37.519,37.519,37.519s37.52-16.81,37.52-37.519
	V225.708C832.773,204.995,815.967,188.187,795.254,188.187z"/>
</svg>
