<?xml version="1.0" encoding="utf-8"?>
<!-- Generator: Adobe Illustrator 16.0.4, SVG Export Plug-In . SVG Version: 6.00 Build 0)  -->
<!DOCTYPE svg PUBLIC "-//W3C//DTD SVG 1.1//EN" "http://www.w3.org/Graphics/SVG/1.1/DTD/svg11.dtd">
<svg version="1.1" id="Layer_1" xmlns="http://www.w3.org/2000/svg" xmlns:xlink="http://www.w3.org/1999/xlink" x="0px" y="0px"
	 width="960px" height="960px" viewBox="0 0 960 960" enable-background="new 0 0 960 960" xml:space="preserve">
<g>
	<g>
		<path fill="#FFFFFF" d="M852.291,466.78L400.453,205.916l-160.012-94.414c-7.356-4.291-16.554-1.838-21.152,5.211
			c-4.291,7.358-1.838,16.554,5.211,21.152l111.886,66.826l477.587,275.271l-682.967,394.21V323.014
			c0-8.583-6.745-15.327-15.327-15.327c-8.584,0-15.327,6.745-15.327,15.327v577.517c0,5.52,3.063,10.424,7.664,13.182
			c2.452,1.229,4.904,2.146,7.664,2.146s5.211-0.611,7.664-2.146l728.641-420.57c4.6-2.758,7.663-7.662,7.663-13.181
			C859.647,474.444,856.892,469.54,852.291,466.78z"/>
		<path fill="#FFFFFF" d="M115.68,216.645c8.582,0,15.327-6.743,15.327-15.327V85.753l7.05,3.985
			c7.357,4.291,16.552,1.838,20.845-5.518c4.291-7.357,1.838-16.553-5.518-20.845l-30.04-17.166c-4.6-2.759-10.729-2.759-15.327,0
			c-4.6,2.758-7.664,7.664-7.664,13.18v142.235C100.353,209.902,107.403,216.645,115.68,216.645z"/>
	</g>
</g>
</svg>
