<?xml version="1.0" encoding="utf-8"?>
<!-- Generator: Adobe Illustrator 16.0.4, SVG Export Plug-In . SVG Version: 6.00 Build 0)  -->
<!DOCTYPE svg PUBLIC "-//W3C//DTD SVG 1.1//EN" "http://www.w3.org/Graphics/SVG/1.1/DTD/svg11.dtd">
<svg version="1.1" id="Layer_1" xmlns="http://www.w3.org/2000/svg" xmlns:xlink="http://www.w3.org/1999/xlink" x="0px" y="0px"
	 width="100px" height="100px" viewBox="0 0 100 100" enable-background="new 0 0 100 100" xml:space="preserve">
<g>
	<g transform="translate(50 50) scale(0.69 0.69) rotate(0) translate(-50 -50)">
		<g display="none">
			<g display="inline">
				<path fill="#FFFFFF" stroke="#000000" stroke-width="4" stroke-miterlimit="10" d="M21.065,22.43v-37.063
					c0-1.823-1.216-3.341-3.039-3.341c-1.824,0-3.037,1.518-3.037,3.341V22.58c-4.556,1.368-8.203,5.776-8.203,10.786
					c0,6.229,5.014,11.393,11.24,11.393c6.227,0,11.242-5.013,11.242-11.393C29.267,28.202,25.62,23.948,21.065,22.43z
					 M17.875,37.924c-2.584,0-4.71-2.126-4.71-4.71c0-2.579,2.126-4.708,4.71-4.708c2.579,0,4.707,2.129,4.707,4.708
					C22.583,35.948,20.454,37.924,17.875,37.924z"/>
				<path fill="#FFFFFF" stroke="#000000" stroke-width="4" stroke-miterlimit="10" d="M18.025,54.024
					c-1.824,0-3.037,1.52-3.037,3.344v56.049c0,1.82,1.214,3.34,3.037,3.34c1.823,0,3.039-1.52,3.039-3.34V57.368
					C21.065,55.544,19.848,54.024,18.025,54.024z"/>
				<path fill="#FFFFFF" stroke="#000000" stroke-width="4" stroke-miterlimit="10" d="M52.964,54.481v-69.114
					c0-1.823-1.216-3.341-3.039-3.341c-1.824,0-3.039,1.518-3.039,3.341v69.114c-4.557,1.366-8.2,5.772-8.2,10.786
					c0,6.227,5.01,11.39,11.239,11.39s11.089-5.012,11.089-11.39C61.164,60.253,57.521,55.847,52.964,54.481z M49.925,69.974
					c-2.582,0-4.709-2.127-4.709-4.707c0-2.583,2.127-4.712,4.709-4.712c2.583,0,4.707,2.129,4.707,4.712
					C54.632,67.847,52.508,69.974,49.925,69.974z"/>
				<path fill="#FFFFFF" stroke="#000000" stroke-width="4" stroke-miterlimit="10" d="M49.925,85.925
					c-1.824,0-3.039,1.517-3.039,3.341v24.001c0,1.823,1.214,3.34,3.039,3.34c1.823,0,3.039-1.517,3.039-3.34V89.266
					C52.964,87.442,51.748,85.925,49.925,85.925z"/>
				<path fill="#FFFFFF" stroke="#000000" stroke-width="4" stroke-miterlimit="10" d="M84.863-1.571v-13.063
					c0-1.823-1.214-3.341-3.039-3.341c-1.823,0-3.04,1.518-3.04,3.341v13.215c-4.556,1.366-8.05,5.772-8.05,10.786
					c0,6.226,5.013,11.39,11.24,11.39c6.232,0,11.088-5.012,11.088-11.39C93.065,4.201,89.418-0.051,84.863-1.571z M81.975,13.923
					c-2.579,0-4.709-2.126-4.709-4.709c0-2.582,2.13-4.709,4.709-4.709c2.587,0,4.71,2.128,4.71,4.709
					C86.532,11.947,84.559,13.923,81.975,13.923z"/>
				<path fill="#FFFFFF" stroke="#000000" stroke-width="4" stroke-miterlimit="10" d="M81.825,30.024
					c-1.82,0-3.04,1.519-3.04,3.342v80.054c0,1.819,1.22,3.339,3.04,3.339c1.824,0,3.04-1.52,3.04-3.339V33.366
					C84.863,31.543,83.649,30.024,81.825,30.024z"/>
			</g>
		</g>
		<g display="none">
			<g display="inline">
				<path fill="#FFFFFF" stroke="#000000" stroke-width="4" stroke-miterlimit="10" d="M103.091,12.403
					c0.15,0,0.15-0.304,0.303-0.304c0.153,0,0.303-0.152,0.303-0.152c0.154,0,0.307-0.151,0.307-0.151c0.15,0,0.15-0.15,0.303-0.15
					c0.303-0.306,0.76-0.611,0.911-0.912c0-0.151,0.15-0.151,0.15-0.304c0-0.151,0.153-0.151,0.153-0.304
					c0-0.152,0-0.303,0.15-0.303c0-0.152,0.154-0.152,0.154-0.305c0-0.15,0.153-0.456,0.153-0.606l0,0l0,0
					c0-0.152-0.153-0.455-0.153-0.609c0-0.152-0.154-0.152-0.154-0.303c0-0.152-0.15-0.305-0.15-0.305
					c0-0.151-0.153-0.151-0.153-0.303c0-0.154-0.15-0.154-0.15-0.304c-0.153-0.153-0.303-0.305-0.457-0.456L77.416-20.709
					c-0.15-0.154-0.3-0.306-0.453-0.456c0,0-0.153-0.152-0.303-0.152c-0.153,0-0.307-0.153-0.307-0.153c-0.15,0-0.15,0-0.303-0.15
					c-0.15,0-0.15,0-0.303-0.154c-0.15,0-0.453,0-0.606,0H12.407C4.809-22.077-1.721-16.001-1.721-8.558V107.95
					c0,7.446,6.53,14.279,14.128,14.279h80.051c7.446,0,13.823-6.833,13.823-14.279V32.608c0-1.824-1.974-3.494-3.799-3.494
					c-1.823,0-3.799,1.521-3.799,3.494v75.342c0,3.646-2.583,6.683-6.227,6.683H12.407c-3.647,0-6.532-3.037-6.532-6.683V-8.558
					c0-3.647,2.733-5.924,6.532-5.924h58.786v13.065c0,7.442,6.529,14.277,14.128,14.277h17.162
					C102.635,12.859,102.938,12.403,103.091,12.403z M78.785-1.418v-8.963L94.129,5.265h-8.963
					C81.52,5.265,78.785,2.226,78.785-1.418z"/>
				<path fill="#FFFFFF" stroke="#000000" stroke-width="4" stroke-miterlimit="10" d="M20.454,12.859h36.458
					c1.823,0,3.496-1.974,3.496-3.797c0-1.824-1.523-3.797-3.496-3.797H20.454c-1.82,0-3.49,1.974-3.49,3.797
					C16.964,10.885,18.481,12.859,20.454,12.859z"/>
				<path fill="#FFFFFF" stroke="#000000" stroke-width="4" stroke-miterlimit="10" d="M87.593,27.291
					c0-1.822-1.514-3.799-3.49-3.799H20.304c-1.823,0-3.493,1.976-3.493,3.799c0,1.823,1.52,3.797,3.493,3.797h63.801
					C86.079,31.087,87.593,29.114,87.593,27.291z"/>
				<path fill="#FFFFFF" stroke="#000000" stroke-width="4" stroke-miterlimit="10" d="M20.454,49.316h45.573
					c1.824,0,3.493-1.974,3.493-3.796c0-1.823-1.517-3.799-3.493-3.799H20.454c-1.82,0-3.49,1.976-3.49,3.799
					C16.964,47.342,18.481,49.316,20.454,49.316z"/>
				<path fill="#FFFFFF" stroke="#000000" stroke-width="4" stroke-miterlimit="10" d="M78.485,63.747
					c0-1.824-1.52-3.797-3.496-3.797H20.304c-1.823,0-3.493,1.973-3.493,3.797c0,1.823,1.52,3.8,3.493,3.8h54.685
					C76.963,67.547,78.485,65.57,78.485,63.747z"/>
				<path fill="#FFFFFF" stroke="#000000" stroke-width="4" stroke-miterlimit="10" d="M69.367,81.975
					c0-1.823-1.516-3.799-3.493-3.799h-45.57c-1.823,0-3.493,1.976-3.493,3.799c0,1.823,1.52,3.799,3.493,3.799h45.573
					C67.851,85.773,69.367,83.798,69.367,81.975z"/>
				<path fill="#FFFFFF" stroke="#000000" stroke-width="4" stroke-miterlimit="10" d="M20.454,96.408
					c-1.82,0-3.49,1.973-3.49,3.796c0,1.823,1.517,3.796,3.49,3.796h18.232c1.823,0,3.492-1.973,3.492-3.796
					c0-1.823-1.519-3.796-3.492-3.796H20.454z"/>
			</g>
		</g>
		<g display="none">
			<g display="inline">
				<path fill="#FFFFFF" stroke="#000000" stroke-width="4" stroke-miterlimit="10" d="M101.721,11.647c0.15,0,0.15,0.15,0.306,0.15
					c0.153,0,0.303,0,0.303,0c0.153,0,0.153,0,0.306-0.15c0.15,0,0.15,0,0.303-0.156c0.303-0.301,0.76-0.606,0.914-0.909
					c0-0.152,0.153-0.152,0.153-0.303c0-0.154,0.15-0.154,0.15-0.306c0-0.151,0-0.303,0.153-0.303c0-0.153,0-0.303,0.153-0.456
					c0-0.151,0.15-0.758,0.15-0.758l0,0V8.76c0-0.154,0-0.456-0.15-0.609c0-0.151-0.153-0.151-0.153-0.303
					c0-0.154,0-0.154-0.153-0.304c0-0.152-0.15-0.152-0.15-0.306c0-0.15-0.153-0.15-0.153-0.303
					c-0.154-0.152-0.304-0.304-0.457-0.455L76.353-21.015c-0.15-0.151-0.303-0.303-0.453-0.456c-0.153,0-0.153-0.15-0.303-0.15
					c-0.153,0-0.153-0.154-0.303-0.154c-0.153,0-0.306,0-0.306-0.152c-0.15,0-0.15-0.151-0.303-0.151c-0.303,0.151-0.459,0-0.761,0
					l0,0H11.645c-7.443,0-13.366,6.226-13.366,13.519v115.596c0,7.445,5.923,13.522,13.366,13.522h79.444
					c7.445,0,13.519-6.23,13.519-13.522V32.302c0-1.824-1.973-3.342-3.799-3.342c-1.823,0-3.796,1.517-3.796,3.342v74.735
					c0,3.647-2.276,5.926-5.927,5.926H11.645c-3.644,0-7.292-2.279-7.292-5.926V-8.558c0-3.647,3.647-5.924,7.292-5.924H71.19
					v13.065c0,7.442,5.47,12.759,12.76,12.759h17.012C101.267,11.341,101.571,11.647,101.721,11.647z M77.266-1.418v-8.81
					L92.915,5.265h-8.81C80.306,5.265,77.266,2.226,77.266-1.418z"/>
				<path fill="#FFFFFF" stroke="#000000" stroke-width="4" stroke-miterlimit="10" d="M19.698,11.341h36.153
					c1.823,0,3.34-1.215,3.34-3.038c0-1.822-1.517-3.038-3.34-3.038H19.698c-1.823,0-3.343,1.216-3.343,3.038
					C16.355,10.126,17.875,11.341,19.698,11.341z"/>
				<path fill="#FFFFFF" stroke="#000000" stroke-width="4" stroke-miterlimit="10" d="M83.039,23.492H19.698
					c-1.823,0-3.343,1.217-3.343,3.04c0,1.824,1.52,3.038,3.343,3.038h63.341c1.824,0,3.343-1.214,3.343-3.038
					C86.382,24.709,84.863,23.492,83.039,23.492z"/>
				<path fill="#FFFFFF" stroke="#000000" stroke-width="4" stroke-miterlimit="10" d="M83.039,41.721H19.698
					c-1.823,0-3.19,1.214-3.19,3.036v54.23c0,0.15-0.153,0.456,0,0.609c0,0.153,0,0.153,0,0.303c0,0.153,0,0.306,0.15,0.306
					c0,0.15,0.153,0.15,0.153,0.303c0,0.153,0,0.153,0.153,0.303c0.303,0.304,0.606,0.761,0.911,0.911
					c0.15,0,0.15,0.153,0.303,0.153c0.153,0,0.153,0.153,0.303,0.153c0.153,0,0.153,0,0.306,0.15c0.15,0,0.15,0,0.303,0.153
					c0.154,0,0.456,0,0.609,0h63.34c1.826,0,3.344-1.52,3.344-3.343V44.758C86.382,42.935,84.863,41.721,83.039,41.721z
					 M75.444,96.408L54.938,75.596c0.304,0.151,0.607,0,0.913,0c0.911,0,1.67-0.454,2.429-1.063l6.987-6.683L80.306,82.43v13.975
					h-4.862V96.408z M46.886,77.42l18.835,18.985H27.899L46.886,77.42z M67.697,60.405c-0.609-0.609-1.67-1.061-2.582-1.061
					s-1.823,0.3-2.432,1.061l-9.113,9.112c-0.913,0.911-1.22,2.28-0.913,3.343l-3.34-3.343c-1.367-1.364-3.8-1.364-5.014,0
					L22.583,90.785V47.798h57.723v24.909L67.697,60.405z"/>
			</g>
		</g>
		<g display="none">
			<g display="inline">
				<path fill="#FFFFFF" stroke="#000000" stroke-width="4" stroke-miterlimit="10" d="M49.925,21.063
					c11.543,0,22.025,7.14,26.278,17.926c0.76,1.821,2.737,2.733,4.557,1.974c1.823-0.761,2.734-2.735,1.973-4.558
					c-5.16-13.518-18.381-22.481-32.809-22.481c-19.444,0-35.393,15.951-35.393,35.393c0,19.441,15.949,35.392,35.393,35.392
					c14.583,0,27.49-8.656,32.809-22.178c0.761-1.823-0.153-3.799-1.973-4.554c-1.823-0.761-3.799,0.15-4.557,1.973
					C71.95,70.583,61.317,77.72,49.925,77.72c-15.646,0-28.254-12.758-28.254-28.254C21.671,33.669,34.279,21.063,49.925,21.063z"/>
				<path fill="#FFFFFF" stroke="#000000" stroke-width="4" stroke-miterlimit="10" d="M-0.657-6.279
					c-1.367-1.368-3.647-1.368-5.013,0c-1.369,1.367-1.369,3.647,0,5.013L4.963,9.368c0.757,0.758,1.669,1.062,2.429,1.062
					c0.911,0,1.824-0.304,2.431-1.062c1.366-1.368,1.366-3.647,0-5.014L-0.657-6.279z"/>
				<path fill="#FFFFFF" stroke="#000000" stroke-width="4" stroke-miterlimit="10" d="M92.458,10.43
					c0.911,0,1.824-0.304,2.43-1.062l10.633-10.634c1.366-1.366,1.366-3.646,0-5.013c-1.367-1.368-3.65-1.368-5.013,0L89.875,4.353
					c-1.369,1.368-1.369,3.647,0,5.014C90.636,9.974,91.545,10.43,92.458,10.43z"/>
				<path fill="#FFFFFF" stroke="#000000" stroke-width="4" stroke-miterlimit="10" d="M4.963,89.266L-5.67,99.898
					c-1.369,1.369-1.369,3.647,0,5.013c0.759,0.761,1.67,1.063,2.429,1.063c0.761,0,1.823-0.301,2.431-1.063L9.824,94.278
					c1.366-1.367,1.366-3.646,0-5.012C8.608,87.898,6.329,87.898,4.963,89.266z"/>
				<path fill="#FFFFFF" stroke="#000000" stroke-width="4" stroke-miterlimit="10" d="M94.888,89.266
					c-1.369-1.37-3.646-1.37-5.013,0c-1.369,1.366-1.369,3.643,0,5.012l10.633,10.633c0.759,0.761,1.672,1.063,2.43,1.063
					c0.913,0,1.823-0.301,2.43-1.063c1.369-1.366,1.369-3.644,0-5.013L94.888,89.266z"/>
				<path fill="#FFFFFF" stroke="#000000" stroke-width="4" stroke-miterlimit="10" d="M0.405,49.316
					c0-1.974-1.517-3.037-3.493-3.037h-15.039c-1.973,0-3.493,1.064-3.493,3.037c0,1.975,1.52,3.038,3.493,3.038h14.886
					C-1.265,52.354,0.405,51.291,0.405,49.316z"/>
				<path fill="#FFFFFF" stroke="#000000" stroke-width="4" stroke-miterlimit="10" d="M49.925,98.835
					c-1.973,0-3.039,1.519-3.039,3.494v15.039c0,1.97,1.066,3.493,3.039,3.493c1.974,0,3.039-1.521,3.039-3.493v-14.886
					C52.964,100.507,51.899,98.835,49.925,98.835z"/>
				<path fill="#FFFFFF" stroke="#000000" stroke-width="4" stroke-miterlimit="10" d="M49.925-0.204
					c1.974,0,3.039-1.517,3.039-3.494v-15.038c0-1.973-1.064-3.493-3.039-3.493c-1.973,0-3.039,1.52-3.039,3.493V-3.85
					C46.886-1.875,47.952-0.204,49.925-0.204z"/>
				<path fill="#FFFFFF" stroke="#000000" stroke-width="4" stroke-miterlimit="10" d="M117.977,46.278h-14.886
					c-1.977,0-3.496,1.064-3.496,3.037c0,1.976,1.519,3.037,3.496,3.037h15.036c1.976,0,3.493-1.061,3.493-3.037
					C121.622,47.342,119.953,46.278,117.977,46.278z"/>
			</g>
		</g>
		<g display="none">
			<g display="inline">
				<path fill="#FFFFFF" stroke="#000000" stroke-width="4" stroke-miterlimit="10" d="M78.179,46.278H62.987
					c-1.973,0-3.646,1.823-3.646,3.797c0,1.976,1.673,3.799,3.646,3.799h15.192c1.974,0,3.646-1.823,3.646-3.799
					C81.825,48.101,80.153,46.278,78.179,46.278z"/>
				<path fill="#FFFFFF" stroke="#000000" stroke-width="4" stroke-miterlimit="10" d="M75.599,63.444
					c-1.672-1.066-3.953-0.457-4.863,1.213c-5.163,8.812-14.582,14.128-24.761,14.128c-15.799,0-28.708-12.91-28.708-28.71
					c0-15.798,12.909-28.707,28.708-28.707c9.876,0,19.141,5.164,24.305,13.518c1.06,1.67,3.34,2.126,5.014,1.061
					c1.669-1.061,2.122-3.339,1.213-5.012C69.674,20.456,58.28,14.074,45.822,14.074c-19.745,0-35.998,16.103-35.998,36
					c0,19.898,16.099,36,35.998,36c12.608,0,24.609-6.836,30.988-17.772C77.872,66.633,77.266,64.354,75.599,63.444z"/>
			</g>
		</g>
		<g display="none">
			<g display="inline">
				<path fill="#FFFFFF" stroke="#000000" stroke-width="4" stroke-miterlimit="10" d="M111.291,17.266L86.229-7.797
					c-4.102-4.102-10.63-4.102-14.736,0l-80.048,80.05c-4.102,4.103-4.102,10.633,0,14.733l25.064,25.065
					c0.456,0.456,1.061,0.609,1.67,0.609c0.609,0,1.214-0.153,1.67-0.609c0.911-0.91,0.911-2.28,0-3.192L-5.367,83.798
					c-2.277-2.279-2.277-6.077,0-8.353l1.823-1.823l16.709,16.709c0.911,0.909,2.279,0.909,3.19,0c0.911-0.911,0.911-2.279,0-3.187
					L-0.354,70.43l5.923-5.923l7.596,7.593c0.911,0.91,2.279,0.91,3.19,0c0.911-0.91,0.911-2.279,0-3.19l-7.596-7.593l5.926-5.924
					L31.394,72.1c0.911,0.91,2.279,0.91,3.189,0c0.911-0.91,0.911-2.279,0-3.19L17.875,52.202l5.922-5.924l7.597,7.595
					c0.911,0.911,2.279,0.911,3.189,0c0.911-0.909,0.911-2.279,0-3.188l-7.597-7.595l5.924-5.922l16.71,16.706
					c0.911,0.911,2.279,0.911,3.191,0c0.91-0.91,0.91-2.279,0-3.189L36.102,33.974l5.924-5.924l7.595,7.595
					c0.911,0.911,2.279,0.911,3.19,0c0.911-0.911,0.911-2.279,0-3.192l-7.595-7.595l5.923-5.923l16.712,16.709
					c0.91,0.911,2.277,0.911,3.186,0c0.911-0.911,0.911-2.279,0-3.192L54.328,15.746l5.924-5.923l7.597,7.593
					c0.456,0.456,1.06,0.609,1.666,0.609c0.61,0,1.217-0.152,1.674-0.609c0.91-0.911,0.91-2.279,0-3.19l-7.597-7.593l5.923-5.925
					l16.711,16.708c0.459,0.456,1.064,0.609,1.673,0.609c0.606,0,1.214-0.152,1.67-0.609c0.913-0.911,0.913-2.279,0-3.19
					L72.86-2.482l1.826-1.824c2.276-2.279,6.075-2.279,8.353,0l25.062,24.762c1.064,1.062,1.67,2.579,1.67,4.099
					c0,1.519-0.606,3.038-1.67,4.102l-73.367,73.37c-0.911,0.909-0.911,2.279,0,3.192c0.456,0.454,1.064,0.606,1.673,0.606
					c0.606,0,1.214-0.151,1.67-0.606l73.215-73.22C115.393,27.899,115.393,21.368,111.291,17.266z"/>
			</g>
		</g>
		<g display="none">
			<g display="inline">
				<path fill="#FFFFFF" stroke="#000000" stroke-width="4" stroke-miterlimit="10" d="M103.851,9.974
					c-0.913-0.911-2.28-0.911-3.19,0c-0.913,0.911-0.913,2.279,0,3.19c1.06,1.062,1.519,2.43,1.519,3.797
					c0,1.366-0.609,2.734-1.519,3.646c0,0,0-0.15-0.153-0.15l-8.66-8.66c-0.909-0.911-2.276-0.911-3.186,0
					c-0.91,0.911-0.91,2.279,0,3.191l8.653,8.657c0,0,0.156,0,0.156,0.153L35.039,86.532L17.42,68.91L83.039,3.29
					c0.913-0.909,0.913-2.277,0-3.189c-0.911-0.911-2.277-0.911-3.189,0L12.557,67.243l0,0c-0.15,0.15-0.301,0.454-0.456,0.607
					c0,0,0,0,0,0.15c0,0,0,0,0,0.153L1.772,99.292l0,0c0,0.15,0,0.15,0,0.303v0.153v0.15v0.153v0.153c0,0.15,0,0.15,0,0.303l0,0l0,0
					c0,0.153,0.15,0.456,0.306,0.607l0,0c0.15,0.153,0.302,0.304,0.456,0.457c0,0,0,0,0.15,0.15c0.15,0.153,0.306,0.153,0.607,0.306
					l0,0c0.154,0,0.454,0.15,0.76,0.15c0.303,0,0.456,0,0.759-0.15l0,0l30.837-10.176c0,0,0,0,0.153,0c0,0,0,0,0.153,0
					c0.303-0.153,0.456-0.303,0.606-0.456l0,0l67.294-67.294c1.82-1.824,2.887-4.405,2.887-6.987
					C106.737,14.378,105.825,11.797,103.851,9.974z M7.392,96.558l7.749-23.392l15.492,15.492L7.392,96.558z"/>
				<path fill="#FFFFFF" stroke="#000000" stroke-width="4" stroke-miterlimit="10" d="M80.153,20.607L54.178,46.582
					c-0.911,0.911-0.911,2.279,0,3.19c0.454,0.456,1.064,0.606,1.673,0.606c0.606,0,1.214-0.15,1.67-0.606l25.821-25.974
					c0.913-0.911,0.913-2.279,0-3.191C82.43,19.695,81.066,19.695,80.153,20.607z"/>
				<path fill="#FFFFFF" stroke="#000000" stroke-width="4" stroke-miterlimit="10" d="M45.519,55.241l-8.656,8.657
					c-0.911,0.911-0.911,2.279,0,3.19c0.456,0.456,1.061,0.609,1.67,0.609c0.609,0,1.214-0.153,1.67-0.609l8.659-8.659
					c0.911-0.909,0.911-2.279,0-3.19C47.952,54.328,46.431,54.328,45.519,55.241z"/>
			</g>
		</g>
		<g display="none">
			<g display="inline">
				<path fill="#FFFFFF" stroke="#000000" stroke-width="4" stroke-miterlimit="10" d="M114.181,46.582
					c-1.067-1.519-24.765-37.52-65.775-37.52c-41.014,0-64.711,36-65.772,37.52l-0.761,1.216l0.761,1.213
					c1.061,1.519,24.758,37.521,65.772,37.521c41.01,0,64.708-36.001,65.775-37.521l0.759-1.213L114.181,46.582z M48.406,81.975
					c-34.33,0-56.505-27.951-61.063-34.175c4.559-6.231,26.581-34.178,61.063-34.178c34.33,0,56.509,27.947,61.062,34.178
					C104.915,54.024,82.886,81.975,48.406,81.975z"/>
				<path fill="#FFFFFF" stroke="#000000" stroke-width="4" stroke-miterlimit="10" d="M66.483,44.608
					c-1.216,0-2.276,1.214-2.126,2.429c0,0.305,0,0.609,0,0.761c0,8.81-7.14,15.948-15.95,15.948
					c-8.809,0-15.951-7.139-15.951-15.948c0-8.81,7.142-15.952,15.951-15.952c2.887,0,5.771,0.761,8.355,2.431
					c1.061,0.609,2.429,0.304,3.19-0.759c0.756-1.065,0.3-2.431-0.761-3.191c-3.189-1.973-6.986-3.038-10.784-3.038
					c-11.24,0-20.508,9.266-20.508,20.508c0,11.238,9.267,20.506,20.508,20.506c11.242,0,20.506-9.267,20.506-20.506
					c0-0.306,0-0.761,0-1.064C68.763,45.52,67.697,44.608,66.483,44.608z"/>
			</g>
		</g>
		<g display="none">
			<g display="inline">
				<path fill="#FFFFFF" stroke="#000000" stroke-width="4" stroke-miterlimit="10" d="M101.721,101.267L64.354,63.898
					c-1.214-1.214-3.19-1.214-4.402,0c-1.217,1.214-1.217,3.19,0,4.406l37.517,37.52c0.609,0.606,1.367,0.91,2.276,0.91
					c0.761,0,1.673-0.304,2.281-0.91C103.091,104.455,103.091,102.482,101.721,101.267z"/>
				<path fill="#FFFFFF" stroke="#000000" stroke-width="4" stroke-miterlimit="10" d="M33.976,3.593
					c18.988,0,34.331,15.343,34.331,34.33c0,4.861-0.913,9.417-2.889,13.82c-0.757,1.52,0,3.496,1.67,4.102
					c1.519,0.761,3.496,0,4.102-1.67c2.28-5.164,3.496-10.632,3.496-16.404c0-22.329-18.229-40.558-40.558-40.558
					c-22.329,0-40.56,18.228-40.56,40.558c0,22.329,18.231,40.558,40.56,40.558c5.619,0,11.088-1.217,16.403-3.496
					c1.519-0.759,2.28-2.582,1.671-4.102c-0.76-1.517-2.583-2.279-4.103-1.667c-4.404,1.972-8.959,2.884-13.822,2.884
					C14.988,72.253-0.354,56.911-0.354,37.924C-0.354,18.936,14.988,3.593,33.976,3.593z"/>
			</g>
		</g>
		<g display="none">
			<g display="inline">
				<path fill="#FFFFFF" stroke="#000000" stroke-width="4" stroke-miterlimit="10" d="M48.406-7.797
					c-26.128,0-47.393,21.264-47.393,47.392c0,25.518,43.139,66.684,44.961,68.355l2.583,2.431l2.582-2.431
					c1.824-1.672,44.963-42.837,44.963-68.355C95.801,13.467,74.533-7.797,48.406-7.797z M48.406,100.204
					C35.19,87.292,8.304,57.065,8.304,39.595c0-22.179,17.925-40.101,40.103-40.101c22.177,0,40.101,18.076,40.101,40.101
					C88.506,56.911,61.62,87.292,48.406,100.204z"/>
				<path fill="#FFFFFF" stroke="#000000" stroke-width="4" stroke-miterlimit="10" d="M69.826,33.822
					c-1.973,0.152-3.496,1.976-3.19,3.949c0,0.608,0.15,1.216,0.15,1.823c0,10.027-8.2,18.23-18.228,18.23
					c-10.025,0-18.226-8.203-18.226-18.23c0-10.025,8.202-18.226,18.226-18.226c3.796,0,7.293,1.061,10.328,3.188
					c1.673,1.215,3.953,0.759,5.013-0.911c1.217-1.671,0.761-3.949-0.91-5.012c-4.253-3.039-9.266-4.558-14.581-4.558
					c-14.128,0-25.522,11.393-25.522,25.519c0,14.125,11.393,25.519,25.522,25.519c14.124,0,25.52-11.393,25.52-25.519
					c0-0.911,0-1.671-0.153-2.582C73.62,35.037,71.796,33.519,69.826,33.822z"/>
			</g>
		</g>
		<g display="none">
			<g display="inline">
				<path fill="#FFFFFF" stroke="#000000" stroke-width="4" stroke-miterlimit="10" d="M53.875,76.053L31.394,98.531
					c-6.837,6.837-18.076,6.837-25.065,0c-6.836-6.835-6.836-18.076,0-25.062L28.81,50.985c1.366-1.364,1.366-3.643,0-5.01
					s-3.644-1.367-5.013,0L1.316,68.608c-9.72,9.722-9.72,25.367,0,34.937c4.862,4.859,11.09,7.29,17.471,7.29
					c6.379,0,12.608-2.433,17.468-7.29l22.48-22.482c1.37-1.367,1.37-3.643,0-5.013C57.368,74.684,55.242,74.684,53.875,76.053z"/>
				<path fill="#FFFFFF" stroke="#000000" stroke-width="4" stroke-miterlimit="10" d="M103.851,1.163
					c-9.722-9.722-25.367-9.722-34.938,0L46.279,23.645c-1.369,1.367-1.369,3.647,0,5.014c1.367,1.365,3.646,1.365,5.014,0
					L73.774,6.177c6.835-6.837,18.073-6.837,25.062,0c6.835,6.835,6.835,18.076,0,25.063L76.353,53.568
					c-1.364,1.367-1.364,3.647,0,5.013c0.761,0.763,1.676,1.063,2.432,1.063c0.761,0,1.823-0.3,2.429-1.063l22.485-22.48
					C113.42,26.532,113.42,10.734,103.851,1.163z"/>
				<path fill="#FFFFFF" stroke="#000000" stroke-width="4" stroke-miterlimit="10" d="M23.797,81.063
					c0.76,0.759,1.671,1.064,2.431,1.064c0.914,0,1.824-0.306,2.43-1.064l52.555-52.557c1.37-1.368,1.37-3.647,0-5.014
					c-1.363-1.367-3.64-1.367-5.01,0L23.797,76.053C22.433,77.42,22.433,79.696,23.797,81.063z"/>
			</g>
		</g>
		<g display="none">
			<g display="inline">
				<path fill="#FFFFFF" stroke="#000000" stroke-width="4" stroke-miterlimit="10" d="M52.964,71.19
					c10.329,0,18.832-8.506,18.832-18.836c0-10.33-8.503-18.834-18.832-18.834c-1.67,0-3.039,1.367-3.039,3.037
					c0,1.67,1.369,3.038,3.039,3.038c6.989,0,12.758,5.772,12.758,12.759c0,6.99-5.769,12.759-12.758,12.759
					c-6.989,0-12.76-5.769-12.76-12.759c0-3.342,1.367-6.531,3.646-8.962c1.216-1.215,1.216-3.035,0-4.252
					c-1.216-1.215-3.04-1.215-4.252,0c-3.497,3.494-5.319,8.202-5.319,13.215C34.129,62.684,42.632,71.19,52.964,71.19z"/>
				<path fill="#FFFFFF" stroke="#000000" stroke-width="4" stroke-miterlimit="10" d="M116.153,49.316h-12.912
					c-0.759-12.15-5.313-22.178-12.605-30.38l7.897-7.9c1.211-1.213,1.211-3.036,0-4.252c-1.22-1.214-3.037-1.214-4.254,0
					l-7.897,7.899C78.179,7.392,68.151,2.681,56.001,2.075v-12.912c0-1.67-1.369-3.038-3.037-3.038c-1.67,0-3.039,1.368-3.039,3.038
					v36.152c0,1.673,1.369,3.041,3.039,3.041c1.67,0,3.037-1.368,3.037-3.041V8c10.633,0.606,18.988,4.709,26.127,10.936
					l-7.595,7.596c-1.216,1.215-1.216,3.038,0,4.252c0.609,0.606,1.37,0.911,2.127,0.911c0.756,0,1.519-0.306,2.124-0.911
					l7.597-7.595c6.225,7.14,10.176,15.494,10.932,26.127H80.003c-1.674,0-3.04,1.369-3.04,3.038c0,1.67,1.366,3.039,3.04,3.039
					h17.162c-0.607,10.636-4.707,18.986-10.936,26.129l-7.595-7.597c-1.22-1.216-3.037-1.216-4.252,0c-1.22,1.217-1.22,3.04,0,4.254
					l7.592,7.595c-6.986,6.227-15.342,10.177-25.974,10.935V79.393c0-1.673-1.37-3.04-3.037-3.04c-1.67,0-3.039,1.367-3.039,3.04
					v17.162c-10.633-0.606-18.988-4.706-26.128-10.935l7.597-7.595c1.214-1.217,1.214-3.04,0-4.254
					c-1.219-1.217-3.039-1.217-4.253,0l-7.596,7.595C13.318,74.379,9.368,66.027,8.608,55.392h17.165c1.671,0,3.037-1.37,3.037-3.04
					c0-1.669-1.366-3.037-3.037-3.037H8.608c0.609-9.115,4.404-18.837,10.785-26.127l7.595,7.595
					c0.609,0.606,1.369,0.911,2.129,0.911c0.759,0,1.517-0.306,2.127-0.911c1.213-1.214,1.213-3.037,0-4.252L11.495,6.784
					c-1.216-1.214-3.039-1.214-4.253,0c-1.219,1.216-1.219,3.039,0,4.252l7.899,7.9C7.545,27.444,3.139,38.683,2.533,49.316h-12.912
					c-1.673,0-3.04,1.369-3.04,3.038c0,1.67,1.367,3.039,3.04,3.039H2.533C3.291,67.547,7.848,77.57,15.141,85.773l-7.749,7.899
					c-1.214,1.213-1.214,3.036,0,4.253c0.609,0.606,1.367,0.91,2.129,0.91c0.759,0,1.519-0.304,2.124-0.91l7.9-7.899
					c8.202,7.293,18.229,12,30.38,12.606v12.913c0,1.669,1.369,3.037,3.039,3.037c1.67,0,3.037-1.37,3.037-3.037v-12.913
					c12.15-0.759,22.178-5.313,30.381-12.606l7.9,7.899c0.606,0.606,1.364,0.91,2.123,0.91c0.76,0,1.523-0.304,2.129-0.91
					c1.213-1.217,1.213-3.04,0-4.253l-7.897-7.899c7.292-8.203,11.999-18.229,12.605-30.381h12.913c1.67,0,3.039-1.37,3.039-3.04
					C119.192,50.683,117.823,49.316,116.153,49.316z"/>
			</g>
		</g>
		<g display="none">
			<g display="inline">
				<path fill="#FFFFFF" stroke="#000000" stroke-width="4" stroke-miterlimit="10" d="M110.686,44.758
					c-1.823,0-3.036,1.367-3.036,3.192v29.77c0,2.887-2.886,5.013-5.776,5.013H4.051c-2.884,0-5.772-2.126-5.772-5.013V47.949
					c0-1.824-1.214-3.192-3.037-3.192c-1.823,0-3.04,1.367-3.04,3.192V77.72c0,6.38,5.469,11.089,11.85,11.089h97.672
					c6.379,0,11.849-4.709,11.849-11.089V47.949C113.726,46.126,112.507,44.758,110.686,44.758z"/>
				<path fill="#FFFFFF" stroke="#000000" stroke-width="4" stroke-miterlimit="10" d="M52.964,70.277
					c1.823,0,3.037-1.367,3.037-3.187V26.988l13.825,13.668c0.606,0.609,1.517,0.911,2.277,0.911s1.672-0.303,2.28-0.911
					c1.216-1.212,1.216-3.187,0-4.555l-19.141-19.14c-0.153-0.151-0.304-0.304-0.456-0.456c0,0-0.154-0.151-0.304-0.151
					c-0.154,0-0.154-0.152-0.304-0.152s-0.15,0-0.303-0.153c-0.153,0-0.153,0-0.303-0.15c-0.457-0.153-0.914-0.153-1.22,0
					c-0.15,0-0.15,0-0.303,0.15c-0.15,0-0.15,0-0.303,0.153c-0.153,0-0.153,0.152-0.303,0.152s-0.15,0.151-0.304,0.151
					c-0.304,0.304-0.607,0.608-0.909,0.911c0,0.154-0.156,0.154-0.156,0.306c0,0.151-0.15,0.151-0.15,0.304
					c0,0.153,0,0.153-0.151,0.303c0,0.154,0,0.154-0.153,0.306c0,0.151,0,0.456,0,0.606l0,0v47.85
					C49.925,68.758,51.139,70.277,52.964,70.277z"/>
				<path fill="#FFFFFF" stroke="#000000" stroke-width="4" stroke-miterlimit="10" d="M33.823,41.568
					c0.761,0,1.673-0.304,2.279-0.911l9.57-9.567c1.214-1.216,1.214-3.19,0-4.557c-1.216-1.217-3.19-1.217-4.557,0l-9.57,9.569
					c-1.213,1.214-1.213,3.189,0,4.555C32.152,41.265,33.064,41.568,33.823,41.568z"/>
			</g>
		</g>
		<g display="none">
			<g display="inline">
				<path fill="#FFFFFF" stroke="#000000" stroke-width="4" stroke-miterlimit="10" d="M110.686,44.758
					c-1.823,0-3.036,1.367-3.036,3.192v29.77c0,2.887-2.733,5.013-5.776,5.013H4.051c-2.884,0-5.772-2.126-5.772-5.013V47.949
					c0-1.824-1.214-3.192-3.037-3.192c-1.823,0-3.04,1.367-3.04,3.192V77.72c0,6.38,5.319,11.089,11.85,11.089h97.823
					c6.383,0,11.852-4.556,11.852-11.089V47.949C113.726,46.126,112.507,44.758,110.686,44.758z"/>
				<path fill="#FFFFFF" stroke="#000000" stroke-width="4" stroke-miterlimit="10" d="M41.115,59.797
					c0.606,0.609,1.367,0.911,2.279,0.911s1.671-0.303,2.279-0.911c1.214-1.216,1.214-3.34,0-4.556l-9.57-9.57
					c-1.214-1.216-3.342-1.216-4.557,0c-1.213,1.216-1.213,3.341,0,4.557L41.115,59.797z"/>
				<path fill="#FFFFFF" stroke="#000000" stroke-width="4" stroke-miterlimit="10" d="M49.774,67.697c0,0.15,0,0.15,0.151,0.3
					c0,0.156,0,0.156,0.15,0.307c0,0.15,0.156,0.15,0.156,0.304c0,0.15,0.15,0.15,0.15,0.3c0.304,0.306,0.607,0.609,0.913,0.911
					c0.15,0,0.15,0.153,0.301,0.153c0.153,0,0.153,0.153,0.304,0.153c0.15,0,0.15,0,0.303,0.15c0.15,0,0.15,0,0.303,0.153
					c0.154,0,0.459,0,0.61,0c0.151,0,0.457,0,0.607,0c0.153,0,0.153,0,0.303-0.153c0.153,0,0.153,0,0.303-0.15
					c0.154,0,0.154-0.153,0.304-0.153c0.154,0,0.154-0.153,0.306-0.153c0.151-0.15,0.304-0.304,0.456-0.456l19.139-19.137
					c1.216-1.216,1.216-3.341,0-4.557c-1.216-1.216-3.343-1.216-4.557,0L56.154,59.344V19.24c0-1.824-1.216-3.191-3.039-3.191
					c-1.822,0-3.04,1.367-3.04,3.191v47.85l0,0C49.925,67.393,49.774,67.547,49.774,67.697z"/>
			</g>
		</g>
		<g display="none">
			<g display="inline">
				<path fill="#FFFFFF" stroke="#000000" stroke-width="4" stroke-miterlimit="10" d="M104.46,23.492H77.266
					c-2.58,0-4.556-1.367-4.556-3.947V6.784H43.543c-5.619,0-10.326,5.164-10.326,10.938v1.824c0,2.579-1.974,3.947-4.559,3.947
					H1.466c-1.517,0-2.884,1.52-2.884,3.04c0,1.518,1.217,3.038,2.884,3.038h27.192c5.62,0,10.633-4.406,10.633-10.025v-1.824
					c0-2.584,1.673-4.863,4.252-4.863h23.091v6.687c0,5.619,5.012,10.022,10.632,10.022h27.194c2.577,0,4.707,2.432,4.707,5.014
					v52.56c0,2.579-2.13,4.857-4.707,4.857H1.466c-2.579,0-4.707-2.127-4.707-4.707c0-0.15,0-0.306,0-0.457c0-0.15,0-0.303,0-0.456
					V43.847c0-1.518-1.517-2.885-3.036-2.885c-1.521,0-3.04,1.214-3.04,2.885v42.229c0,0.153,0.153,0.303,0.306,0.456
					c0,0.153,0,0.61,0,0.76c0,5.619,4.709,10.633,10.478,10.633H104.61c5.62,0,10.783-5.164,10.783-10.939V34.582
					C115.243,28.811,110.23,23.492,104.46,23.492z"/>
				<path fill="#FFFFFF" stroke="#000000" stroke-width="4" stroke-miterlimit="10" d="M38.989,50.985
					c-1.367-0.608-3.037-0.15-3.799,1.367c-1.214,2.583-1.973,5.623-1.973,8.506c0,10.787,8.809,19.746,19.746,19.746
					c10.785,0,19.744-8.809,19.744-19.746c0-10.784-8.809-19.749-19.744-19.749c-3.344,0-6.534,0.761-9.42,2.432
					c-1.366,0.759-1.824,2.432-1.061,3.799c0.759,1.369,2.429,1.824,3.797,1.062c2.127-1.062,4.406-1.67,6.684-1.67
					c7.745,0,14.125,6.38,14.125,14.126c0,7.75-6.38,14.129-14.125,14.129c-7.747,0-14.129-6.379-14.129-14.126
					c0-2.129,0.456-4.253,1.367-6.076C40.965,53.265,40.353,51.595,38.989,50.985z"/>
				<path fill="#FFFFFF" stroke="#000000" stroke-width="4" stroke-miterlimit="10" d="M78.329,46.278h16.865
					c1.517,0,2.884-0.759,2.884-2.279c0-1.521-1.37-2.279-2.884-2.279H78.329c-1.519,0-2.884,0.758-2.884,2.279
					C75.444,45.52,76.66,46.278,78.329,46.278z"/>
				<path fill="#FFFFFF" stroke="#000000" stroke-width="4" stroke-miterlimit="10" d="M78.329,62.987h16.865
					c1.517,0,2.884-0.759,2.884-2.279c0-1.52-1.37-2.277-2.884-2.277H78.329c-1.519,0-2.884,0.76-2.884,2.277
					C75.444,62.228,76.66,62.987,78.329,62.987z"/>
				<path fill="#FFFFFF" stroke="#000000" stroke-width="4" stroke-miterlimit="10" d="M78.329,81.216h8.509
					c1.52,0,2.887-1.52,2.887-3.04c0-1.519-1.219-3.034-2.887-3.034h-8.509c-1.519,0-2.884,1.517-2.884,3.034
					C75.444,79.696,76.66,81.216,78.329,81.216z"/>
			</g>
		</g>
		<g display="none">
			<g display="inline">
				<path fill="#FFFFFF" stroke="#000000" stroke-width="4" stroke-miterlimit="10" d="M115.699,99.748l-7.9-71.392
					c-0.606-6.079-5.772-10.94-11.998-10.94H85.623C81.366,0.708,69.063-12.052,54.482-12.052c-14.586,0-26.887,12.76-31.141,29.468
					H13.165c-1.822,0-3.342,1.976-3.342,3.797c0,1.824,1.52,3.799,3.342,3.799h8.962c-0.306,1.52-0.456,4.102-0.456,6.378
					c0,1.824,1.519,3.191,3.34,3.191c1.824,0,3.344-1.368,3.344-3.191c0-2.277,0.151-4.858,0.454-6.378h51.495
					c0.303,1.52,0.456,4.102,0.456,6.378c0,1.824,1.52,3.191,3.343,3.191c1.823,0,3.34-1.368,3.34-3.191
					c0-2.277-0.15-4.858-0.456-6.378h8.962c2.734,0,5.163,1.823,5.469,4.71l7.747,70.937c0.15,1.517-0.306,3.19-1.37,4.404
					c-1.059,1.212-2.429,1.976-4.102,1.976H5.266c-1.521,0-3.039-0.914-4.1-2.131c-1.064-1.212-1.52-2.732-1.367-4.102l8.809-49.366
					c0.303-1.821-0.911-3.494-2.584-3.797c-1.822-0.304-3.49,0.911-3.797,2.582l-8.809,49.519c-0.306,3.34,0.759,6.836,3.037,9.267
					c2.279,2.582,5.467,3.949,8.962,3.949h98.433c3.342,0,6.685-1.52,8.962-3.949C114.94,106.584,116.003,103.088,115.699,99.748z
					 M30.026,17.416C33.823,5.265,43.393-5.52,54.482-5.52c11.089,0,20.659,10.785,24.458,22.936H30.026z"/>
			</g>
		</g>
		<g display="none">
			<g display="inline">
				<path fill="#FFFFFF" stroke="#000000" stroke-width="4" stroke-miterlimit="10" d="M105.521,1.314L77.573-5.673
					c-1.824-0.456-3.646-0.151-5.167,0.761c-1.519-0.912-3.343-1.217-5.164-0.761l-28.1,6.987c-1.064,0.306-1.976,0.761-2.734,1.52
					c-0.761-0.609-1.673-1.214-2.734-1.52L5.569-5.673c-2.124-0.456-4.253,0-6.076,1.217c-1.67,1.367-2.734,3.341-2.734,5.469
					c0,1.669,1.367,3.036,3.04,3.036c1.667,0,3.034-1.367,3.034-3.036c0-0.456,0.306-0.609,0.457-0.761
					c0.154-0.151,0.454-0.303,0.911-0.151l28.407,6.987c0.456,0.15,1.064,0.456,1.064,0.911v65.772
					c-9.116-1.217-12.308-8.506-12.308-23.849c0-1.669-1.517-3.036-3.187-3.036c-1.67,0-2.734,1.366-2.734,3.036
					c0,7.749,0,27.951,18.229,29.927v19.138c0,0.456-0.456,0.609-0.609,0.76c-0.153,0.15-0.609,0.304-1.064,0.15l-27.95-6.987
					c-0.456-0.15-0.76-0.456-0.76-0.909V23.036C3.291,21.368,1.922,20,0.255,20c-1.673,0-3.04,1.369-3.04,3.036v69.116
					c0,3.191,2.129,6.076,5.164,6.834l27.952,6.986c0.606,0.154,1.064,0.154,1.669,0.154c1.52,0,3.039-0.456,4.254-1.52l0.153-0.153
					l0.15,0.153c1.217,0.91,2.734,1.52,4.252,1.52c0.611,0,1.217,0,1.673-0.154l28.102-6.986c0.606-0.15,1.211-0.456,1.822-0.76
					c0.61,0.304,1.214,0.607,1.824,0.76l28.1,6.986c0.609,0.154,1.217,0.154,1.674,0.154c1.517,0,3.033-0.456,4.253-1.52
					c1.67-1.367,2.582-3.343,2.582-5.47V8.151C110.686,4.81,108.558,2.075,105.521,1.314z M40.203,7.392l28.254-6.685l0,0
					c0.15,0-0.15-0.303,0-0.303c0,0.303-0.456,0.303-0.456,0.759V29.57c-9.116,1.82-16.862,10.48-16.862,20.658
					c0,11.392-4.404,21.266-11.998,23.545V8.151C39.292,7.695,39.747,7.544,40.203,7.392z M40.965,100.051
					c-0.456,0.153-0.911,0-1.066-0.153c-0.15-0.15-0.607-0.456-0.607-0.76V79.849c10.633-1.973,17.925-14.279,17.925-29.774
					c0-6.835,4.86-12.76,10.936-14.43v56.507c0,0.303,0.306,0.609,0.456,1.063L40.965,100.051z M104.61,99.138
					c0,0.457-0.15,0.61-0.303,0.76c-0.153,0.153-0.456,0.306-0.76,0.153l-27.948-6.986c0-0.304,0.15-0.61,0.15-1.064V35.645
					c6.076,1.52,9.57,5.922,10.783,11.392l-1.669-1.67c-1.214-1.215-3.039-1.215-4.254,0c-1.216,1.215-1.216,3.037,0,4.254
					l4.71,4.707l-5.316,4.253c-1.219,1.063-1.519,2.887-0.457,4.253c0.607,0.761,1.52,1.064,2.279,1.064
					c0.606,0,1.367-0.151,1.824-0.607l5.769-4.71l5.167,5.166c0.609,0.607,1.366,0.91,2.123,0.91c0.761,0,1.52-0.303,2.129-0.91
					c1.217-1.216,1.217-3.039,0-4.253l-4.707-4.709l5.316-4.254c1.217-1.064,1.52-2.884,0.459-4.252
					c-1.067-1.215-2.887-1.52-4.257-0.456l-3.04,2.431c-0.606-9.42-7.745-17.014-16.859-18.838V1.013c0-0.306,0-0.609,0-1.064
					c0,0,0,0,0.153,0c0.15,0,0.15,0,0.303,0l27.951,6.987c0.456,0.154,0.61,0.456,0.61,0.912v91.29H104.61z"/>
			</g>
		</g>
		<g display="none">
			<g display="inline">
				<path fill="#FFFFFF" stroke="#000000" stroke-width="4" stroke-miterlimit="10" d="M74.533,28.961
					c1.82-4.102,3.189-8.355,3.189-12.455c0-15.342-10.177-27.798-22.935-27.798c-12.76,0-22.938,12.456-22.938,27.798
					c0,4.557,0.911,8.659,2.28,12.305C21.215,32.152,11.949,44,11.949,57.368v37.063c0,1.821,1.216,3.342,3.039,3.342
					s3.037-1.52,3.037-3.342V57.368c0-11.545,9.265-21.57,21.116-22.786l5.01-0.456l-2.732-4.403
					c-2.129-3.496-3.19-8.053-3.19-13.065c0-11.698,7.442-21.266,16.402-21.266c9.117,0,16.406,9.568,16.406,21.266
					c0,5.317-2.276,10.177-4.1,13.065l-2.733,4.403l5.163,0.456C80.91,35.646,89.416,45.52,89.416,57.368v37.063
					c0,1.821,1.219,3.342,3.04,3.342c1.823,0,3.039-1.52,3.039-3.342V57.368C95.497,43.697,86.988,32.302,74.533,28.961z"/>
				<path fill="#FFFFFF" stroke="#000000" stroke-width="4" stroke-miterlimit="10" d="M32.912,97.469l-9.873,9.87
					c-1.217,1.217-1.217,3.343,0,4.556c0.606,0.61,1.519,0.911,2.279,0.911c0.911,0,1.67-0.303,2.279-0.911l9.873-9.869
					c1.216-1.217,1.216-3.343,0-4.557C36.255,96.252,34.129,96.252,32.912,97.469z"/>
				<path fill="#FFFFFF" stroke="#000000" stroke-width="4" stroke-miterlimit="10" d="M54.482,96.558
					c-1.823,0-3.039,1.517-3.039,3.34v9.876c0,1.823,1.216,3.342,3.039,3.342c1.823,0,3.039-1.519,3.039-3.342v-9.876
					C57.521,98.075,56.305,96.558,54.482,96.558z"/>
				<path fill="#FFFFFF" stroke="#000000" stroke-width="4" stroke-miterlimit="10" d="M76.66,97.469
					c-1.216-1.217-3.343-1.217-4.557,0c-1.216,1.214-1.216,3.34,0,4.557l9.872,9.869c0.609,0.61,1.52,0.911,2.28,0.911
					c0.911,0,1.671-0.303,2.277-0.911c1.22-1.213,1.22-3.339,0-4.556L76.66,97.469z"/>
			</g>
		</g>
		<g display="none">
			<g display="inline">
				<path fill="#FFFFFF" stroke="#000000" stroke-width="4" stroke-miterlimit="10" d="M106.887,52.354H32.609
					c-1.52-10.633-10.938-18.988-22.329-18.988c-12.456,0-22.482,10.177-22.482,22.635c0,12.453,10.179,22.631,22.482,22.631
					c1.366,0,2.886-0.15,4.253-0.3c1.67-0.303,2.887-1.976,2.582-3.799c-0.304-1.824-1.974-2.887-3.797-2.583
					c-0.911,0.15-1.974,0.303-3.039,0.303c-8.812,0-16.102-7.29-16.102-16.101c0-8.812,7.29-16.102,16.103-16.102
					c8.81,0,16.101,7.292,16.101,16.102c0,3.342-1.064,6.682-3.039,9.416c-1.063,1.367-0.759,3.496,0.759,4.557
					c1.369,1.064,3.496,1.064,4.559-0.456c2.127-3.04,3.493-6.687,4.102-9.723h32.355v9.116c0,1.82,1.214,3.187,3.036,3.187
					c1.824,0,3.04-1.367,3.04-3.187V59.95h3.04v15.495c0,1.82,1.973,3.187,3.799,3.187c1.823,0,3.796-1.369,3.796-3.187V59.95h3.04
					v9.112c0,1.824,1.216,3.193,3.037,3.193c1.823,0,3.037-1.367,3.037-3.193V59.95h3.037v15.495c0,1.82,1.217,3.187,3.04,3.187
					c1.82,0,3.037-1.369,3.037-3.187V59.95h6.835c1.824,0,3.193-1.973,3.193-3.796C110.08,54.328,108.711,52.354,106.887,52.354z"/>
			</g>
		</g>
		<g display="none">
			<g display="inline">
				<path fill="#FFFFFF" stroke="#000000" stroke-width="4" stroke-miterlimit="10" d="M83.039,34.43
					c-3.493,0-6.836,0.759-9.722,2.126L40.659,8.303c1.367-2.431,2.126-5.166,2.126-8.202c0-9.266-7.595-16.863-16.862-16.863
					c-0.757,0-1.517,0-2.126,0.155c-1.976,0.302-3.343,1.974-3.037,3.947c0.306,1.976,1.973,3.344,3.949,3.041
					c0.457,0,0.911-0.154,1.214-0.154c5.472,0,9.876,4.406,9.876,9.875c0,5.468-4.404,9.872-9.876,9.872
					c-5.469,0-9.87-4.404-9.87-9.872c0-1.216,0.303-2.584,0.759-3.646c0.759-1.823-0.153-3.797-1.976-4.558
					c-1.823-0.759-3.947,0.151-4.556,1.974c-0.759,1.975-1.215,4.102-1.215,6.38c0,9.266,7.593,16.861,16.858,16.861
					c3.8,0,7.294-1.214,10.179-3.343l31.14,27.039c-4.71,4.254-7.745,10.482-7.745,17.468c0,4.407,1.214,8.659,3.49,12.152
					l-35.846,15.04c-2.889-5.014-8.355-8.356-14.585-8.356c-9.266,0-17.012,7.596-17.012,16.862c0,9.266,7.595,17.012,17.012,17.012
					c9.265,0,16.863-7.593,16.863-17.012c0-0.607,0-1.214-0.154-1.823L67.543,76.05c4.103,3.646,9.572,5.772,15.496,5.772
					c13.063,0,23.698-10.632,23.698-23.695C106.584,45.063,96.104,34.43,83.039,34.43z M12.407,103.85
					c-5.47,0-9.873-4.407-9.873-9.875c0-5.469,4.403-9.875,9.873-9.875c5.469,0,9.872,4.406,9.872,9.875
					C22.278,99.442,17.875,103.85,12.407,103.85z M83.039,74.684c-9.112,0-16.556-7.443-16.556-16.558
					c0-9.117,7.445-16.56,16.556-16.56c9.113,0,16.556,7.444,16.556,16.56C99.595,67.243,92.152,74.684,83.039,74.684z"/>
			</g>
		</g>
		<g display="none">
			<g display="inline">
				<path fill="#FFFFFF" stroke="#000000" stroke-width="4" stroke-miterlimit="10" d="M95.497,4.048
					c-3.493-3.491-8.509-4.554-13.066-2.734c0,0,0,0-0.15,0l-32.205,11.85c-2.123,0.759-3.189,3.19-2.429,5.164
					c0.609,1.673,2.126,2.734,3.797,2.734c0.456,0,0.909-0.151,1.367-0.304L85.016,8.911l0,0c0,0,0,0,0.15,0
					C87.443,8,89.115,9.368,89.572,9.823c0.456,0.456,1.82,2.124,0.911,4.403L70.887,62.531L57.065,51.898
					c-0.153,0-0.153-0.153-0.303-0.153c-0.153-0.15-0.306-0.15-0.457-0.303c-0.151,0-0.304-0.151-0.454-0.151
					c-0.153,0-0.153-0.15-0.306-0.15l0,0c-0.151,0-0.303,0-0.456-0.153c-0.151,0-0.151,0-0.303,0c-0.154,0-0.304,0-0.459,0
					c-0.15,0-0.15,0-0.304,0c-0.151,0-0.303,0-0.453,0.153c-0.154,0-0.154,0-0.306,0c-0.151,0-0.303,0.15-0.457,0.15
					c-0.153,0-0.153,0-0.306,0.151c-0.153,0-0.153,0.153-0.303,0.153c-0.153,0-0.153,0.15-0.303,0.303l-0.15,0.153
					c-0.153,0.151-0.304,0.303-0.304,0.457l0,0c0,0-0.15,0.15-0.15,0.303c-0.153,0.153-0.153,0.303-0.307,0.456
					c0,0.153-0.15,0.303-0.15,0.456c0,0.153-0.151,0.153-0.151,0.303l-6.99,24.459l-5.163,2.126L48.71,45.216
					c0-0.151,0-0.151,0-0.303c0-0.154,0-0.304,0.153-0.456c0-0.152,0-0.303,0-0.455c0-0.153,0-0.303,0-0.456
					c0-0.152,0-0.303,0-0.455c0-0.154,0-0.304-0.153-0.456c0-0.154-0.151-0.304-0.151-0.304c0-0.154-0.151-0.305-0.151-0.305
					c0-0.151-0.151-0.303-0.306-0.303c0-0.154-0.149-0.154-0.149-0.304l-12.61-15.951c0-0.154,0-0.304-0.153-0.304
					c-0.606-1.366-1.823-2.279-3.342-2.432c-1.216-0.304-2.429,0-3.493,0.759c-0.153,0.153-0.457,0.306-0.609,0.609
					c-2.126,1.368-3.797,3.343-4.709,5.622L1.622,81.975c-1.976,4.71-0.911,9.723,2.732,13.369c2.431,2.429,5.469,3.643,8.659,3.643
					c1.52,0,3.19-0.303,4.71-0.911L70.129,76.51c3.037-1.217,5.469-3.646,6.683-6.686l21.415-52.406
					C100.205,12.709,99.14,7.695,95.497,4.048z"/>
			</g>
		</g>
		<g display="none">
			<g display="inline">
				<path fill="#FFFFFF" stroke="#000000" stroke-width="4" stroke-miterlimit="10" d="M64.508-8.253
					c-4.254-2.129-9.116-1.521-12.76,1.516L18.634,19.545c-0.911,0.756-2.126,0.911-3.493,0.911H-1.721
					c-1.823,0-3.343,1.973-3.343,3.796c0,1.824,1.52,3.797,3.343,3.797h16.862c2.734,0,5.469-1.215,7.592-2.887l33.118-26.58
					c1.67-1.368,3.947-1.671,5.92-0.759c1.979,0.911,3.193,2.734,3.193,5.012v92.964c0,2.126-1.214,4.099-3.193,5.012
					c-1.973,0.91-4.25,0.76-5.92-0.606L22.733,73.469c-2.123-1.67-4.857-2.886-7.592-2.886H-1.721c-3.037,0-6.077-2.129-6.077-5.163
					V40.05c0-1.824-1.213-3.342-3.036-3.342c-1.823,0-3.04,1.517-3.04,3.342V65.42c0,6.68,5.47,12.756,12.153,12.756h16.862
					c1.214,0,2.429,0.154,3.493,0.911l33.114,26.434c2.28,1.819,4.862,2.582,7.593,2.582c1.823,0,3.343-0.456,5.167-1.216
					c4.253-2.126,6.682-6.38,6.682-11.088V2.834C71.19-1.875,68.763-6.129,64.508-8.253z"/>
				<path fill="#FFFFFF" stroke="#000000" stroke-width="4" stroke-miterlimit="10" d="M89.875,30.784
					c-1.669,0.759-2.281,2.884-1.519,4.404c2.127,4.405,3.339,9.874,3.339,15.796c0,6.08-1.364,12.003-3.643,16.406
					c-0.914,1.67-0.3,3.644,1.366,4.557c0.457,0.303,1.066,0.456,1.521,0.456c1.213,0,2.276-0.609,2.887-1.823
					c2.882-5.316,4.402-12.305,4.402-19.596c0-6.834-1.366-13.517-4.099-18.683C93.519,30.634,91.545,30.024,89.875,30.784z"/>
				<path fill="#FFFFFF" stroke="#000000" stroke-width="4" stroke-miterlimit="10" d="M106.128,12.859
					c-0.76-1.669-2.887-2.276-4.407-1.518c-1.669,0.759-2.276,2.885-1.516,4.405c4.556,9.113,6.987,20.811,6.987,32.964
					c0,12.758-2.734,25.063-7.747,34.329c-0.911,1.67-0.306,3.646,1.366,4.557c0.456,0.3,1.06,0.456,1.519,0.456
					c1.217,0,2.28-0.61,2.89-1.823c5.466-10.176,8.506-23.545,8.506-37.368C113.876,35.645,110.989,22.885,106.128,12.859z"/>
				<path fill="#FFFFFF" stroke="#000000" stroke-width="4" stroke-miterlimit="10" d="M79.09,41.265
					c-1.674,0.759-2.28,2.887-1.517,4.407c0.756,1.519,1.212,3.796,1.212,5.924c0,2.279-0.456,4.557-1.37,6.229
					c-0.909,1.67-0.3,3.644,1.37,4.553c0.456,0.306,1.067,0.456,1.52,0.456c1.214,0,2.277-0.606,2.887-1.823
					c1.367-2.579,2.126-5.922,2.126-9.415c0-3.192-0.759-6.382-1.976-8.962C82.736,41.113,80.762,40.506,79.09,41.265z"/>
			</g>
		</g>
		<g display="none">
			<g display="inline">
				<path fill="#FFFFFF" stroke="#000000" stroke-width="4" stroke-miterlimit="10" d="M65.721-8.253
					c-4.253-2.129-9.265-1.521-12.91,1.516L19.698,19.545c-0.911,0.756-2.279,0.911-3.497,0.911H-0.657
					C-2.48,20.457-4,22.43-4,24.253c0,1.824,1.519,3.797,3.343,3.797h16.858c2.734,0,5.469-1.215,7.595-2.886L56.912-1.418
					c1.673-1.368,4.252-1.671,6.227-0.759c1.976,0.911,3.493,2.734,3.493,5.012v92.964c0,2.126-1.52,4.099-3.493,5.012
					c-1.976,0.913-4.404,0.76-6.076-0.606L23.95,73.469c-2.129-1.67-5.013-2.886-7.747-2.886h-16.86c-3.04,0-5.62-2.129-5.62-5.163
					V40.05c0-1.824-1.216-3.342-3.04-3.342c-1.823,0-3.037,1.517-3.037,3.342V65.42c0,6.68,4.862,12.756,11.698,12.756h16.859
					c1.217,0,2.431,0.154,3.496,0.911l33.113,26.434c2.279,1.819,4.863,2.582,7.596,2.582c1.82,0,3.646-0.456,5.313-1.216
					c4.254-2.126,6.989-6.38,6.989-11.088V2.834C72.71-1.875,69.976-6.129,65.721-8.253z"/>
				<path fill="#FFFFFF" stroke="#000000" stroke-width="4" stroke-miterlimit="10" d="M101.721,52.508l9.57-9.572
					c1.369-1.368,1.369-3.342,0-4.709c-1.364-1.366-3.343-1.366-4.707,0l-9.569,9.572l-9.572-9.572c-1.364-1.366-3.34-1.366-4.707,0
					c-1.37,1.368-1.37,3.342,0,4.709l9.569,9.572l-9.569,9.568c-1.37,1.37-1.37,3.344,0,4.71c0.606,0.607,1.519,0.911,2.43,0.911
					c0.913,0,1.672-0.304,2.427-0.911l9.572-9.57l9.572,9.57c0.606,0.607,1.52,0.911,2.43,0.911c0.913,0,1.672-0.304,2.427-0.911
					c1.369-1.366,1.369-3.342,0-4.71L101.721,52.508z"/>
			</g>
		</g>
		<g display="none">
			<g display="inline">
				<path fill="#FFFFFF" stroke="#000000" stroke-width="4" stroke-miterlimit="10" d="M110.23,25.012
					c-1.973-2.735-5.012-4.555-8.356-4.555H32.912c-1.517,0-2.887,1.517-2.887,3.035c0,1.52,1.217,3.04,2.887,3.04h68.962
					c1.52,0,2.89,0.759,3.799,1.974c0.911,1.216,1.067,2.884,0.609,4.252l-11.999,36c-0.609,1.973-2.432,3.342-4.404,3.342H38.23
					c-1.977,0-3.799-1.367-4.407-3.19L10.128,5.872l0,0c0-0.151-0.151-0.151-0.151-0.303c0,0,0-0.154-0.154-0.154
					c0-0.151-0.153-0.151-0.153-0.151L9.52,5.112L9.368,4.96L9.216,4.81L9.065,4.657c-0.154,0-0.154-0.152-0.306-0.152H8.608
					c-0.151,0-0.151,0-0.304-0.151h-0.15C8,4.354,7.848,4.202,7.848,4.202V4.048H-9.62c-1.52,0-2.887,1.521-2.887,3.04
					c0,1.518,1.216,3.037,2.887,3.037H5.418L28.356,71.34c0.76,2.129,2.43,3.952,4.253,5.167c-1.671,1.974-2.583,4.403-2.583,7.29
					c0,6.229,5.013,11.393,11.395,11.393c6.226,0,11.39-4.863,11.39-11.09c0-2.126-0.606-3.949-1.517-5.469H74.23
					c-0.913,1.52-1.52,3.343-1.52,5.469c0,6.229,5.013,11.243,11.395,11.243c6.379,0,11.392-5.167,11.392-11.393
					c0-2.279-0.759-4.557-1.976-6.23c2.887-1.063,5.316-3.343,6.383-6.53l11.999-36C112.813,31.39,112.204,27.747,110.23,25.012z
					 M47.041,83.343c0,3.189-2.584,5.617-5.62,5.617c-3.19,0-5.622-2.584-5.622-5.617c0-3.192,2.582-5.623,5.622-5.623
					C44.608,77.57,47.041,80.152,47.041,83.343z M83.952,88.961c-3.19,0-5.623-2.582-5.623-5.616c0-3.193,2.583-5.624,5.623-5.624
					c3.186,0,5.62,2.584,5.62,5.624C89.572,86.379,86.988,88.961,83.952,88.961z"/>
			</g>
		</g>
		<g display="none">
			<g display="inline">
				<path fill="#FFFFFF" stroke="#000000" stroke-width="4" stroke-miterlimit="10" d="M25.468-14.483H-0.201
					c-7.443,0-13.673,6.077-13.673,13.673c0,1.824,1.52,3.342,3.343,3.342c1.824,0,3.344-1.824,3.344-3.647
					c0-3.797,3.187-7.29,6.986-7.29h25.669c3.799,0,6.23,3.644,6.23,7.595v25.669c0,3.799-2.431,6.228-6.23,6.228H-0.201
					c-3.799,0-6.986-2.732-6.986-6.685c0-1.824-1.521-3.19-3.344-3.19c-1.823,0.156-3.343,1.824-3.343,3.647
					c0,7.443,6.076,13.824,13.673,13.824h25.669c7.443,0,13.823-6.381,13.823-13.824V-0.81
					C39.292-8.406,32.912-14.483,25.468-14.483z"/>
				<path fill="#FFFFFF" stroke="#000000" stroke-width="4" stroke-miterlimit="10" d="M25.468,55.392H-0.201
					c-7.443,0-13.673,5.619-13.673,13.062v25.674c0,7.443,6.076,12.909,13.673,12.909h25.669c7.443,0,13.823-5.316,13.823-12.909
					V68.454C39.292,61.011,32.912,55.392,25.468,55.392z M31.699,94.128c0,3.797-2.431,6.834-6.229,6.834H-0.2
					c-3.799,0-7.597-2.887-7.597-6.834V68.454c0-3.797,3.647-6.986,7.597-6.986h25.669c3.799,0,6.229,3.189,6.229,6.986V94.128
					L31.699,94.128z"/>
				<path fill="#FFFFFF" stroke="#000000" stroke-width="4" stroke-miterlimit="10" d="M69.063,38.683h25.675
					c7.442,0,12.912-6.381,12.912-13.824V-0.81c0-7.442-5.32-13.673-12.912-13.673H69.063c-7.443,0-13.062,6.077-13.062,13.673
					v25.669C56.001,32.302,61.62,38.683,69.063,38.683z M62.077-0.81c0-3.798,3.19-7.595,6.986-7.595h25.675
					c3.796,0,6.833,3.644,6.833,7.595v25.669c0,3.799-2.887,6.228-6.833,6.228H69.063c-3.796,0-6.986-2.429-6.986-6.228V-0.81z"/>
				<path fill="#FFFFFF" stroke="#000000" stroke-width="4" stroke-miterlimit="10" d="M109.773,71.797L91.545,53.568
					c-2.583-2.583-5.922-3.947-9.57-3.947c-3.646,0-6.986,1.364-9.569,3.947L54.178,71.797c-2.583,2.582-3.947,5.923-3.947,9.569
					c0,3.646,1.364,6.986,3.947,9.57l18.228,18.228c2.583,2.583,5.923,3.95,9.569,3.95c3.649,0,6.987-1.367,9.57-3.95l18.228-18.228
					c2.584-2.584,3.953-5.924,3.953-9.57C113.726,77.72,112.357,74.229,109.773,71.797z M105.064,86.229l-18.226,18.226
					c-2.734,2.734-7.142,2.734-9.876,0L58.735,86.229c-2.734-2.734-2.734-7.142,0-9.876l18.228-18.226
					c1.366-1.367,3.19-1.973,4.862-1.973c1.824,0,3.494,0.606,4.86,1.973l18.232,18.226
					C107.798,79.087,107.798,83.495,105.064,86.229z"/>
			</g>
		</g>
		<g display="none">
			<g display="inline">
				<path fill="#FFFFFF" stroke="#000000" stroke-width="4" stroke-miterlimit="10" d="M93.065,35.492L25.166-9.62
					c-5.164-3.344-11.545-3.647-17.012-0.761c-5.32,2.887-8.81,8.507-8.81,14.583c0,2.431,1.973,4.558,4.554,4.558
					c2.583,0,4.559-1.976,4.559-4.558c0-2.887,1.52-5.317,3.95-6.684c2.429-1.368,5.316-1.215,7.747,0.305l67.898,45.266
					c2.129,1.366,3.34,3.646,3.34,6.227c0,2.582-1.21,4.862-3.34,6.228L20.154,100.81c-2.279,1.52-5.013,1.673-7.443,0.304
					c-2.431-1.366-3.8-3.794-3.8-6.683V35.342c0-2.431-2.126-4.557-4.557-4.557c-2.432,0-4.554,1.974-4.554,4.557v59.089
					c0,6.076,3.19,11.698,8.505,14.582c2.431,1.37,5.014,1.974,7.749,1.974c3.19,0,6.38-0.91,9.113-2.734l67.748-45.266
					c4.557-3.037,7.292-8.202,7.292-13.82C100.205,43.543,97.621,38.683,93.065,35.492z"/>
			</g>
		</g>
		<g>
			<g>
				<path fill="#FFFFFF" stroke="#000000" stroke-width="4" stroke-miterlimit="10" d="M95.497,2.681
					c-2.434,0-4.557,1.976-4.557,4.407v29.924c0-0.303-0.609-0.759-1.063-1.064L24.406-7.797C19.546-11.14,13.318-11.444,8-8.558
					C2.833-5.824-0.354-0.354-0.354,5.569c0,2.431,1.976,4.404,4.404,4.404c2.43,0,4.406-1.974,4.406-4.404
					c0-2.735,1.367-5.164,3.799-6.38c2.43-1.216,5.164-1.216,7.443,0.304L85.319,43.24c2.124,1.368,3.187,3.647,3.187,6.075
					c0,2.429-1.213,4.707-3.187,6.077L19.698,99.138c-2.279,1.521-4.863,1.672-7.142,0.304c-2.429-1.214-3.646-3.644-3.646-6.38
					V35.798c0-2.432-2.126-4.408-4.557-4.408c-2.431,0-4.554,1.976-4.554,4.408v57.267c0,5.922,3.19,11.39,8.355,14.125
					c2.429,1.217,4.859,1.823,7.592,1.823c3.04,0,6.23-0.91,8.81-2.734l65.319-43.747c0.456-0.303,1.063-0.609,1.063-1.06v31.441
					c0,2.433,2.123,4.409,4.557,4.409c2.433,0,4.556-1.976,4.556-4.409V7.089C100.052,4.657,97.928,2.681,95.497,2.681z"/>
			</g>
		</g>
		<g display="none">
			<g display="inline">
				<path fill="#FFFFFF" stroke="#000000" stroke-width="4" stroke-miterlimit="10" d="M91.848-6.888
					C86.685-9.62,80.609-9.317,75.749-6.129c-0.15,0.153-0.304,0.153-0.454,0.305L30.331,24.253
					c-1.976,1.369-2.584,3.949-1.216,5.925c0.759,1.212,2.127,1.974,3.644,1.974c0.76,0,1.671-0.305,2.43-0.761L80.762,1.013l0,0
					c2.277-1.519,5.317-1.519,7.596-0.306c2.429,1.217,4.102,3.647,4.102,6.382v85.976c0,2.733-1.67,5.01-4.102,6.377
					c-2.432,1.217-5.316,1.064-7.446-0.303l-64.71-43.139c-1.973-1.37-3.189-3.493-3.189-5.927c0-2.429,1.216-4.554,3.189-5.922
					c1.977-1.367,2.432-3.952,1.217-5.925c-1.367-1.974-3.799-2.581-5.774-1.214c-0.606,0.154-1.213,0.609-1.213,0.911V8.456
					c0-2.431-2.129-4.255-4.557-4.255c-2.43,0-4.559,1.977-4.559,4.255v84.606c0,2.431,2.129,4.257,4.559,4.257
					c2.429,0,4.557-1.976,4.557-4.257V62.228c0,0.303,0.606,0.606,1.063,0.911L75.9,106.128c2.584,1.822,5.62,2.58,8.659,2.58
					c2.579,0,4.857-0.607,7.289-1.824c5.166-2.732,8.056-8.049,8.056-13.822V6.936C100.052,1.163,97.015-4.153,91.848-6.888z"/>
			</g>
		</g>
		<g display="none">
			<g display="inline">
				<path fill="#FFFFFF" stroke="#000000" stroke-width="4" stroke-miterlimit="10" d="M42.329,3.746
					c0-7.596-6.075-13.671-13.67-13.671H25.62c-7.595,0-13.67,6.075-13.67,13.671v92.662c0,7.592,6.076,13.669,13.67,13.669h3.039
					c7.596,0,13.67-6.077,13.67-13.669V3.746L42.329,3.746z M34.734,94.734c0,3.494-2.734,6.229-6.227,6.229h-2.734
					c-3.494,0-6.227-2.734-6.227-6.229V2.381c0-3.497,2.733-6.231,6.227-6.231h2.734c3.493,0,6.227,2.734,6.227,6.231V94.734z"/>
				<path fill="#FFFFFF" stroke="#000000" stroke-width="4" stroke-miterlimit="10" d="M87.902,3.746
					c0-7.596-6.077-13.671-13.672-13.671h-3.037c-7.597,0-13.669,6.075-13.669,13.671v92.662c0,7.592,6.075,13.669,13.669,13.669
					h3.037c7.596,0,13.672-6.077,13.672-13.669V3.746z M80.306,94.734c0,3.494-2.733,6.229-6.229,6.229H71.34
					c-3.489,0-6.225-2.734-6.225-6.229V2.381c0-3.497,2.736-6.231,6.225-6.231h2.737c3.496,0,6.229,2.734,6.229,6.231V94.734z"/>
			</g>
		</g>
		<g display="none">
			<g display="inline">
				<path fill="#FFFFFF" stroke="#000000" stroke-width="4" stroke-miterlimit="10" d="M50.685,90.176
					c11.999,0,22.025-9.722,22.025-21.872V3.898c0-12-10.026-21.873-22.025-21.873c-1.823,0-3.494,1.518-3.494,3.341
					s1.216,3.342,3.039,3.342c8.355,0,14.733,6.684,14.733,15.038v64.559c0,7.139-4.556,13.06-10.635,14.731V57.215
					c0-1.823-1.977-3.343-3.797-3.343c-1.823,0-3.797,1.52-3.797,3.343v25.821c-6.076-1.517-10.633-7.289-10.633-13.669V4.81
					c0-1.824-1.973-3.341-3.796-3.341c-1.824,0-3.799,1.517-3.799,3.341v64.557C28.659,80.607,38.836,90.176,50.685,90.176z"/>
				<path fill="#FFFFFF" stroke="#000000" stroke-width="4" stroke-miterlimit="10" d="M86.685,76.053
					c-1.82,0-3.343,1.06-3.343,2.883c0,8.356-6.682,14.583-15.035,14.583H34.129c-8.356,0-15.039-6.227-15.039-14.583
					c0-1.823-1.519-3.189-3.343-3.189c-1.823,0-3.339,0.76-3.339,2.583c-0.151,11.999,9.72,21.112,21.721,21.112h12.758v15.189
					H41.72c-1.823,0-3.339,1.217-3.339,3.04c0,1.823,1.516,3.037,3.339,3.037h18.99c1.821,0,3.344-1.214,3.344-3.037
					c0-1.823-1.523-3.04-3.344-3.04h-6.226V99.442h13.669c12.002,0,21.875-8.96,21.875-20.961
					C90.028,76.657,88.506,76.053,86.685,76.053z"/>
			</g>
		</g>
		<g display="none">
			<path display="inline" fill="#FFFFFF" stroke="#000000" stroke-width="4" stroke-miterlimit="10" d="M91.089,8.456
				c0-0.154,0.153-0.306,0.153-0.306c0-0.151,0.15-0.151,0.15-0.303c0-0.154-0.303-0.304-0.303-0.304
				c0-0.152-0.303-0.152-0.303-0.306l0,0c0-0.15,0.303-0.15,0.303-0.303c0-0.152,0.153-0.304,0.153-0.304c0-0.151,0-0.151,0-0.306
				c0-0.15-0.153-0.304-0.303-0.304h-0.153l0,0h0.153v-0.15c0-0.456,0-0.607,0-0.607c0-0.152-0.153-0.152-0.153-0.305
				c0-0.15-0.15-0.15-0.15-0.303l0,0l0,0c-0.153-0.152-0.153-0.152-0.306-0.152c-0.15,0-0.15-0.151-0.303-0.151
				c-0.153,0-0.303-0.152-0.303-0.152l-0.157-0.153v-0.15l0,0v0.15c-0.153,0-0.303,0-0.303,0c-0.15,0-0.15,0-0.306,0
				c-0.15,0-0.15,0-0.3,0c-0.157,0-0.307,0-0.457,0h-0.156c-0.15,0-0.3,0-0.456,0h-0.15c-0.15,0-0.306,0-0.456,0.153l0,0l0,0l0,0
				L-6.581,43.847c0,0,0,0-0.151,0C-6.887,43.847-6.887,44-7.038,44c-0.149,0-0.149,0.152-0.304,0.152
				c-0.15,0-0.15,0.151-0.301,0.151c-0.154,0.151-0.154,0.151-0.304,0.306l-0.15,0.15c-0.154,0.153-0.154,0.153-0.154,0.305
				c0,0.151-0.151,0.151-0.151,0.304c0,0.154-0.151,0.304-0.151,0.304s0,0,0,0.152v0.153c0,0.15,0,0.303-0.154,0.455
				c0,0.151,0,0.151,0,0.304c0,0.153,0,0.303,0,0.303c0,0.153,0,0.153,0,0.305c0,0.151,0,0.151,0,0.304c0,0.152,0,0.303,0.154,0.303
				v0.152l0,0c0.151,0.304,0.303,0.609,0.456,0.759l0.15,0.151c0.15,0.154,0.304,0.304,0.606,0.455l0.156,0.155
				c0.149,0.151,0.454,0.301,0.756,0.301l38.281,12.761l12.759,38.277l0,0c0.153,0.303,0.303,0.61,0.456,0.911l0.151,0.153
				c0.151,0.303,0.456,0.456,0.606,0.606l0,0c0.153,0.153,0.457,0.303,0.609,0.303h0.154c0,0,0.303,0,0.456,0
				c0.304,0.151-0.456,0.151,1.06,0.151v-0.303V104H47.8c0.303,0,0.759-0.15,1.064-0.15l0,0c0.301-0.153,0.456-0.153,0.759-0.303
				l0.153-0.15c0.151-0.151,0.457-0.309,0.607-0.459l0.151-0.15c0.153-0.303,0.304-0.456,0.456-0.759l0,0L91.089,8.456h-0.15l0,0
				H91.089z M48.406,90.632l-9.72-29.164L77.573,22.58L48.406,90.632z"/>
		</g>
		<g display="none">
			<g display="inline">
				<path fill="#FFFFFF" stroke="#000000" stroke-width="4" stroke-miterlimit="10" d="M3.291,69.216
					c1.673,0,2.887-1.366,2.887-2.886c0-1.367,0.454-2.583,1.367-3.496l59.999-60c1.219-1.214,1.219-3.038,0-4.1
					c-1.214-1.216-3.036-1.216-4.102,0L3.595,58.581c-1.973,1.974-3.19,4.71-3.19,7.596C0.405,67.847,1.772,69.216,3.291,69.216z"/>
				<path fill="#FFFFFF" stroke="#000000" stroke-width="4" stroke-miterlimit="10" d="M105.671,11.797L91.848-2.027
					c-1.212-1.215-3.036-1.215-4.096,0c-1.22,1.216-1.22,3.039,0,4.102l13.819,13.824c0.911,0.911,1.367,2.127,1.367,3.494
					c0,1.365-0.456,2.582-1.367,3.493L34.734,89.721c-0.911,0.911-2.126,1.367-3.492,1.367L8.608,95.041
					c-2.584-0.153-4.71-2.28-4.71-4.863c0-1.67-1.364-2.884-2.884-2.884c-1.67,0-2.887,1.367-2.887,2.884
					c0,5.924,4.863,10.785,10.785,10.785h0.306l22.328-3.949c2.734,0,5.319-1.214,7.292-3.19l66.834-66.836
					c1.979-1.976,3.19-4.711,3.19-7.595C108.861,16.657,107.65,13.923,105.671,11.797z"/>
				<path fill="#FFFFFF" stroke="#000000" stroke-width="4" stroke-miterlimit="10" d="M31.699,58.127l7.593,7.596
					c1.973,1.974,4.707,3.187,7.595,3.187s5.621-1.06,7.597-3.187l37.976-37.976c1.214-1.215,1.214-3.038,0-4.102
					c-1.217-1.215-3.04-1.215-4.102,0L50.381,61.62c-1.823,1.824-5.013,1.824-6.987,0l-7.595-7.596
					c-1.976-1.973-1.976-5.012,0-6.987L80.762,2.226c1.213-1.213,1.213-3.037,0-4.1c-1.216-1.214-3.04-1.214-4.102,0l-44.962,44.81
					C27.444,47.19,27.444,54.024,31.699,58.127z"/>
			</g>
		</g>
	</g>
</g>
</svg>
