<?xml version="1.0" encoding="utf-8"?>
<!-- Generator: Adobe Illustrator 16.0.4, SVG Export Plug-In . SVG Version: 6.00 Build 0)  -->
<!DOCTYPE svg PUBLIC "-//W3C//DTD SVG 1.1//EN" "http://www.w3.org/Graphics/SVG/1.1/DTD/svg11.dtd">
<svg version="1.1" id="Layer_1" xmlns="http://www.w3.org/2000/svg" xmlns:xlink="http://www.w3.org/1999/xlink" x="0px" y="0px"
	 width="960px" height="960px" viewBox="0 0 960 960" enable-background="new 0 0 960 960" xml:space="preserve">
<g>
	<g>
		<path fill="#FFFFFF" d="M901.676,44.14H170.095c-7.862,0-14.042,6.179-14.042,14.042c0,7.864,6.18,14.042,14.042,14.042h717.821
			v815.833H72.083V303.353c0-7.863-6.178-14.042-14.042-14.042c-7.863,0-14.042,6.179-14.042,14.042v598.463
			c0,7.863,6.179,14.043,14.042,14.043h843.916c7.861,0,14.043-6.18,14.043-14.043V58.182
			C915.719,50.319,909.539,44.14,901.676,44.14z"/>
		<path fill="#FFFFFF" d="M58.041,226.965c7.864,0,14.042-6.178,14.042-14.042v-140.7h11.514c7.864,0,14.042-6.177,14.042-14.042
			c0-7.863-6.178-14.042-14.042-14.042H58.041C50.178,44.14,44,50.319,44,58.182v154.741C44,220.506,50.178,226.965,58.041,226.965z
			"/>
	</g>
</g>
</svg>
